<svg width="300" height="58" viewBox="0 0 300 58" fill="none" xmlns="http://www.w3.org/2000/svg">
<g clip-path="url(#clip0_5093_4810)">
<path d="M81.338 17.1052C81.338 19.6491 81.316 20.307 81.1406 21.0307C80.8994 22.1272 80.2853 24.0131 76.9081 24.0131C74.0353 24.0131 72.8511 22.3026 72.566 20.5701C72.4783 20.0438 72.3687 19.2324 72.3687 14.5394C72.3687 9.5833 72.4564 8.99119 72.588 8.15786C72.7415 7.32452 73.2239 4.60522 77.1055 4.60522C78.6625 4.60522 80.5704 5.26312 81.0529 7.32452C81.2722 8.22365 81.2722 9.34207 81.2502 10.8114H79.0573V9.40786C79.0573 8.13593 79.0353 6.57891 77.1055 6.57891C75.1099 6.57891 74.9344 8.17979 74.8687 8.90347C74.7151 10.2631 74.7151 13.114 74.7151 14.5614C74.7151 15.7017 74.759 19.5175 74.8687 20.2631C74.9564 20.614 75.1976 22.0175 77.0616 22.0175C78.7502 22.0175 78.9915 20.5701 79.0573 20.2412C79.1669 19.7587 79.1669 19.3421 79.1669 17.0833L81.338 17.1052Z" fill="black"/>
<path d="M90.5709 20.9212C90.5709 23.0045 90.6586 23.2896 91.2069 23.7501H88.5972V22.1492C88.3121 22.7413 87.6542 23.9913 85.856 23.9913C85.242 23.9913 84.7156 23.8597 84.2551 23.5966C83.0051 22.851 82.8735 21.579 82.8735 20.5922C82.8735 18.4212 83.7288 17.7413 85.1104 16.7764C87.1279 15.4168 87.3472 15.2852 88.4656 14.2326C88.4656 13.1361 88.4656 11.8861 86.8428 11.8861C85.242 11.8861 85.242 13.0045 85.242 13.8159C85.242 14.2106 85.2639 14.5176 85.2858 14.8027H83.3341C83.3121 14.2326 83.3121 12.8071 83.5314 12.1273C84.1893 10.1755 86.47 10.1755 87.0621 10.1755C88.027 10.1755 88.992 10.329 89.7595 11.1624C90.5928 12.0176 90.5928 12.7413 90.5928 14.5396V20.9212H90.5709ZM88.4656 16.1404C87.8516 16.7326 87.742 16.7983 86.7113 17.5878C85.7463 18.3334 85.0227 18.9036 85.0227 20.4387C85.0227 21.0308 85.0227 22.4124 86.47 22.4124C86.8648 22.4124 87.2595 22.2808 87.6104 22.0176C88.3779 21.4255 88.4656 20.5264 88.4656 19.4519V16.1404Z" fill="black"/>
<path d="M100.592 23.7499H98.4214V15.0657C98.4214 13.1359 98.4214 11.8639 96.8425 11.8639C95.0661 11.8639 95.0661 13.6841 95.0661 15.1534V23.7718H92.939V10.4385H94.9565V11.6666C95.3512 11.1841 96.1846 10.1973 97.8074 10.1973C100.571 10.1973 100.571 12.5438 100.571 14.3859V23.7499H100.592Z" fill="black"/>
<path d="M110.022 20.9212C110.022 23.0045 110.11 23.2896 110.658 23.7501H108.048V22.1492C107.763 22.7413 107.105 23.9913 105.307 23.9913C104.693 23.9913 104.167 23.8597 103.706 23.5966C102.456 22.851 102.325 21.579 102.325 20.5922C102.325 18.4212 103.18 17.7413 104.562 16.7764C106.579 15.4168 106.798 15.2852 107.917 14.2326C107.917 13.1361 107.917 11.8861 106.294 11.8861C104.693 11.8861 104.693 13.0045 104.693 13.8159C104.693 14.2106 104.715 14.5176 104.737 14.8027H102.785C102.763 14.2326 102.763 12.8071 102.983 12.1273C103.641 10.1755 105.921 10.1755 106.513 10.1755C107.478 10.1755 108.443 10.329 109.211 11.1624C110.044 12.0176 110.044 12.7413 110.044 14.5396L110.022 20.9212ZM107.917 16.1404C107.303 16.7326 107.193 16.7983 106.162 17.5878C105.198 18.3334 104.474 18.9036 104.474 20.4387C104.474 21.0308 104.474 22.4124 105.921 22.4124C106.316 22.4124 106.711 22.2808 107.062 22.0176C107.829 21.4255 107.917 20.5264 107.917 19.4519V16.1404Z" fill="black"/>
<path d="M120.044 23.7501H118.049V22.3466C117.763 22.851 117.062 23.9913 115.242 23.9913C114.978 23.9913 114.671 23.9694 114.408 23.8817C112.237 23.3115 112.171 21.0527 112.171 17.1711C112.171 15.9211 112.171 13.4431 112.5 12.3904C112.873 11.1404 113.882 10.1755 115.351 10.1755C116.864 10.1755 117.522 10.965 117.895 11.4913V4.91235H120.066V23.7501H120.044ZM116.075 11.8641C114.474 11.8641 114.43 13.4869 114.364 14.5615C114.321 16.0088 114.321 16.0088 114.321 18.158C114.321 18.7501 114.321 19.4299 114.364 20.2632C114.408 20.8334 114.496 22.3246 116.075 22.3246C117.895 22.3246 117.895 20.5483 117.939 17.1492C117.983 13.9474 117.983 11.8641 116.075 11.8641Z" fill="black"/>
<path d="M124.495 8.07009H122.39V5.32886H124.495V8.07009ZM124.495 23.7499H122.39V10.3946H124.495V23.7499Z" fill="black"/>
<path d="M133.903 20.9212C133.903 23.0045 133.991 23.2896 134.539 23.7501H131.929V22.1492C131.644 22.7413 130.986 23.9913 129.188 23.9913C128.574 23.9913 128.048 23.8597 127.587 23.5966C126.337 22.851 126.206 21.579 126.206 20.5922C126.206 18.4212 127.061 17.7413 128.442 16.7764C130.46 15.4168 130.679 15.2852 131.798 14.2326C131.798 13.1361 131.798 11.8861 130.175 11.8861C128.574 11.8861 128.574 13.0045 128.574 13.8159C128.574 14.2106 128.596 14.5176 128.618 14.8027H126.666C126.644 14.2326 126.644 12.8071 126.863 12.1273C127.521 10.1755 129.802 10.1755 130.394 10.1755C131.359 10.1755 132.324 10.329 133.092 11.1624C133.925 12.0176 133.925 12.7413 133.925 14.5396L133.903 20.9212ZM131.798 16.1404C131.184 16.7326 131.074 16.7983 130.043 17.5878C129.078 18.3334 128.355 18.9036 128.355 20.4387C128.355 21.0308 128.355 22.4124 129.802 22.4124C130.197 22.4124 130.592 22.2808 130.942 22.0176C131.71 21.4255 131.798 20.5264 131.798 19.4519V16.1404Z" fill="black"/>
<path d="M143.925 23.7499H141.754V15.0657C141.754 13.1359 141.754 11.8639 140.175 11.8639C138.399 11.8639 138.399 13.6841 138.399 15.1534V23.7718H136.272V10.4385H138.29V11.6666C138.684 11.1841 139.518 10.1973 141.14 10.1973C143.904 10.1973 143.904 12.5438 143.904 14.3859V23.7499H143.925Z" fill="black"/>
<path d="M152.544 23.7501V4.91235H156.097C157.939 4.91235 159.628 4.91235 160.746 6.31586C161.623 7.41235 161.711 8.3992 161.711 12.9606C161.711 13.9694 161.711 15.1755 161.667 17.7413C161.645 19.5834 161.58 20.9211 160.922 22.0395C159.847 23.7501 158.093 23.7501 156.075 23.7501H152.544ZM154.891 21.6667H156.404C157.895 21.6667 158.97 21.5352 159.233 19.8466C159.365 18.9694 159.387 16.3159 159.387 15.329C159.387 13.5966 159.387 12.9387 159.365 11.1185C159.343 9.05709 159.321 8.04832 158.487 7.45621C157.895 7.06148 157.369 7.06148 154.891 7.06148V21.6667Z" fill="black"/>
<path d="M166.14 8.07009H164.035V5.32886H166.14V8.07009ZM166.14 23.7499H164.035V10.3946H166.14V23.7499Z" fill="black"/>
<path d="M176.184 10.4165V23.048C176.184 24.7586 176.184 25.2849 175.943 26.0305C175.329 27.9165 173.179 28.2235 172.017 28.2235C170.438 28.2235 168.399 27.5217 168.399 24.8024H170.35C170.372 25.3726 170.438 26.5349 172.171 26.5349C174.035 26.5349 174.035 25.0875 174.035 23.9033V22.3463C173.311 23.377 172.346 23.8156 171.337 23.8156C170.372 23.8156 169.144 23.4209 168.64 22.0612C168.267 21.0744 168.267 20.1095 168.267 16.7981C168.267 14.4516 168.289 13.5086 168.508 12.6314C168.618 12.127 169.1 10.1533 171.578 10.1533C173.311 10.1533 173.903 11.0963 174.188 11.6007V10.3945H176.184V10.4165ZM173.991 13.8814C173.947 12.6095 173.399 11.6884 172.171 11.6884C170.416 11.6884 170.416 13.6182 170.416 15.7235C170.416 17.0393 170.416 19.4296 170.504 20.3726C170.548 21.4033 170.986 22.2147 172.127 22.2147C173.136 22.2147 173.771 21.5788 173.969 20.5919C174.079 19.9779 174.079 18.0261 174.079 17.2805C174.079 17.2147 174.013 14.2542 173.991 13.8814Z" fill="black"/>
<path d="M180.614 8.07009H178.508V5.32886H180.614V8.07009ZM180.614 23.7499H178.508V10.3946H180.614V23.7499Z" fill="black"/>
<path d="M187.676 12.0174H185.724V20.5043C185.724 21.3595 185.812 22.2148 186.952 22.2148C187.303 22.2148 187.478 22.1709 187.698 22.1052V23.8376C187.413 23.9253 187.084 23.9911 186.514 23.9911C184.649 23.9911 184.057 23.3552 183.794 22.7411C183.531 22.1271 183.531 21.8639 183.531 19.4078V12.0174H181.93V10.3946H183.575V6.82007H185.702V10.3946H187.654V12.0174H187.676Z" fill="black"/>
<path d="M196.381 20.9212C196.381 23.0045 196.469 23.2896 197.017 23.7501H194.408V22.1492C194.123 22.7413 193.465 23.9913 191.667 23.9913C191.053 23.9913 190.526 23.8597 190.066 23.5966C188.816 22.851 188.684 21.579 188.684 20.5922C188.684 18.4212 189.539 17.7413 190.921 16.7764C192.938 15.4168 193.158 15.2852 194.276 14.2326C194.276 13.1361 194.276 11.8861 192.653 11.8861C191.053 11.8861 191.053 13.0045 191.053 13.8159C191.053 14.2106 191.074 14.5176 191.096 14.8027H189.145C189.123 14.2326 189.123 12.8071 189.342 12.1273C190 10.1755 192.281 10.1755 192.873 10.1755C193.838 10.1755 194.803 10.329 195.57 11.1624C196.403 12.0176 196.403 12.7413 196.403 14.5396L196.381 20.9212ZM194.276 16.1404C193.662 16.7326 193.553 16.7983 192.522 17.5878C191.557 18.3334 190.833 18.9036 190.833 20.4387C190.833 21.0308 190.833 22.4124 192.281 22.4124C192.675 22.4124 193.07 22.2808 193.421 22.0176C194.188 21.4255 194.276 20.5264 194.276 19.4519V16.1404Z" fill="black"/>
<path d="M200.9 23.7501H198.729V4.91235H200.9V23.7501Z" fill="black"/>
<path d="M208.86 17.2368H211.097C211.097 19.2105 211.097 19.4298 211.118 19.7807C211.14 20.2632 211.316 22.0175 213.377 22.0175C214.123 22.0175 215.746 21.7325 215.746 19.6711C215.746 18.1798 215.088 17.4342 214.013 16.3377L211.447 13.7281C209.671 11.886 209.276 10.7456 209.276 9.03509C209.276 8.00439 209.276 4.6272 213.64 4.6272C214.605 4.6272 216.228 4.78071 217.083 6.18421C217.61 7.06141 217.61 7.69737 217.61 10.4825H215.548C215.504 8.70614 215.504 8.50878 215.439 8.1579C215.395 7.80702 215.154 6.64474 213.487 6.64474C211.513 6.64474 211.513 8.35527 211.513 8.88158C211.513 10.2851 212.018 10.8553 213.355 12.2588L215.724 14.7368C217.281 16.3816 217.961 17.3465 217.961 19.5175C217.961 23.5088 214.803 24.0351 213.399 24.0351C211.579 24.0351 210.636 23.4211 210.241 23.0921C209.035 22.1491 208.772 20.7456 208.772 19.3421V17.2368H208.86Z" fill="black"/>
<path d="M227.193 19.6271C227.193 20.5262 227.193 21.206 226.952 21.8859C226.184 23.9911 224.101 23.9911 223.421 23.9911C222.631 23.9911 220.789 23.8815 220 21.9297C219.759 21.2938 219.649 21.0306 219.649 15.6578C219.649 12.8069 219.89 10.1973 223.333 10.1973C224.188 10.1973 226.645 10.1973 227.061 13.1139C227.171 13.7718 227.171 14.1446 227.171 17.5218H221.82C221.82 18.5525 221.798 19.9122 221.842 20.3946C221.886 20.899 221.995 22.2806 223.531 22.2806C225.088 22.2806 225.219 20.9648 225.219 19.6052L227.193 19.6271ZM225.197 15.7674V14.1227C225.175 13.399 225.153 11.8201 223.552 11.8201C222.456 11.8201 222.149 12.5218 221.995 12.9385C221.842 13.4429 221.842 13.8815 221.842 15.7674H225.197Z" fill="black"/>
<path d="M231.514 23.7498H229.321V10.4165H231.382V12.9165C231.865 11.8858 232.698 10.0656 234.979 10.1972V12.4121C234.014 12.4121 232.852 12.4121 232.106 13.5086C231.689 14.1446 231.514 14.8902 231.514 17.3682V23.7498Z" fill="black"/>
<path d="M241.185 23.7501H238.751L235.9 10.4167H238.224L239.979 21.3159L241.931 10.4167H244.233L241.185 23.7501Z" fill="black"/>
<path d="M247.544 8.07009H245.439V5.32886H247.544V8.07009ZM247.544 23.7499H245.439V10.3946H247.544V23.7499Z" fill="black"/>
<path d="M257.237 18.794C257.237 21.2282 257.237 23.9913 253.378 23.9913C251.755 23.9913 250.439 23.3992 250 21.8861C249.737 21.0089 249.671 19.5834 249.671 17.4124C249.671 12.6755 249.803 10.1755 253.597 10.1755C257.259 10.1755 257.259 12.6097 257.259 15.2413H255.242C255.242 12.9387 255.242 11.7983 253.553 11.7983C251.864 11.7983 251.842 12.9387 251.842 16.6887C251.842 17.215 251.842 19.1229 251.864 20.2633C251.886 20.965 251.952 22.3247 253.509 22.3247C255.088 22.3247 255.22 21.0089 255.22 18.794H257.237Z" fill="black"/>
<path d="M266.623 19.6271C266.623 20.5262 266.623 21.206 266.382 21.8859C265.615 23.9911 263.531 23.9911 262.852 23.9911C262.062 23.9911 260.22 23.8815 259.43 21.9297C259.189 21.2938 259.08 21.0306 259.08 15.6578C259.08 12.8069 259.321 10.1973 262.764 10.1973C263.619 10.1973 266.075 10.1973 266.492 13.1139C266.601 13.7718 266.601 14.1446 266.601 17.5218H261.273C261.273 18.5525 261.251 19.9122 261.294 20.3946C261.338 20.899 261.448 22.2806 262.983 22.2806C264.54 22.2806 264.672 20.9648 264.672 19.6052L266.623 19.6271ZM264.628 15.7674V14.1227C264.606 13.399 264.584 11.8201 262.983 11.8201C261.887 11.8201 261.58 12.5218 261.426 12.9385C261.273 13.4429 261.273 13.8815 261.273 15.7674H264.628Z" fill="black"/>
<path d="M72.4564 44.8332H74.6932C74.6932 46.8068 74.6932 47.0261 74.7151 47.377C74.7371 47.8595 74.9125 49.6139 76.9739 49.6139C77.7195 49.6139 79.3423 49.3288 79.3423 47.2674C79.3423 45.7761 78.6844 45.0305 77.6099 43.934L75.0441 41.3244C73.2678 39.4823 72.873 38.3419 72.873 36.6314C72.873 35.6007 72.873 32.2235 77.2371 32.2235C78.202 32.2235 79.8248 32.377 80.6801 33.7805C81.2064 34.6577 81.2064 35.2937 81.2064 38.0788H79.145C79.1011 36.3025 79.1011 36.1051 79.0353 35.7542C78.9915 35.4033 78.7502 34.2411 77.0836 34.2411C75.1099 34.2411 75.1099 35.9516 75.1099 36.4779C75.1099 37.8814 75.6143 38.4516 76.952 39.8551L79.3204 42.3332C80.8774 43.9779 81.5572 44.9428 81.5572 47.1139C81.5572 51.1051 78.4213 51.6314 76.9958 51.6314C75.1757 51.6314 74.2327 51.0174 73.838 50.6884C72.6318 49.7454 72.3687 48.3419 72.3687 46.9384V44.8332H72.4564Z" fill="black"/>
<path d="M90.768 47.2014C90.768 48.1005 90.768 48.7804 90.5268 49.4602C89.7592 51.5655 87.6759 51.5655 86.9961 51.5655C86.2066 51.5655 84.3645 51.4558 83.575 49.5041C83.3338 48.8681 83.2241 48.6049 83.2241 43.2321C83.2241 40.3813 83.4653 37.7716 86.9083 37.7716C87.7636 37.7716 90.2198 37.7716 90.6364 40.6883C90.7461 41.3462 90.7461 41.719 90.7461 45.0962H85.3952C85.3952 46.1269 85.3733 47.4865 85.4171 47.969C85.461 48.4734 85.5706 49.8549 87.1057 49.8549C88.6627 49.8549 88.7943 48.5391 88.7943 47.1795H90.768V47.2014ZM88.7724 43.3637V41.719C88.7505 40.9953 88.7285 39.4163 87.1276 39.4163C86.0311 39.4163 85.7241 40.1181 85.5706 40.5348C85.4171 41.0391 85.4171 41.4777 85.4171 43.3637H88.7724Z" fill="black"/>
<path d="M95.088 51.3244H92.895V37.9911H94.9564V40.4911C95.4389 39.4604 96.2722 37.6402 98.5529 37.7718V39.9867C97.588 39.9867 96.4257 39.9867 95.6801 41.0832C95.2634 41.7191 95.088 42.4648 95.088 44.9428V51.3244Z" fill="black"/>
<path d="M104.781 51.3242H102.346L99.4956 37.9908H101.82L103.575 48.89L105.526 37.9908H107.829L104.781 51.3242Z" fill="black"/>
<path d="M111.119 35.6447H109.014V32.9034H111.119V35.6447ZM111.119 51.3245H109.014V37.9692H111.119V51.3245Z" fill="black"/>
<path d="M120.834 46.3683C120.834 48.8025 120.834 51.5657 116.974 51.5657C115.351 51.5657 114.036 50.9736 113.597 49.4604C113.334 48.5832 113.268 47.1578 113.268 44.9867C113.268 40.2499 113.4 37.7499 117.194 37.7499C120.856 37.7499 120.856 40.1841 120.856 42.8157H118.816C118.816 40.513 118.816 39.3727 117.128 39.3727C115.439 39.3727 115.417 40.513 115.417 44.263C115.417 44.7894 115.417 46.6972 115.439 47.8376C115.461 48.5394 115.527 49.899 117.084 49.899C118.663 49.899 118.794 48.5832 118.794 46.3683H120.834Z" fill="black"/>
<path d="M130.219 47.2014C130.219 48.1005 130.219 48.7804 129.978 49.4602C129.21 51.5655 127.127 51.5655 126.447 51.5655C125.658 51.5655 123.816 51.4558 123.026 49.5041C122.785 48.8681 122.675 48.6049 122.675 43.2321C122.675 40.3813 122.917 37.7716 126.36 37.7716C127.215 37.7716 129.671 37.7716 130.088 40.6883C130.197 41.3462 130.197 41.719 130.197 45.0962H124.846C124.846 46.1269 124.824 47.4865 124.868 47.969C124.912 48.4734 125.022 49.8549 126.557 49.8549C128.114 49.8549 128.245 48.5391 128.245 47.1795H130.219V47.2014ZM128.224 43.3637V41.719C128.202 40.9953 128.18 39.4163 126.579 39.4163C125.482 39.4163 125.175 40.1181 125.022 40.5348C124.868 41.0391 124.868 41.4777 124.868 43.3637H128.224Z" fill="black"/>
<path d="M146.119 51.3242H143.948V42.64C143.948 40.7102 143.948 39.4383 142.369 39.4383C140.593 39.4383 140.593 41.2584 140.593 42.7277V51.3462H138.465V38.0128H140.483V39.2409C140.878 38.7584 141.711 37.7716 143.334 37.7716C146.097 37.7716 146.097 40.1181 146.097 41.9602V51.3242H146.119Z" fill="black"/>
<path d="M156.118 51.3242H154.057V50.0961C153.64 50.6224 152.873 51.5654 151.228 51.5654C150.11 51.5654 149.408 51.061 149.057 50.5347C148.487 49.6794 148.443 48.7145 148.443 46.39V37.9908H150.57V46.7408L150.592 48.0128C150.592 48.5391 150.636 49.9645 152.149 49.9645C153.991 49.9645 153.991 48.1005 153.991 46.7189V37.9908H156.096V51.3242H156.118Z" fill="black"/>
<path d="M171.688 51.3244H169.517V42.5963C169.517 41.4121 169.495 40.9077 169.386 40.513C169.188 39.9209 168.728 39.3946 167.829 39.3946C166.118 39.3946 166.118 41.1709 166.118 42.5744V51.3244H163.991V42.5963C163.991 40.82 163.991 39.3946 162.346 39.3946C160.614 39.3946 160.614 41.0832 160.614 42.6183V51.3025H158.443V37.9691H160.46V39.3069C160.855 38.7805 161.667 37.7279 163.311 37.7279C165.022 37.7279 165.636 38.7586 165.921 39.3069C166.338 38.7367 167.061 37.7279 168.684 37.7279C168.947 37.7279 169.934 37.7279 170.767 38.5612C171.666 39.4604 171.666 40.4472 171.666 42.6183V51.3244H171.688Z" fill="black"/>
<path d="M181.316 47.2015C181.316 48.1007 181.316 48.7805 181.075 49.4603C180.307 51.5656 178.224 51.5656 177.544 51.5656C176.754 51.5656 174.912 51.4559 174.123 49.5042C173.882 48.8682 173.772 48.605 173.772 43.2322C173.772 40.3814 174.013 37.7717 177.456 37.7717C178.311 37.7717 180.768 37.7717 181.184 40.6884C181.294 41.3463 181.294 41.7191 181.294 45.0963H175.943C175.943 46.127 175.921 47.4866 175.965 47.9691C176.009 48.4735 176.118 49.855 177.654 49.855C179.211 49.855 179.342 48.5393 179.342 47.1796H181.316V47.2015ZM179.32 43.3638V41.7191C179.298 40.9954 179.276 39.4164 177.675 39.4164C176.579 39.4164 176.272 40.1182 176.118 40.5349C175.965 41.0393 175.965 41.4779 175.965 43.3638H179.32ZM178.114 36.3243H176.404L177.807 33.4515H180.724L178.114 36.3243Z" fill="black"/>
<path d="M185.636 51.3244H183.443V37.9911H185.504V40.4911C185.987 39.4604 186.82 37.6402 189.101 37.7718V39.9867C188.136 39.9867 186.974 39.9867 186.228 41.0832C185.811 41.7191 185.636 42.4648 185.636 44.9428V51.3244Z" fill="black"/>
<path d="M192.215 35.6447H190.11V32.9034H192.215V35.6447ZM192.215 51.3245H190.11V37.9692H192.215V51.3245Z" fill="black"/>
<path d="M202.216 55.5786H200.11V50.0084C199.847 50.4251 199.145 51.5874 197.435 51.5874C195.834 51.5874 194.825 50.469 194.518 49.0216C194.387 48.276 194.321 45.7979 194.321 44.8988C194.321 43.8023 194.321 41.1927 194.518 40.3155C194.891 38.6927 196.163 37.7716 197.501 37.7716C199.123 37.7716 199.759 38.8023 200.132 39.4602V38.0128H202.194L202.216 55.5786ZM200.044 41.5216C200.023 41.0172 199.891 39.4602 198.202 39.4602C196.755 39.4602 196.689 40.7321 196.623 41.2804C196.58 41.9383 196.58 43.7365 196.58 44.8988C196.58 48.4295 196.58 49.8769 198.224 49.8769C200.154 49.8769 200.154 47.9251 200.154 44.5699C200.154 43.9339 200.088 42.1795 200.044 41.5216Z" fill="black"/>
<path d="M212.237 51.3242H210.176V50.0961C209.759 50.6224 208.992 51.5654 207.347 51.5654C206.229 51.5654 205.527 51.061 205.176 50.5347C204.606 49.6794 204.562 48.7145 204.562 46.39V37.9908H206.689V46.7408L206.711 48.0128C206.711 48.5391 206.755 49.9645 208.268 49.9645C210.11 49.9645 210.11 48.1005 210.11 46.7189V37.9908H212.215V51.3242H212.237Z" fill="black"/>
<path d="M221.886 47.2014C221.886 48.1005 221.886 48.7804 221.645 49.4602C220.877 51.5655 218.794 51.5655 218.114 51.5655C217.325 51.5655 215.483 51.4558 214.693 49.5041C214.452 48.8681 214.342 48.6049 214.342 43.2321C214.342 40.3813 214.584 37.7716 218.026 37.7716C218.882 37.7716 221.338 37.7716 221.755 40.6883C221.864 41.3462 221.864 41.719 221.864 45.0962H216.513C216.513 46.1269 216.491 47.4865 216.535 47.969C216.579 48.4734 216.689 49.8549 218.224 49.8549C219.781 49.8549 219.912 48.5391 219.912 47.1795H221.886V47.2014ZM219.891 43.3637V41.719C219.869 40.9953 219.847 39.4163 218.246 39.4163C217.149 39.4163 216.842 40.1181 216.689 40.5348C216.535 41.0391 216.535 41.4777 216.535 43.3637H219.891Z" fill="black"/>
<path d="M237.478 46.3683C237.478 48.8025 237.478 51.5657 233.619 51.5657C231.996 51.5657 230.68 50.9736 230.242 49.4604C229.978 48.5832 229.913 47.1578 229.913 44.9867C229.913 40.2499 230.044 37.7499 233.838 37.7499C237.5 37.7499 237.5 40.1841 237.5 42.8157H235.483C235.483 40.513 235.483 39.3727 233.794 39.3727C232.106 39.3727 232.084 40.513 232.084 44.263C232.084 44.7894 232.084 46.6972 232.106 47.8376C232.128 48.5394 232.193 49.899 233.75 49.899C235.329 49.899 235.461 48.5832 235.461 46.3683H237.478Z" fill="black"/>
<path d="M246.623 48.4955C246.623 50.5788 246.71 50.8639 247.259 51.3244H244.649V49.7236C244.364 50.3157 243.706 51.5657 241.908 51.5657C241.294 51.5657 240.767 51.4341 240.307 51.1709C239.057 50.4253 238.925 49.1534 238.925 48.1665C238.925 45.9955 239.781 45.3157 241.162 44.3508C243.18 42.9911 243.399 42.8595 244.517 41.8069C244.517 40.7104 244.517 39.4604 242.895 39.4604C241.294 39.4604 241.294 40.5788 241.294 41.3902C241.294 41.785 241.316 42.092 241.338 42.3771H239.386C239.364 41.8069 239.364 40.3815 239.583 39.7016C240.241 37.7499 242.522 37.7499 243.114 37.7499C244.079 37.7499 245.044 37.9034 245.811 38.7367C246.645 39.592 246.645 40.3157 246.645 42.1139L246.623 48.4955ZM244.517 43.7367C243.903 44.3288 243.794 44.3946 242.763 45.1841C241.798 45.9297 241.074 46.4999 241.074 48.035C241.074 48.6271 241.074 50.0086 242.522 50.0086C242.917 50.0086 243.311 49.8771 243.662 49.6139C244.43 49.0218 244.517 48.1227 244.517 47.0481V43.7367Z" fill="black"/>
<path d="M256.644 51.3242H254.473V42.64C254.473 40.7102 254.473 39.4383 252.894 39.4383C251.118 39.4383 251.118 41.2584 251.118 42.7277V51.3462H248.991V38.0128H251.008V39.2409C251.403 38.7584 252.236 37.7716 253.859 37.7716C256.622 37.7716 256.622 40.1181 256.622 41.9602L256.644 51.3242Z" fill="black"/>
<path d="M266.075 48.4955C266.075 50.5788 266.163 50.8639 266.711 51.3244H264.101V49.7236C263.816 50.3157 263.158 51.5657 261.36 51.5657C260.746 51.5657 260.22 51.4341 259.759 51.1709C258.509 50.4253 258.377 49.1534 258.377 48.1665C258.377 45.9955 259.233 45.3157 260.614 44.3508C262.632 42.9911 262.851 42.8595 263.97 41.8069C263.97 40.7104 263.97 39.4604 262.347 39.4604C260.746 39.4604 260.746 40.5788 260.746 41.3902C260.746 41.785 260.768 42.092 260.79 42.3771H258.838C258.816 41.8069 258.816 40.3815 259.035 39.7016C259.693 37.7499 261.974 37.7499 262.566 37.7499C263.531 37.7499 264.496 37.9034 265.263 38.7367C266.097 39.592 266.097 40.3157 266.097 42.1139L266.075 48.4955ZM263.97 43.7367C263.356 44.3288 263.246 44.3946 262.215 45.1841C261.25 45.9297 260.527 46.4999 260.527 48.035C260.527 48.6271 260.527 50.0086 261.974 50.0086C262.369 50.0086 262.763 49.8771 263.114 49.6139C263.882 49.0218 263.97 48.1227 263.97 47.0481V43.7367Z" fill="black"/>
<path d="M276.097 51.3242H274.101V49.9207C273.816 50.4251 273.114 51.5654 271.294 51.5654C271.031 51.5654 270.724 51.5435 270.461 51.4558C268.29 50.8856 268.224 48.6268 268.224 44.7453C268.224 43.4953 268.224 41.0172 268.553 39.9646C268.926 38.7146 269.935 37.7497 271.404 37.7497C272.917 37.7497 273.575 38.5391 273.948 39.0654V32.5084H276.119L276.097 51.3242ZM272.128 39.4382C270.527 39.4382 270.483 41.0611 270.417 42.1356C270.373 43.583 270.373 43.583 270.373 45.7321C270.373 46.3242 270.373 47.004 270.417 47.8374C270.461 48.4075 270.549 49.8988 272.128 49.8988C273.948 49.8988 273.948 48.1225 273.992 44.7233C274.036 41.5216 274.036 39.4382 272.128 39.4382Z" fill="black"/>
<path d="M280.548 35.6447H278.443V32.9034H280.548V35.6447ZM280.548 51.3245H278.443V37.9692H280.548V51.3245Z" fill="black"/>
<path d="M290.198 47.2014C290.198 48.1005 290.198 48.7804 289.956 49.4602C289.189 51.5655 287.106 51.5655 286.426 51.5655C285.636 51.5655 283.794 51.4558 283.005 49.5041C282.763 48.8681 282.654 48.6049 282.654 43.2321C282.654 40.3813 282.895 37.7716 286.338 37.7716C287.193 37.7716 289.649 37.7716 290.066 40.6883C290.176 41.3462 290.176 41.719 290.176 45.0962H284.825C284.825 46.1269 284.803 47.4865 284.847 47.969C284.891 48.4734 285 49.8549 286.535 49.8549C288.092 49.8549 288.224 48.5391 288.224 47.1795H290.198V47.2014ZM288.202 43.3637V41.719C288.18 40.9953 288.158 39.4163 286.557 39.4163C285.461 39.4163 285.154 40.1181 285 40.5348C284.847 41.0391 284.847 41.4777 284.847 43.3637H288.202Z" fill="black"/>
<path d="M300.001 51.3242H297.83V42.64C297.83 40.7102 297.83 39.4383 296.251 39.4383C294.474 39.4383 294.474 41.2584 294.474 42.7277V51.3462H292.347V38.0128H294.365V39.2409C294.759 38.7584 295.593 37.7716 297.216 37.7716C299.979 37.7716 299.979 40.1181 299.979 41.9602L300.001 51.3242Z" fill="black"/>
<path d="M57.2355 0.764404H0.764648V57.2352H57.2355V0.764404Z" fill="black"/>
<path d="M46.7497 16.4713L46.6624 13.9809C46.6624 13.7406 46.859 13.7406 47.2959 13.828L49.3057 14.2212L49.0435 13.5659C48.9561 13.3037 48.9343 13.1508 49.1309 12.976L51.5121 11.0318L51.0752 10.7696C50.9441 10.6822 50.9441 10.573 51.0096 10.3546L51.4465 8.91275L50.2887 9.15305C49.961 9.21859 49.8737 9.15305 49.8081 8.97829L49.4804 8.32292L48.3445 9.61181C48.1479 9.85211 47.8639 9.69919 47.9512 9.34966L48.4974 6.6845L47.6672 7.16511C47.5362 7.25249 47.3833 7.27433 47.3177 7.12141L46.4221 5.33008L45.5264 7.12141C45.439 7.27433 45.3079 7.25249 45.1769 7.16511L44.3467 6.6845L44.8929 9.34966C44.9802 9.69919 44.6962 9.85211 44.4996 9.61181L43.3637 8.32292L43.036 8.97829C42.9486 9.15305 42.8612 9.24044 42.5554 9.15305L41.3976 8.91275L41.8345 10.3546C41.9 10.573 41.9 10.6822 41.7689 10.7696L41.332 11.0318L43.7132 12.976C43.9098 13.1508 43.888 13.3256 43.8006 13.5659L43.5384 14.2212L45.5482 13.828C45.9851 13.7406 46.1817 13.7406 46.1817 13.9809L46.0944 16.4713H46.7497Z" fill="white"/>
<path d="M37.2858 31.0542C37.2858 32.7208 37.2638 33.1594 37.1542 33.6419C37.0007 34.3656 36.584 35.6156 34.3472 35.6156C32.4393 35.6156 31.6717 34.4971 31.4744 33.3349C31.4305 32.984 31.3428 32.4577 31.3428 29.3436C31.3428 26.0542 31.3866 25.6814 31.4744 25.1331C31.584 24.5849 31.891 22.7866 34.4568 22.7866C35.4875 22.7866 36.7594 23.2252 37.0665 24.5849C37.198 25.177 37.198 25.9226 37.198 26.8875H35.7507V25.9445C35.7507 25.0893 35.7287 24.0805 34.4568 24.0805C33.141 24.0805 33.0314 25.1331 32.9656 25.6156C32.8559 26.5147 32.8559 28.4007 32.8559 29.3436C32.8559 30.1112 32.8998 32.6331 32.9656 33.1156C33.0094 33.3349 33.1849 34.2778 34.413 34.2778C35.5314 34.2778 35.6849 33.3349 35.7287 33.0936C35.7945 32.7866 35.7945 32.5015 35.7945 31.0103H37.2858V31.0542Z" fill="white"/>
<path d="M38.5566 35.462V23.0059H40.9031C42.1093 23.0059 43.2277 23.0059 43.9733 23.9488C44.5654 24.6725 44.6093 25.3304 44.6093 28.3348C44.6093 29.0146 44.6093 29.8041 44.5654 31.4927C44.5435 32.6988 44.5216 33.598 44.061 34.3217C43.3593 35.4401 42.197 35.4401 40.8593 35.4401H38.5566V35.462ZM40.1137 34.1024H41.1224C42.1093 34.1024 42.811 34.0146 42.9865 32.8962C43.0742 32.3041 43.0961 30.5717 43.0961 29.9138C43.0961 28.7734 43.0961 28.3348 43.0742 27.1287C43.0523 25.769 43.0303 25.1111 42.4821 24.7164C42.0873 24.4532 41.7365 24.4532 40.0917 24.4532V34.1024H40.1137Z" fill="white"/>
<path d="M45.5967 31.1418H47.0879C47.0879 32.4576 47.0879 32.5892 47.1098 32.8085C47.1318 33.1155 47.2414 34.2997 48.6011 34.2997C49.1054 34.2997 50.18 34.1024 50.18 32.7427C50.18 31.7559 49.7414 31.2515 49.0397 30.5278L47.3511 28.7953C46.1669 27.5892 45.9256 26.8217 45.9256 25.6813C45.9256 25.0015 45.9256 22.7646 48.8204 22.7646C49.4563 22.7646 50.5309 22.8743 51.1011 23.7953C51.4519 24.3875 51.4519 24.8041 51.4519 26.6243H50.0923C50.0484 25.4401 50.0484 25.3085 50.0265 25.0892C49.9826 24.8699 49.8291 24.0804 48.7326 24.0804C47.4388 24.0804 47.4388 25.1989 47.4388 25.5717C47.4388 26.5146 47.7677 26.8875 48.6449 27.8085L50.2239 29.4532C51.2546 30.5497 51.7151 31.1857 51.7151 32.6111C51.7151 35.2646 49.6318 35.5936 48.7107 35.5936C47.5046 35.5936 46.8686 35.1989 46.6274 34.9796C45.8379 34.3655 45.6625 33.4225 45.6625 32.5015V31.1418H45.5967Z" fill="white"/>
<path d="M31.3428 46.9928H32.834C32.834 48.3086 32.834 48.4402 32.8559 48.6595C32.8779 48.9665 32.9875 50.1507 34.3472 50.1507C34.8515 50.1507 35.9261 49.9533 35.9261 48.5937C35.9261 47.6068 35.4875 47.1024 34.7858 46.3788L33.0972 44.6463C31.9129 43.4402 31.6717 42.6726 31.6717 41.5323C31.6717 40.8524 31.6717 38.6156 34.5665 38.6156C35.2024 38.6156 36.277 38.7252 36.8472 39.6463C37.198 40.2384 37.198 40.6551 37.198 42.4752H35.7945C35.7507 41.291 35.7507 41.1595 35.7287 40.9402C35.6849 40.7209 35.5314 39.9314 34.4349 39.9314C33.141 39.9314 33.141 41.0498 33.141 41.4226C33.141 42.3656 33.47 42.7384 34.3472 43.6595L35.9261 45.3042C36.9568 46.4007 37.4173 47.0367 37.4173 48.4621C37.4173 51.1156 35.334 51.4445 34.4129 51.4445C33.2068 51.4445 32.5708 51.0498 32.3296 50.8305C31.5401 50.2165 31.3647 49.2735 31.3647 48.3524V46.9928H31.3428Z" fill="white"/>
<path d="M44.3468 51.291H42.1539L39.7416 40.5015L39.9609 51.291H38.4258V38.8348H40.531L43.053 49.7559L42.8337 38.8348H44.3249V51.291H44.3468Z" fill="white"/>
<path d="M51.5182 46.9049C51.5182 48.5715 51.4962 49.0101 51.3866 49.4926C51.2331 50.2163 50.8164 51.4663 48.5796 51.4663C46.6717 51.4663 45.9041 50.3479 45.7068 49.1856C45.6629 48.8347 45.5752 48.3084 45.5752 45.1943C45.5752 41.9049 45.6191 41.5321 45.7068 40.9838C45.8164 40.4356 46.1234 38.6373 48.6892 38.6373C49.7199 38.6373 50.9919 39.0759 51.2989 40.4356C51.4305 41.0277 51.4305 41.7733 51.4305 42.7382H49.9831V41.7952C49.9831 40.94 49.9612 39.9312 48.6892 39.9312C47.3734 39.9312 47.2638 40.9838 47.198 41.4663C47.0884 42.3654 47.0884 44.2514 47.0884 45.1943C47.0884 45.9619 47.1322 48.4838 47.198 48.9663C47.2419 49.1856 47.4173 50.1286 48.6454 50.1286C49.7638 50.1286 49.9173 49.1856 49.9612 48.9443C50.0269 48.6373 50.0269 48.3522 50.0269 46.861H51.5182V46.9049Z" fill="white"/>
<path d="M58 57.9998H0V-0.000244141H58V57.9998ZM1.52919 56.4487H56.449V1.52895H1.52919V56.4487Z" fill="white"/>
</g>
<defs>
<clipPath id="clip0_5093_4810">
<rect width="300" height="58" fill="white" transform="translate(0 -0.000244141)"/>
</clipPath>
</defs>
</svg>
