<svg width="1368" height="266" viewBox="0 0 1368 266" fill="none" xmlns="http://www.w3.org/2000/svg">
<g clip-path="url(#clip0_6491_2728)">
<path d="M330.4 80.1992H340.7C340.7 89.1992 340.7 90.1992 340.8 91.7992C340.9 93.9992 341.6 102.099 351.2 102.099C354.6 102.099 362.1 100.799 362.1 91.3992C362.1 84.5992 359.1 81.0992 354.2 76.1992L342.5 64.1992C334.4 55.8992 332.7 50.4992 332.7 42.7992C332.7 38.0992 332.7 22.6992 352.6 22.6992C357 22.6992 364.4 23.3992 368.3 29.6992C370.7 33.6992 370.7 36.5992 370.7 49.2992H361.4C361.2 41.1992 361.2 40.2992 360.9 38.6992C360.7 37.0992 359.6 31.7992 352.1 31.7992C343.1 31.7992 343.1 39.4992 343.1 42.0992C343.1 48.4992 345.4 51.0992 351.4 57.5992L362.3 68.9992C369.3 76.4992 372.6 80.9992 372.6 90.7992C372.6 109.099 358.2 111.299 351.8 111.299C343.6 111.299 339.1 108.499 337.4 107.099C332 102.899 330.7 96.3992 330.7 89.8992V80.2992L330.4 80.1992Z" fill="black"/>
<path d="M414 91.0984C414 95.1984 414 98.1984 412.9 101.498C409.4 111.098 399.9 111.098 396.8 111.098C393.2 111.098 384.7 110.598 381.2 101.798C380.1 98.8984 379.6 97.6984 379.6 73.2984C379.6 60.2984 380.7 48.3984 396.4 48.3984C400.3 48.3984 411.5 48.3984 413.4 61.6984C413.9 64.6984 413.9 66.3984 413.9 81.7984H389.5C389.5 86.4984 389.4 92.7984 389.6 94.9984C389.8 97.2984 390.3 103.598 397.2 103.598C404.2 103.598 404.8 97.6984 404.8 91.3984H413.9L414 91.0984ZM404.8 73.5984V65.9984C404.7 62.6984 404.6 55.4984 397.3 55.4984C392.3 55.4984 390.9 58.5984 390.3 60.5984C389.6 62.8984 389.6 64.7984 389.6 73.4984L404.8 73.5984Z" fill="black"/>
<path d="M433.7 109.999H423.7V49.0988H433V60.5988C435.2 55.8988 438.9 47.5988 449.4 48.1988V58.2988C445 58.2988 439.7 58.2988 436.2 63.2988C434.3 66.1988 433.5 69.5988 433.5 80.8988V109.899L433.7 109.999Z" fill="black"/>
<path d="M477.8 109.999H466.7L453.7 49.1992H464.3L472.3 98.9992L481.1 49.1992H491.6L477.8 109.999Z" fill="black"/>
<path d="M506.8 38.3988H497.2V25.7988H506.8V38.3988ZM506.8 109.999H497.2V48.9988H506.8V109.999Z" fill="black"/>
<path d="M551 87.1984C551 98.2984 551 110.898 533.4 110.898C526 110.898 520 108.198 517.9 101.298C516.7 97.2984 516.4 90.7984 516.4 80.8984C516.4 59.2984 517 47.8984 534.3 47.8984C551 47.8984 551 58.9984 551 71.0984H541.8C541.8 60.5984 541.8 55.3984 534.2 55.3984C526.6 55.3984 526.5 60.5984 526.5 77.5984C526.5 79.9984 526.5 88.6984 526.6 93.8984C526.7 96.9984 527 103.198 534.1 103.198C541.2 103.198 541.8 97.2984 541.8 87.0984H551V87.1984Z" fill="black"/>
<path d="M593.8 91.0984C593.8 95.1984 593.8 98.1984 592.7 101.498C589.2 111.098 579.7 111.098 576.6 111.098C573 111.098 564.5 110.598 561 101.798C559.9 98.8984 559.4 97.6984 559.4 73.2984C559.4 60.2984 560.5 48.3984 576.2 48.3984C580.1 48.3984 591.3 48.3984 593.2 61.6984C593.7 64.6984 593.7 66.3984 593.7 81.7984H569.3C569.3 86.4984 569.2 92.7984 569.4 94.9984C569.6 97.2984 570.1 103.598 577 103.598C584 103.598 584.6 97.6984 584.6 91.3984H593.7V91.0984H593.8ZM584.6 73.5984V65.9984C584.5 62.6984 584.4 55.4984 577.1 55.4984C572.1 55.4984 570.7 58.5984 570.1 60.5984C569.4 62.8984 569.4 64.7984 569.4 73.4984L584.6 73.5984Z" fill="black"/>
<path d="M666.3 110H656.5V70.3996C656.5 61.6996 656.5 55.7996 649.4 55.7996C641.3 55.7996 641.3 63.9996 641.3 70.7996V110.1H631.6V49.1996H640.8V54.7996C642.6 52.5996 646.4 48.0996 653.8 48.0996C666.5 48.0996 666.5 58.7996 666.5 67.1996L666.3 110Z" fill="black"/>
<path d="M711.9 110H702.6V104.4C700.7 106.8 697.3 111.1 689.7 111.1C684.6 111.1 681.5 108.8 679.9 106.4C677.4 102.5 677.1 98.2 677.1 87.5V49.1H686.8V89L686.9 94.8C686.9 97.2 687.1 103.6 693.9 103.6C702.2 103.6 702.2 95.1 702.2 88.7V49H711.8V110H711.9Z" fill="black"/>
<path d="M782.9 109.998H773.1V70.1984C773.1 64.8984 773 62.5984 772.5 60.7984C771.7 58.0984 769.5 55.6984 765.5 55.6984C757.8 55.6984 757.8 63.7984 757.8 70.1984V109.998H748V70.1984C748 62.0984 748 55.5984 740.5 55.5984C732.6 55.5984 732.6 63.1984 732.6 70.2984V109.898H722.6V48.9984H731.8V54.9984C733.6 52.5984 737.2 47.8984 744.8 47.8984C752.5 47.8984 755.4 52.5984 756.8 54.9984C758.7 52.4984 762 47.8984 769.5 47.8984C770.7 47.8984 775.2 47.8984 778.9 51.6984C783 55.7984 783 60.2984 783 70.1984L782.9 109.998Z" fill="black"/>
<path d="M826.9 91.0992C826.9 95.1992 826.9 98.1992 825.8 101.499C822.3 111.099 812.8 111.099 809.7 111.099C806.1 111.099 797.6 110.599 794.1 101.799C793 98.8992 792.5 97.6992 792.5 73.2992C792.5 60.2992 793.6 48.3992 809.3 48.3992C813.2 48.3992 824.4 48.3992 826.3 61.6992C826.8 64.6992 826.8 66.3992 826.8 81.7992H802.4C802.4 86.4992 802.3 92.7992 802.5 94.9992C802.7 97.2992 803.2 103.599 810.1 103.599C817.1 103.599 817.7 97.6992 817.7 91.3992H826.8V91.0992H826.9ZM817.7 73.5992V65.9992C817.6 62.6992 817.5 55.4992 810.2 55.4992C805.2 55.4992 803.8 58.5992 803.2 60.5992C802.5 62.8992 802.5 64.7992 802.5 73.4992L817.7 73.5992ZM812.2 41.3992H804.5L810.9 28.1992H824.2L812.2 41.3992Z" fill="black"/>
<path d="M846.6 109.999H836.6V49.0988H845.9V60.5988C848.1 55.8988 851.8 47.5988 862.3 48.1988V58.2988C857.9 58.2988 852.6 58.2988 849.1 63.2988C847.2 66.1988 846.4 69.5988 846.4 80.8988V109.899L846.6 109.999Z" fill="black"/>
<path d="M876.5 38.3988H866.9V25.7988H876.5V38.3988ZM876.5 109.999H866.9V48.9988H876.5V109.999Z" fill="black"/>
<path d="M922.2 129.298H912.6V103.898C911.4 105.798 908.2 110.998 900.4 110.998C893.1 110.998 888.4 105.898 887.1 99.2984C886.5 95.8984 886.3 84.5984 886.3 80.3984C886.3 75.3984 886.3 63.4984 887.1 59.4984C888.8 52.0984 894.6 47.8984 900.8 47.8984C908.2 47.8984 911.2 52.5984 912.9 55.4984V48.9984H922.2V129.298ZM912.2 65.0984C912.1 62.7984 911.5 55.7984 903.9 55.7984C897.4 55.7984 897 61.5984 896.8 63.9984C896.6 66.9984 896.6 75.1984 896.6 80.5984C896.6 96.6984 896.6 103.298 904.1 103.298C912.8 103.298 912.8 94.4984 912.8 79.0984C912.7 76.1984 912.4 68.0984 912.2 65.0984Z" fill="black"/>
<path d="M967.8 110H958.5V104.4C956.6 106.8 953.2 111.1 945.6 111.1C940.5 111.1 937.4 108.8 935.8 106.4C933.3 102.5 933 98.2 933 87.5V49.1H942.7V89L942.8 94.8C942.8 97.2 943 103.6 949.8 103.6C958.1 103.6 958.1 95.1 958.1 88.7V49H967.7V110H967.8Z" fill="black"/>
<path d="M1011.8 91.0984C1011.8 95.1984 1011.8 98.1984 1010.7 101.498C1007.2 111.098 997.7 111.098 994.6 111.098C991 111.098 982.5 110.598 979 101.798C977.9 98.8984 977.4 97.6984 977.4 73.2984C977.4 60.2984 978.5 48.3984 994.2 48.3984C998.1 48.3984 1009.3 48.3984 1011.2 61.6984C1011.7 64.6984 1011.7 66.3984 1011.7 81.7984H987.3C987.3 86.4984 987.2 92.7984 987.4 94.9984C987.6 97.2984 988.1 103.598 995 103.598C1002 103.598 1002.6 97.6984 1002.6 91.3984H1011.7L1011.8 91.0984ZM1002.7 73.5984V65.9984C1002.6 62.6984 1002.5 55.4984 995.2 55.4984C990.2 55.4984 988.8 58.5984 988.2 60.5984C987.5 62.8984 987.5 64.7984 987.5 73.4984L1002.7 73.5984Z" fill="black"/>
<path d="M1083 87.1984C1083 98.2984 1083 110.898 1065.4 110.898C1058 110.898 1052 108.198 1049.9 101.298C1048.7 97.2984 1048.4 90.7984 1048.4 80.8984C1048.4 59.2984 1049 47.8984 1066.3 47.8984C1083 47.8984 1083 58.9984 1083 70.9984H1073.8C1073.8 60.4984 1073.8 55.2984 1066.2 55.2984C1058.6 55.2984 1058.5 60.4984 1058.5 77.4984C1058.5 79.8984 1058.5 88.5984 1058.6 93.7984C1058.7 96.8984 1059 103.098 1066.1 103.098C1073.2 103.098 1073.8 97.1984 1073.8 86.9984H1083V87.1984Z" fill="black"/>
<path d="M1124.7 96.9988C1124.7 106.399 1125.1 107.899 1127.6 109.899H1115.6V102.599C1114.3 105.299 1111.4 110.899 1103 110.899C1100.2 110.899 1097.8 110.299 1095.7 109.099C1090 105.699 1089.4 99.8988 1089.4 95.2988C1089.4 85.4988 1093.3 82.2988 1099.7 77.8988C1108.9 71.6988 1110 71.0988 1115 66.2988C1115 61.2988 1115 55.5988 1107.6 55.5988C1100.3 55.5988 1100.3 60.6988 1100.3 64.2988C1100.3 66.0988 1100.4 67.3988 1100.5 68.7988H1091.7C1091.6 66.2988 1091.6 59.6988 1092.5 56.5988C1095.5 47.7988 1105.9 47.7988 1108.6 47.7988C1113 47.7988 1117.3 48.4988 1120.9 52.2988C1124.7 56.1988 1124.7 59.3988 1124.7 67.7988V96.7988V96.9988ZM1115 75.2988C1112.2 77.9988 1111.7 78.2988 1107 81.7988C1102.6 85.1988 1099.4 87.6988 1099.4 94.7988C1099.4 97.4988 1099.4 103.799 1105.9 103.799C1107.7 103.799 1109.5 103.199 1111.1 101.999C1114.6 99.2988 1115 95.1988 1115 90.2988V75.2988Z" fill="black"/>
<path d="M1170.4 110H1160.6V70.3996C1160.6 61.6996 1160.6 55.7996 1153.5 55.7996C1145.4 55.7996 1145.4 63.9996 1145.4 70.7996V110.1H1135.7V49.1996H1144.9V54.7996C1146.7 52.5996 1150.5 48.0996 1157.9 48.0996C1170.6 48.0996 1170.6 58.7996 1170.6 67.1996V110H1170.4Z" fill="black"/>
<path d="M1213.3 96.9988C1213.3 106.399 1213.7 107.899 1216.2 109.899H1204.2V102.599C1202.9 105.299 1200 110.899 1191.6 110.899C1188.8 110.899 1186.4 110.299 1184.3 109.099C1178.6 105.699 1178 99.8988 1178 95.2988C1178 85.4988 1181.9 82.2988 1188.3 77.8988C1197.5 71.6988 1198.6 71.0988 1203.6 66.2988C1203.6 61.2988 1203.6 55.5988 1196.2 55.5988C1188.9 55.5988 1188.9 60.6988 1188.9 64.2988C1188.9 66.0988 1189 67.3988 1189.1 68.7988H1180.3C1180.2 66.2988 1180.2 59.6988 1181.1 56.5988C1184.1 47.7988 1194.5 47.7988 1197.2 47.7988C1201.6 47.7988 1205.9 48.4988 1209.5 52.2988C1213.3 56.1988 1213.3 59.3988 1213.3 67.7988V96.7988V96.9988ZM1203.7 75.2988C1200.9 77.9988 1200.4 78.2988 1195.7 81.7988C1191.3 85.1988 1188.1 87.6988 1188.1 94.7988C1188.1 97.4988 1188.1 103.799 1194.6 103.799C1196.4 103.799 1198.2 103.199 1199.8 101.999C1203.3 99.2988 1203.7 95.1988 1203.7 90.2988V75.2988Z" fill="black"/>
<path d="M1259.1 110H1250V103.6C1248.7 105.9 1245.5 111.1 1237.2 111.1C1236 111.1 1234.7 111 1233.4 110.6C1223.6 108.1 1223.1 97.7 1223.1 79.9C1223.1 74.2 1223.1 62.9 1224.6 58.1C1226.3 52.4 1230.9 48 1237.6 48C1244.5 48 1247.4 51.6 1249.2 53.9V24H1259L1259.1 110ZM1241 55.7C1233.7 55.7 1233.5 63.1 1233.3 68C1233.1 74.5 1233.1 74.5 1233.1 84.4C1233.1 87.1 1233.1 90.2 1233.3 94C1233.5 96.5 1233.9 103.3 1241 103.3C1249.2 103.3 1249.2 95.2 1249.5 79.7C1249.7 65.1 1249.7 55.7 1241 55.7Z" fill="black"/>
<path d="M1279.4 38.3988H1269.8V25.7988H1279.4V38.3988ZM1279.4 109.999H1269.8V48.9988H1279.4V109.999Z" fill="black"/>
<path d="M1323.4 91.0984C1323.4 95.1984 1323.4 98.1984 1322.3 101.498C1318.8 111.098 1309.3 111.098 1306.2 111.098C1302.6 111.098 1294.1 110.598 1290.6 101.798C1289.5 98.8984 1289 97.6984 1289 73.2984C1289 60.2984 1290.1 48.3984 1305.8 48.3984C1309.7 48.3984 1320.9 48.3984 1322.8 61.6984C1323.3 64.6984 1323.3 66.3984 1323.3 81.7984H1298.9C1298.9 86.4984 1298.8 92.7984 1299 94.9984C1299.2 97.2984 1299.7 103.598 1306.6 103.598C1313.6 103.598 1314.2 97.6984 1314.2 91.3984H1323.3L1323.4 91.0984ZM1314.2 73.5984V65.9984C1314.1 62.6984 1314 55.4984 1306.7 55.4984C1301.7 55.4984 1300.3 58.5984 1299.7 60.5984C1299 62.8984 1299 64.7984 1299 73.4984L1314.2 73.5984Z" fill="black"/>
<path d="M1368 110H1358.2V70.3996C1358.2 61.6996 1358.2 55.7996 1351.1 55.7996C1343 55.7996 1343 63.9996 1343 70.7996V110.1H1333.3V49.1996H1342.5V54.7996C1344.3 52.5996 1348.1 48.0996 1355.5 48.0996C1368.2 48.0996 1368.2 58.7996 1368.2 67.1996V110H1368Z" fill="black"/>
<path d="M373.4 203.2C373.4 214.8 373.3 217.8 372.6 221.1C371.5 226.1 368.7 234.8 353.3 234.8C340.1 234.8 334.8 227.1 333.5 219.1C333.1 216.7 332.7 213.1 332.7 191.7C332.7 169.1 333.1 166.4 333.7 162.7C334.4 158.9 336.6 146.5 354.2 146.5C361.2 146.5 370 149.5 372.2 158.9C373.2 163 373.2 168.1 373 174.9H363V168.5C363 162.7 362.9 155.6 354.2 155.6C345.1 155.6 344.4 162.9 343.9 166.2C343.2 172.4 343.2 185.4 343.2 192C343.2 197.2 343.4 214.6 343.9 218C344.3 219.6 345.4 226 353.9 226C361.5 226 362.6 219.5 363 217.9C363.5 215.7 363.5 213.8 363.5 203.5H373.3L373.4 203.2Z" fill="black"/>
<path d="M415.4 220.598C415.4 229.998 415.8 231.498 418.3 233.498H406.3V226.198C405 228.898 402.1 234.498 393.7 234.498C390.9 234.498 388.5 233.898 386.4 232.698C380.7 229.298 380.1 223.498 380.1 218.898C380.1 209.098 384 205.898 390.4 201.498C399.6 195.298 400.7 194.698 405.7 189.898C405.7 184.898 405.7 179.198 398.3 179.198C391 179.198 391 184.298 391 187.898C391 189.698 391.1 190.998 391.2 192.398H382.4C382.3 189.898 382.3 183.298 383.2 180.198C386.2 171.398 396.6 171.398 399.3 171.398C403.7 171.398 408 172.098 411.6 175.898C415.4 179.798 415.4 182.998 415.4 191.398V220.398V220.598ZM405.8 198.898C403 201.598 402.5 201.898 397.8 205.398C393.4 208.798 390.2 211.298 390.2 218.398C390.2 221.098 390.2 227.398 396.7 227.398C398.5 227.398 400.3 226.798 401.9 225.598C405.4 222.898 405.8 218.798 405.8 213.898V198.898Z" fill="black"/>
<path d="M461.1 233.601H451.3V194.001C451.3 185.301 451.3 179.401 444.2 179.401C436.1 179.401 436.1 187.601 436.1 194.401V233.701H426.4V172.901H435.6V178.501C437.4 176.301 441.2 171.801 448.6 171.801C461.3 171.801 461.3 182.501 461.3 190.901V233.601H461.1Z" fill="black"/>
<path d="M504 220.598C504 229.998 504.4 231.498 506.9 233.498H494.9V226.198C493.6 228.898 490.7 234.498 482.3 234.498C479.5 234.498 477.1 233.898 475 232.698C469.3 229.298 468.7 223.498 468.7 218.898C468.7 209.098 472.6 205.898 479 201.498C488.2 195.298 489.3 194.698 494.3 189.898C494.3 184.898 494.3 179.198 486.9 179.198C479.6 179.198 479.6 184.298 479.6 187.898C479.6 189.698 479.7 190.998 479.8 192.398H471C470.9 189.898 470.9 183.298 471.8 180.198C474.8 171.398 485.2 171.398 487.9 171.398C492.3 171.398 496.6 172.098 500.2 175.898C504 179.798 504 182.998 504 191.398V220.398V220.598ZM494.5 198.898C491.7 201.598 491.2 201.898 486.5 205.398C482.1 208.798 478.9 211.298 478.9 218.398C478.9 221.098 478.9 227.398 485.4 227.398C487.2 227.398 489 226.798 490.6 225.598C494.1 222.898 494.5 218.798 494.5 213.898V198.898Z" fill="black"/>
<path d="M549.8 233.6H540.7V227.2C539.4 229.5 536.2 234.7 527.9 234.7C526.7 234.7 525.4 234.6 524.1 234.2C514.3 231.7 513.8 221.3 513.8 203.5C513.8 197.8 513.8 186.5 515.3 181.7C517 176 521.6 171.6 528.3 171.6C535.2 171.6 538.1 175.2 539.9 177.5V147.5H549.7L549.8 233.6ZM531.7 179.3C524.4 179.3 524.2 186.7 524 191.6C523.8 198.1 523.8 198.1 523.8 208C523.8 210.7 523.8 213.8 524 217.6C524.2 220.1 524.6 226.9 531.7 226.9C539.9 226.9 539.9 218.8 540.2 203.3C540.4 188.8 540.4 179.3 531.7 179.3Z" fill="black"/>
<path d="M570.1 161.998H560.5V149.398H570.1V161.998ZM570.1 233.598H560.5V172.698H570.1V233.598Z" fill="black"/>
<path d="M613 220.598C613 229.998 613.4 231.498 615.9 233.498H603.9V226.198C602.6 228.898 599.7 234.498 591.3 234.498C588.5 234.498 586.1 233.898 584 232.698C578.3 229.298 577.7 223.498 577.7 218.898C577.7 209.098 581.6 205.898 588 201.498C597.2 195.298 598.3 194.698 603.3 189.898C603.3 184.898 603.3 179.198 595.9 179.198C588.6 179.198 588.6 184.298 588.6 187.898C588.6 189.698 588.7 190.998 588.8 192.398H580C579.9 189.898 579.9 183.298 580.8 180.198C583.8 171.398 594.2 171.398 596.9 171.398C601.3 171.398 605.6 172.098 609.2 175.898C613 179.798 613 182.998 613 191.398V220.398V220.598ZM603.4 198.898C600.6 201.598 600.1 201.898 595.4 205.398C591 208.798 587.8 211.298 587.8 218.398C587.8 221.098 587.8 227.398 594.3 227.398C596.1 227.398 597.9 226.798 599.5 225.598C603 222.898 603.4 218.798 603.4 213.898V198.898Z" fill="black"/>
<path d="M658.7 233.601H648.9V194.001C648.9 185.301 648.9 179.401 641.8 179.401C633.7 179.401 633.7 187.601 633.7 194.401V233.701H624V172.901H633.2V178.501C635 176.301 638.8 171.801 646.2 171.801C658.9 171.801 658.9 182.501 658.9 190.901L658.7 233.601Z" fill="black"/>
<path d="M698 233.601V147.801H714.2C722.5 147.801 730.3 147.801 735.4 154.201C739.4 159.201 739.8 163.601 739.8 184.501C739.8 189.101 739.8 194.601 739.6 206.301C739.5 214.601 739.2 220.801 736.2 225.901C731.4 233.601 723.3 233.601 714.1 233.601H698ZM708.8 224.001H715.7C722.5 224.001 727.4 223.401 728.6 215.801C729.2 211.801 729.3 199.701 729.3 195.301C729.3 187.401 729.3 184.301 729.2 176.101C729.1 166.801 729 162.101 725.2 159.401C722.5 157.601 720.1 157.601 708.8 157.601V224.001Z" fill="black"/>
<path d="M760 161.998H750.4V149.398H760V161.998ZM760 233.598H750.4V172.698H760V233.598Z" fill="black"/>
<path d="M805.8 172.801V230.501C805.8 238.201 805.8 240.801 804.7 244.201C801.9 252.801 792 254.201 786.8 254.201C779.7 254.201 770.2 251.101 770.2 238.601H779C779.1 241.101 779.4 246.501 787.2 246.501C795.7 246.501 795.7 240.001 795.7 234.401V227.401C792.4 232.101 788.1 234.101 783.4 234.101C779 234.101 773.4 232.301 771.1 226.101C769.4 221.601 769.4 217.301 769.4 202.201C769.4 191.501 769.5 187.201 770.5 183.201C771 180.901 773.2 171.801 784.5 171.801C792.4 171.801 795.1 176.001 796.5 178.301V172.901H805.6V172.801H805.8ZM795.8 188.601C795.6 182.801 793.1 178.601 787.6 178.601C779.6 178.601 779.6 187.301 779.6 197.001C779.6 202.901 779.6 213.901 780 218.201C780.2 222.901 782.2 226.501 787.4 226.501C792 226.501 794.9 223.601 795.7 219.101C796.2 216.301 796.2 207.401 796.2 204.001C796.2 203.701 795.9 190.301 795.8 188.601Z" fill="black"/>
<path d="M826 161.998H816.4V149.398H826V161.998ZM826 233.598H816.4V172.698H826V233.598Z" fill="black"/>
<path d="M858.2 180.001H849.4V218.701C849.4 222.601 849.8 226.401 855 226.401C856.6 226.401 857.4 226.201 858.4 225.901V233.801C857.1 234.201 855.6 234.501 853.1 234.501C844.6 234.501 841.9 231.601 840.7 228.801C839.5 226.001 839.5 224.801 839.5 213.601V180.001H832.2V172.601H839.7V156.301H849.4V172.601H858.2V180.001Z" fill="black"/>
<path d="M897.9 220.598C897.9 229.998 898.3 231.498 900.8 233.498H888.8V226.198C887.5 228.898 884.6 234.498 876.2 234.498C873.4 234.498 871 233.898 868.9 232.698C863.2 229.298 862.6 223.498 862.6 218.898C862.6 209.098 866.5 205.898 872.9 201.498C882.1 195.298 883.2 194.698 888.2 189.898C888.2 184.898 888.2 179.198 880.8 179.198C873.5 179.198 873.5 184.298 873.5 187.898C873.5 189.698 873.6 190.998 873.7 192.398H864.9C864.8 189.898 864.8 183.298 865.7 180.198C868.7 171.398 879.1 171.398 881.8 171.398C886.2 171.398 890.5 172.098 894.1 175.898C897.9 179.798 897.9 182.998 897.9 191.398V220.398V220.598ZM888.4 198.898C885.6 201.598 885.1 201.898 880.4 205.398C876 208.798 872.8 211.298 872.8 218.398C872.8 221.098 872.8 227.398 879.3 227.398C881.1 227.398 882.9 226.798 884.5 225.598C888 222.898 888.4 218.798 888.4 213.898V198.898Z" fill="black"/>
<path d="M918.5 233.601H908.7V147.801H918.5V233.601Z" fill="black"/>
<path d="M954.8 203.801H965.1C965.1 212.801 965.1 213.801 965.2 215.401C965.3 217.601 966 225.701 975.6 225.701C979 225.701 986.5 224.401 986.5 215.001C986.5 208.201 983.5 204.701 978.6 199.801L966.9 187.801C958.8 179.501 957.1 174.101 957.1 166.401C957.1 161.701 957.1 146.301 977 146.301C981.4 146.301 988.8 147.001 992.7 153.301C995.1 157.301 995.1 160.201 995.1 172.901H985.8C985.6 164.801 985.6 163.901 985.3 162.301C985 160.701 984 155.401 976.5 155.401C967.5 155.401 967.5 163.101 967.5 165.701C967.5 172.101 969.8 174.701 975.8 181.201L986.7 192.601C993.7 200.101 997 204.601 997 214.401C997 232.701 982.6 234.901 976.2 234.901C968 234.901 963.5 232.101 961.8 230.701C956.4 226.501 955.1 220.001 955.1 213.501L954.8 203.801Z" fill="black"/>
<path d="M1038.4 214.7C1038.4 218.8 1038.4 221.8 1037.3 225.1C1033.8 234.7 1024.3 234.7 1021.2 234.7C1017.6 234.7 1009.1 234.2 1005.6 225.4C1004.5 222.5 1004 221.3 1004 196.9C1004 183.9 1005.1 172 1020.8 172C1024.7 172 1035.9 172 1037.8 185.3C1038.3 188.3 1038.3 190 1038.3 205.4H1013.9C1013.9 210.1 1013.8 216.4 1014 218.6C1014.2 220.9 1014.7 227.2 1021.6 227.2C1028.6 227.2 1029.2 221.3 1029.2 215H1038.3L1038.4 214.7ZM1029.3 197.2V189.7C1029.2 186.4 1029.1 179.2 1021.8 179.2C1016.8 179.2 1015.4 182.3 1014.8 184.3C1014.1 186.6 1014.1 188.5 1014.1 197.2H1029.3Z" fill="black"/>
<path d="M1058.1 233.598H1048.1V172.798H1057.4V184.298C1059.6 179.598 1063.3 171.298 1073.8 171.898V181.998C1069.4 181.998 1064.1 181.998 1060.6 186.998C1058.7 189.898 1057.9 193.298 1057.9 204.598L1058.1 233.598Z" fill="black"/>
<path d="M1102.3 233.601H1091.2L1078.2 172.801H1088.8L1096.8 222.601L1105.6 172.801H1116.1L1102.3 233.601Z" fill="black"/>
<path d="M1131.2 161.998H1121.6V149.398H1131.2V161.998ZM1131.2 233.598H1121.6V172.698H1131.2V233.598Z" fill="black"/>
<path d="M1175.4 210.898C1175.4 221.998 1175.4 234.598 1157.8 234.598C1150.4 234.598 1144.4 231.898 1142.3 224.998C1141.1 220.998 1140.8 214.498 1140.8 204.598C1140.8 182.998 1141.4 171.598 1158.7 171.598C1175.4 171.598 1175.4 182.698 1175.4 194.698H1166.2C1166.2 184.198 1166.2 178.998 1158.6 178.998C1151 178.998 1150.9 184.198 1150.9 201.198C1150.9 203.598 1150.9 212.298 1151 217.498C1151.1 220.598 1151.4 226.798 1158.5 226.798C1165.6 226.798 1166.2 220.898 1166.2 210.698L1175.4 210.898Z" fill="black"/>
<path d="M1218.2 214.7C1218.2 218.8 1218.2 221.8 1217.1 225.1C1213.6 234.7 1204.1 234.7 1201 234.7C1197.4 234.7 1188.9 234.2 1185.4 225.4C1184.3 222.5 1183.8 221.3 1183.8 196.9C1183.8 183.9 1184.9 172 1200.6 172C1204.5 172 1215.7 172 1217.6 185.3C1218.1 188.3 1218.1 190 1218.1 205.4H1193.8C1193.8 210.1 1193.7 216.4 1193.9 218.6C1194.1 220.9 1194.6 227.2 1201.5 227.2C1208.5 227.2 1209.1 221.3 1209.1 215H1218.1L1218.2 214.7ZM1209.1 197.2V189.7C1209 186.4 1208.9 179.2 1201.6 179.2C1196.6 179.2 1195.2 182.3 1194.6 184.3C1193.9 186.6 1193.9 188.5 1193.9 197.2H1209.1Z" fill="black"/>
<path d="M262 3.5H3.5V262H262V3.5Z" fill="black"/>
<path d="M214.1 75.5008L213.7 64.1008C213.7 63.0008 214.6 63.0008 216.6 63.4008L225.8 65.2008L224.6 62.2008C224.2 61.0008 224.1 60.3008 225 59.5008L236 50.6008L234 49.4008C233.4 49.0008 233.4 48.5008 233.7 47.5008L235.7 40.9008L230.5 42.0008C229 42.3008 228.6 42.0008 228.3 41.2008L226.8 38.2008L221.6 44.0008C220.7 45.1008 219.4 44.4008 219.8 42.8008L222.3 30.5008L218.5 32.7008C217.9 33.1008 217.2 33.2008 216.9 32.5008L212.9 24.3008L208.9 32.5008C208.5 33.2008 207.9 33.1008 207.3 32.7008L203.5 30.5008L206 42.8008C206.4 44.4008 205.1 45.1008 204.2 44.0008L199 38.2008L197.5 41.2008C197.1 42.0008 196.7 42.4008 195.3 42.0008L190.1 40.9008L192.1 47.5008C192.4 48.5008 192.4 49.0008 191.8 49.4008L189.8 50.6008L200.8 59.5008C201.7 60.3008 201.6 61.1008 201.2 62.2008L200 65.2008L209.2 63.4008C211.2 63.0008 212.1 63.0008 212.1 64.1008L211.7 75.5008H214.1Z" fill="white"/>
<path d="M265.4 265.4H0V0H265.5V265.4H265.4ZM7 258.4H258.5V7H7V258.4Z" fill="white"/>
<path d="M171 213.6C171 221.2 170.9 223.2 170.4 225.5C169.7 228.8 167.8 234.5 157.6 234.5C149 234.5 145.3 229.4 144.5 224.1C144.3 222.5 143.9 220.1 143.9 205.9C143.9 190.9 144.1 189.2 144.5 186.7C145 184.2 146.4 176 158.1 176C162.7 176 168.6 178 170 184.2C170.6 186.9 170.6 190.3 170.6 194.8H164V190.6C164 186.8 163.9 182.1 158.2 182.1C152.2 182.1 151.7 186.9 151.5 189.1C151 193.2 151 201.8 151 206.2C151 209.6 151.2 221.2 151.5 223.4C151.7 224.4 152.5 228.7 158.1 228.7C163.1 228.7 163.9 224.4 164.1 223.3C164.4 221.9 164.4 220.6 164.4 213.9H171V213.6Z" fill="white"/>
<path d="M176.7 233.698V176.898H187.4C192.9 176.898 198.1 176.898 201.4 181.098C204 184.398 204.3 187.298 204.3 201.098C204.3 204.098 204.3 207.698 204.1 215.498C204 220.998 203.9 224.998 201.9 228.498C198.7 233.598 193.4 233.598 187.2 233.598H176.7V233.698ZM183.8 227.398H188.4C192.9 227.398 196.1 226.998 196.9 221.998C197.3 219.398 197.4 211.298 197.4 208.398C197.4 203.198 197.4 201.198 197.3 195.698C197.2 189.498 197.1 186.498 194.7 184.598C192.9 183.398 191.3 183.398 183.8 183.398V227.398Z" fill="white"/>
<path d="M208.8 213.998H215.5C215.5 219.898 215.5 220.598 215.6 221.598C215.7 222.998 216.2 228.298 222.4 228.298C224.6 228.298 229.5 227.398 229.5 221.298C229.5 216.798 227.5 214.598 224.3 211.198L216.6 203.398C211.2 197.898 210.1 194.398 210.1 189.198C210.1 186.098 210.1 175.898 223.3 175.898C226.2 175.898 231.1 176.398 233.7 180.498C235.3 183.098 235.3 185.098 235.3 193.498H229C228.8 188.098 228.8 187.598 228.7 186.498C228.5 185.498 227.8 181.898 222.9 181.898C217 181.898 217 186.998 217 188.598C217 192.798 218.5 194.498 222.5 198.898L229.6 206.298C234.2 211.298 236.3 214.098 236.3 220.698C236.3 232.798 226.9 234.298 222.5 234.298C217.1 234.298 214.2 232.498 213.1 231.498C209.5 228.698 208.7 224.498 208.7 220.098L208.8 213.998Z" fill="white"/>
<path d="M144.4 143.6H151.1C151.1 149.5 151.1 150.2 151.2 151.2C151.3 152.6 151.8 157.9 158 157.9C160.2 157.9 165.1 157 165.1 150.9C165.1 146.4 163.1 144.2 159.9 140.8L152.2 133C146.8 127.5 145.7 124 145.7 118.8C145.7 115.7 145.7 105.5 158.9 105.5C161.8 105.5 166.7 106 169.3 110.1C170.9 112.7 170.9 114.7 170.9 123.1H164.7C164.5 117.7 164.5 117.2 164.4 116.1C164.2 115.1 163.5 111.5 158.6 111.5C152.7 111.5 152.7 116.6 152.7 118.2C152.7 122.4 154.2 124.1 158.2 128.5L165.3 135.9C169.9 140.9 172 143.7 172 150.3C172 162.4 162.6 163.9 158.2 163.9C152.8 163.9 149.9 162.1 148.8 161.1C145.2 158.3 144.4 154.1 144.4 149.7V143.6Z" fill="white"/>
<path d="M203.7 163.201H193.7L182.7 114.001L183.7 163.201H176.8V106.301H186.4L197.9 156.101L196.9 106.301H203.7V163.201Z" fill="white"/>
<path d="M236.4 143.2C236.4 150.8 236.3 152.8 235.8 155.1C235.1 158.4 233.2 164.1 223 164.1C214.4 164.1 210.7 159 209.9 153.7C209.7 152.1 209.3 149.7 209.3 135.5C209.3 120.5 209.5 118.8 209.9 116.3C210.4 113.8 211.8 105.6 223.5 105.6C228.1 105.6 234 107.6 235.4 113.8C236 116.5 236 119.9 236 124.4H229.4V120.2C229.4 116.4 229.3 111.7 223.6 111.7C217.6 111.7 217.1 116.5 216.9 118.7C216.4 122.8 216.4 131.4 216.4 135.8C216.4 139.2 216.6 150.8 216.9 153C217.1 154 217.9 158.3 223.5 158.3C228.5 158.3 229.3 154 229.5 152.9C229.8 151.5 229.8 150.2 229.8 143.5H236.4V143.2Z" fill="white"/>
</g>
<defs>
<clipPath id="clip0_6491_2728">
<rect width="1368" height="265.4" fill="white"/>
</clipPath>
</defs>
</svg>
