<svg width="58" height="28" viewBox="0 0 58 28" fill="none" xmlns="http://www.w3.org/2000/svg">
<path d="M13.7517 0H0V27.9998H13.7517V0Z" fill="white"/>
<path d="M58.0002 0H44.2485V27.9998H58.0002V0Z" fill="white"/>
<path d="M27.0922 5.81937L29.0556 1.82153L31.0042 5.67379C31.2468 6.08067 31.4446 6.04707 31.8328 5.85296L33.5089 5.02428L32.4189 10.4033C32.1912 11.4596 32.7922 11.7695 33.4454 11.0528L35.8344 8.49952L36.469 9.94412C36.6818 10.3809 37.0028 10.3174 37.4283 10.239L39.8957 9.72015L39.067 12.837V12.9042C38.97 13.3111 38.7759 13.6508 39.2313 13.8486L40.1085 14.2854L35.002 18.5893C34.4831 19.1231 34.6623 19.2873 34.8564 19.8883L35.3268 21.3329L30.5824 20.4744C29.9963 20.3288 29.5894 20.3288 29.5745 20.7991L29.7686 26.2416H28.3427L28.5368 20.8141C28.5368 20.2803 28.1299 20.2952 27.1706 20.493L22.7696 21.3366L23.337 19.892C23.5311 19.3396 23.5833 18.9663 23.1429 18.593L17.958 14.3488L18.9173 13.7628C19.1936 13.55 19.2085 13.326 19.0629 12.852L18.0887 9.69775L20.5896 10.2315C21.2877 10.3958 21.4818 10.2315 21.661 9.85827L22.359 8.4286L24.8301 11.1909C25.2668 11.7097 25.8865 11.3701 25.6924 10.6235L24.5054 4.79285L26.3419 5.84923C26.633 6.02841 26.9429 6.07693 27.122 5.73725" fill="white"/>
</svg>
