<svg width="417" height="313" viewBox="0 0 417 313" fill="none" xmlns="http://www.w3.org/2000/svg">
<g clip-path="url(#clip0_5672_8153)">
<path d="M236.09 250.5C295.17 229.33 397.14 173.88 400.69 97.0399C404.05 24.3499 354.69 -3.71008 317.13 0.979918C217.75 13.3999 229.73 65.9799 192.45 68.5199C157.81 70.8399 163.45 24.4499 110.58 27.3699C57.71 30.2899 26.33 53.9999 8.81001 103.35C-16.38 174.35 58.81 233.28 117.02 254.68C159.28 270.21 204.26 261.91 236.09 250.5Z" fill="#6584A6"/>
<path opacity="0.9" d="M236.09 250.5C295.17 229.33 397.14 173.88 400.69 97.0399C404.05 24.3499 354.69 -3.71008 317.13 0.979918C217.75 13.3999 229.73 65.9799 192.45 68.5199C157.81 70.8399 163.45 24.4499 110.58 27.3699C57.71 30.2899 26.33 53.9999 8.81001 103.35C-16.38 174.35 58.81 233.28 117.02 254.68C159.28 270.21 204.26 261.91 236.09 250.5Z" fill="#FFCC33"/>
<path d="M201.18 312.71C308.263 312.71 395.07 307.642 395.07 301.39C395.07 295.138 308.263 290.07 201.18 290.07C94.0975 290.07 7.29004 295.138 7.29004 301.39C7.29004 307.642 94.0975 312.71 201.18 312.71Z" fill="#F5F5F5"/>
<path d="M350.34 47.1719L130.53 47.2219L128.87 48.7219L128 76.5819L127.62 80.8619L126.69 91.0019L125.99 99.0919L125.59 103.632H69.4201L67.7501 105.132L60.0001 211.512C59.9335 212.149 60.0029 212.794 60.2038 213.402C60.4046 214.011 60.7323 214.57 61.1652 215.042C61.598 215.515 62.1263 215.89 62.7149 216.144C63.3036 216.397 63.9393 216.522 64.5801 216.512H116L116.41 211.762H116.14L117.14 200.262L117.84 192.162L118.4 185.812L119.11 177.712L119.68 171.232L120.37 163.232L120.65 160.042H177.09L176.09 171.202V171.332L172.56 211.732L172.41 213.432V214.002L172.19 216.482L226.96 218.002L228.62 216.712L230 200.282L230.71 192.182L232.54 171.252L233.24 163.252L233.52 160.062H290L291.54 142.452L292.1 135.992L292.8 127.992L293.51 119.892L294.93 103.622H346.62L349.71 105.122L351.37 103.622L355.69 53.0019C355.747 51.521 355.217 50.0776 354.215 48.9858C353.213 47.8939 351.82 47.242 350.34 47.1719Z" fill="#6584A6"/>
<path d="M285.61 218H337C338.364 217.976 339.671 217.454 340.677 216.533C341.682 215.613 342.317 214.356 342.46 213L346.82 160.45L289.99 160.25L288.28 161.58L285.61 218Z" fill="#6584A6"/>
<path d="M347.85 105.161L352.11 56.4414H128.19L123.93 105.161H70.4202L60.7603 215.551H114.28L119 161.591H175.43L170.71 215.551H227.15L231.87 161.591H288.31L283.59 215.551H338.19L342.91 161.591H288.31L293.25 105.161H347.85Z" fill="#6584A6"/>
<path opacity="0.8" d="M347.85 105.161L352.11 56.4414H128.19L123.93 105.161H70.4202L60.7603 215.551H114.28L119 161.591H175.43L170.71 215.551H227.15L231.87 161.591H288.31L283.59 215.551H338.19L342.91 161.591H288.31L293.25 105.161H347.85Z" fill="white"/>
<path d="M200.26 115.082H86.6802C86.4228 115.086 86.1675 115.036 85.9308 114.935C85.694 114.834 85.4811 114.684 85.3058 114.495C85.1305 114.307 84.9968 114.084 84.9131 113.84C84.8294 113.597 84.7978 113.339 84.8202 113.082L85.1802 109.082C85.2453 108.538 85.5048 108.036 85.911 107.669C86.3171 107.301 86.8425 107.093 87.3902 107.082H201C201.257 107.078 201.512 107.129 201.748 107.23C201.985 107.331 202.197 107.481 202.372 107.669C202.546 107.858 202.679 108.081 202.761 108.325C202.844 108.568 202.874 108.826 202.85 109.082L202.5 113.082C202.434 113.631 202.171 114.137 201.758 114.506C201.346 114.874 200.813 115.079 200.26 115.082Z" fill="#6584A6"/>
<path opacity="0.5" d="M200.26 115.082H86.6802C86.4228 115.086 86.1675 115.036 85.9308 114.935C85.694 114.834 85.4811 114.684 85.3058 114.495C85.1305 114.307 84.9968 114.084 84.9131 113.84C84.8294 113.597 84.7978 113.339 84.8202 113.082L85.1802 109.082C85.2453 108.538 85.5048 108.036 85.911 107.669C86.3171 107.301 86.8425 107.093 87.3902 107.082H201C201.257 107.078 201.512 107.129 201.748 107.23C201.985 107.331 202.197 107.481 202.372 107.669C202.546 107.858 202.679 108.081 202.761 108.325C202.844 108.568 202.874 108.826 202.85 109.082L202.5 113.082C202.434 113.631 202.171 114.137 201.758 114.506C201.346 114.874 200.813 115.079 200.26 115.082Z" fill="white"/>
<path d="M262.61 115.08H207.86C207.602 115.086 207.346 115.037 207.109 114.936C206.871 114.836 206.658 114.686 206.482 114.497C206.307 114.308 206.173 114.084 206.09 113.84C206.007 113.596 205.976 113.337 206 113.08L206.35 109.08C206.415 108.535 206.676 108.031 207.085 107.664C207.493 107.296 208.021 107.089 208.57 107.08H263.32C263.578 107.075 263.834 107.124 264.071 107.225C264.309 107.325 264.523 107.475 264.698 107.664C264.874 107.853 265.007 108.076 265.091 108.321C265.174 108.565 265.204 108.824 265.18 109.08L264.83 113.08C264.765 113.626 264.504 114.129 264.096 114.497C263.687 114.865 263.16 115.072 262.61 115.08Z" fill="#6584A6"/>
<path opacity="0.5" d="M262.61 115.08H207.86C207.602 115.086 207.346 115.037 207.109 114.936C206.871 114.836 206.658 114.686 206.482 114.497C206.307 114.308 206.173 114.084 206.09 113.84C206.007 113.596 205.976 113.337 206 113.08L206.35 109.08C206.415 108.535 206.676 108.031 207.085 107.664C207.493 107.296 208.021 107.089 208.57 107.08H263.32C263.578 107.075 263.834 107.124 264.071 107.225C264.309 107.325 264.523 107.475 264.698 107.664C264.874 107.853 265.007 108.076 265.091 108.321C265.174 108.565 265.204 108.824 265.18 109.08L264.83 113.08C264.765 113.626 264.504 114.129 264.096 114.497C263.687 114.865 263.16 115.072 262.61 115.08Z" fill="white"/>
<path d="M199 129.532H85.4202C85.1624 129.537 84.9063 129.488 84.6688 129.387C84.4314 129.287 84.2178 129.137 84.0422 128.948C83.8666 128.759 83.7328 128.536 83.6498 128.291C83.5667 128.047 83.5362 127.788 83.5602 127.532L83.9102 123.532C83.9753 122.988 84.2348 122.486 84.641 122.118C85.0471 121.751 85.5725 121.542 86.1202 121.532H199.7C199.958 121.526 200.214 121.576 200.452 121.676C200.689 121.777 200.903 121.926 201.078 122.115C201.254 122.304 201.388 122.528 201.471 122.772C201.554 123.016 201.584 123.275 201.56 123.532L201.21 127.532C201.145 128.076 200.886 128.578 200.479 128.945C200.073 129.313 199.548 129.521 199 129.532Z" fill="#6584A6"/>
<path opacity="0.5" d="M199 129.532H85.4202C85.1624 129.537 84.9063 129.488 84.6688 129.387C84.4314 129.287 84.2178 129.137 84.0422 128.948C83.8666 128.759 83.7328 128.536 83.6498 128.291C83.5667 128.047 83.5362 127.788 83.5602 127.532L83.9102 123.532C83.9753 122.988 84.2348 122.486 84.641 122.118C85.0471 121.751 85.5725 121.542 86.1202 121.532H199.7C199.958 121.526 200.214 121.576 200.452 121.676C200.689 121.777 200.903 121.926 201.078 122.115C201.254 122.304 201.388 122.528 201.471 122.772C201.554 123.016 201.584 123.275 201.56 123.532L201.21 127.532C201.145 128.076 200.886 128.578 200.479 128.945C200.073 129.313 199.548 129.521 199 129.532Z" fill="white"/>
<path d="M173.39 158.43H82.8904C82.6326 158.435 82.3765 158.386 82.1391 158.286C81.9016 158.185 81.688 158.036 81.5124 157.847C81.3368 157.658 81.2031 157.434 81.12 157.19C81.0369 156.946 81.0064 156.687 81.0304 156.43L81.3804 152.43C81.4457 151.884 81.7067 151.381 82.1149 151.013C82.5232 150.646 83.051 150.438 83.6004 150.43H174.09C174.348 150.425 174.604 150.474 174.842 150.574C175.079 150.675 175.293 150.825 175.468 151.013C175.644 151.202 175.778 151.426 175.861 151.67C175.944 151.914 175.974 152.173 175.95 152.43L175.6 156.43C175.535 156.974 175.276 157.476 174.87 157.844C174.463 158.211 173.938 158.419 173.39 158.43Z" fill="#6584A6"/>
<path d="M130.33 92.5312H125L124.29 100.621H129.58C130.128 100.611 130.653 100.402 131.06 100.035C131.466 99.6672 131.725 99.1652 131.79 98.6212L132.14 94.6212C132.178 94.3617 132.159 94.0973 132.085 93.8457C132.011 93.5942 131.884 93.3614 131.712 93.1632C131.541 92.9651 131.328 92.8061 131.09 92.697C130.852 92.588 130.592 92.5315 130.33 92.5312Z" fill="#6584A6"/>
<path d="M190.84 78.0805H126.3L125.59 86.1705H190.13C190.678 86.1599 191.203 85.9516 191.609 85.584C192.015 85.2164 192.275 84.7144 192.34 84.1705L192.69 80.1705C192.728 79.9076 192.708 79.6397 192.632 79.3852C192.556 79.1308 192.425 78.896 192.249 78.6971C192.073 78.4983 191.856 78.3401 191.612 78.2336C191.369 78.1271 191.106 78.0749 190.84 78.0805Z" fill="#6584A6"/>
<path opacity="0.5" d="M190.84 78.0805H126.3L125.59 86.1705H190.13C190.678 86.1599 191.203 85.9516 191.609 85.584C192.015 85.2164 192.275 84.7144 192.34 84.1705L192.69 80.1705C192.728 79.9076 192.708 79.6397 192.632 79.3852C192.556 79.1308 192.425 78.896 192.249 78.6971C192.073 78.4983 191.856 78.3401 191.612 78.2336C191.369 78.1271 191.106 78.0749 190.84 78.0805Z" fill="white"/>
<path d="M290.56 135.883H84.8604C84.3127 135.893 83.7873 136.102 83.3812 136.469C82.975 136.837 82.7155 137.339 82.6504 137.883L82.3004 141.883C82.2765 142.139 82.3068 142.397 82.3892 142.64C82.4717 142.884 82.6045 143.107 82.7791 143.296C82.9536 143.484 83.1659 143.634 83.4022 143.735C83.6385 143.836 83.8934 143.887 84.1504 143.883H289.85L290.56 135.883Z" fill="#6584A6"/>
<path opacity="0.5" d="M290.56 135.883H84.8604C84.3127 135.893 83.7873 136.102 83.3812 136.469C82.975 136.837 82.7155 137.339 82.6504 137.883L82.3004 141.883C82.2765 142.139 82.3068 142.397 82.3892 142.64C82.4717 142.884 82.6045 143.107 82.7791 143.296C82.9536 143.484 83.1659 143.634 83.4022 143.735C83.6385 143.836 83.8934 143.887 84.1504 143.883H289.85L290.56 135.883Z" fill="white"/>
<path d="M291.82 121.432H207.3C206.753 121.442 206.227 121.651 205.821 122.018C205.415 122.386 205.155 122.888 205.09 123.432L204.74 127.432C204.716 127.688 204.747 127.946 204.829 128.189C204.912 128.433 205.044 128.656 205.219 128.845C205.394 129.033 205.606 129.183 205.842 129.284C206.078 129.385 206.333 129.436 206.59 129.432H291.11L291.82 121.432Z" fill="#6584A6"/>
<path d="M200.79 164.782H175.15L174.45 172.882H200.08C200.628 172.871 201.153 172.663 201.559 172.295C201.966 171.928 202.225 171.426 202.29 170.882L202.64 166.882C202.68 166.618 202.661 166.349 202.585 166.093C202.51 165.838 202.38 165.602 202.203 165.402C202.027 165.202 201.809 165.042 201.565 164.935C201.321 164.828 201.057 164.776 200.79 164.782Z" fill="#6584A6"/>
<path d="M118.72 164.781H82.3301C81.7825 164.792 81.2571 165 80.8509 165.368C80.4447 165.735 80.1852 166.237 80.1201 166.781L79.7701 170.781C79.7462 171.037 79.7765 171.295 79.859 171.539C79.9414 171.782 80.0743 172.005 80.2488 172.194C80.4233 172.383 80.6357 172.533 80.8719 172.634C81.1082 172.735 81.3632 172.785 81.6201 172.781H118L118.72 164.781Z" fill="#6584A6"/>
<g opacity="0.5">
<path d="M200.79 164.782H175.15L174.45 172.882H200.08C200.628 172.871 201.153 172.663 201.559 172.295C201.966 171.928 202.225 171.426 202.29 170.882L202.64 166.882C202.68 166.618 202.661 166.349 202.585 166.093C202.51 165.838 202.38 165.602 202.203 165.402C202.027 165.202 201.809 165.042 201.565 164.935C201.321 164.828 201.057 164.776 200.79 164.782Z" fill="white"/>
<path d="M118.72 164.781H82.3301C81.7825 164.792 81.2571 165 80.8509 165.368C80.4447 165.735 80.1852 166.237 80.1201 166.781L79.7701 170.781C79.7462 171.037 79.7765 171.295 79.859 171.539C79.9414 171.782 80.0743 172.005 80.2488 172.194C80.4233 172.383 80.6357 172.533 80.8719 172.634C81.1082 172.735 81.3632 172.785 81.6201 172.781H118L118.72 164.781Z" fill="white"/>
</g>
<path d="M117.45 179.23H81.0702C80.5212 179.237 79.9935 179.444 79.5865 179.812C79.1794 180.18 78.9211 180.685 78.8602 181.23L78.5002 185.23C78.4777 185.487 78.5094 185.745 78.593 185.989C78.6767 186.232 78.8105 186.455 78.9858 186.644C79.1611 186.832 79.374 186.982 79.6107 187.083C79.8475 187.184 80.1028 187.234 80.3602 187.23H116.74L117.45 179.23Z" fill="#6584A6"/>
<path opacity="0.5" d="M117.45 179.23H81.0702C80.5212 179.237 79.9935 179.444 79.5865 179.812C79.1794 180.18 78.9211 180.685 78.8602 181.23L78.5002 185.23C78.4777 185.487 78.5094 185.745 78.593 185.989C78.6767 186.232 78.8105 186.455 78.9858 186.644C79.1611 186.832 79.374 186.982 79.6107 187.083C79.8475 187.184 80.1028 187.234 80.3602 187.23H116.74L117.45 179.23Z" fill="white"/>
<path d="M116.19 193.682H79.8004C79.2527 193.692 78.7273 193.901 78.3211 194.268C77.915 194.636 77.6554 195.138 77.5904 195.682L77.2404 199.682C77.2164 199.938 77.2467 200.196 77.3292 200.439C77.4117 200.682 77.5445 200.906 77.719 201.095C77.8936 201.283 78.1059 201.433 78.3421 201.534C78.5784 201.635 78.8334 201.686 79.0904 201.682H115.48L116.19 193.682Z" fill="#6584A6"/>
<path d="M180.72 193.68H172.63L171.92 201.78H180C180.549 201.774 181.077 201.567 181.484 201.199C181.891 200.83 182.149 200.326 182.21 199.78L182.57 195.78C182.61 195.516 182.591 195.247 182.516 194.992C182.44 194.736 182.31 194.5 182.134 194.3C181.957 194.1 181.74 193.941 181.496 193.834C181.251 193.727 180.987 193.674 180.72 193.68Z" fill="#6584A6"/>
<g opacity="0.5">
<path d="M116.19 193.68H79.8004C79.2527 193.69 78.7273 193.899 78.3211 194.266C77.915 194.634 77.6554 195.136 77.5904 195.68L77.2404 199.68C77.2164 199.936 77.2467 200.194 77.3292 200.437C77.4117 200.681 77.5445 200.904 77.719 201.093C77.8936 201.281 78.1059 201.431 78.3421 201.532C78.5784 201.633 78.8334 201.684 79.0904 201.68H115.48L116.19 193.68Z" fill="white"/>
<path d="M180.72 193.68H172.63L171.92 201.78H180C180.549 201.774 181.077 201.567 181.484 201.199C181.891 200.83 182.149 200.326 182.21 199.78L182.57 195.78C182.61 195.516 182.591 195.247 182.516 194.992C182.44 194.736 182.31 194.5 182.134 194.3C181.957 194.1 181.74 193.941 181.496 193.834C181.251 193.727 180.987 193.674 180.72 193.68Z" fill="white"/>
</g>
<path d="M354.18 53.741C354.248 53.1033 354.18 52.4584 353.98 51.8491C353.78 51.2398 353.452 50.6801 353.019 50.2072C352.586 49.7342 352.057 49.3589 351.467 49.1061C350.878 48.8533 350.241 48.7289 349.6 48.741H128.87L127.64 62.851H345.31C345.733 62.8486 346.151 62.9354 346.537 63.1058C346.924 63.2762 347.27 63.5263 347.553 63.8397C347.836 64.1531 348.05 64.5227 348.181 64.9245C348.311 65.3263 348.355 65.751 348.31 66.171L344.89 105.171H349.64L354.18 53.741Z" fill="#6584A6"/>
<path opacity="0.3" d="M354.18 53.741C354.248 53.1033 354.18 52.4584 353.98 51.8491C353.78 51.2398 353.452 50.6801 353.019 50.2072C352.586 49.7342 352.057 49.3589 351.467 49.1061C350.878 48.8533 350.241 48.7289 349.6 48.741H128.87L127.64 62.851H345.31C345.733 62.8486 346.151 62.9354 346.537 63.1058C346.924 63.2762 347.27 63.5263 347.553 63.8397C347.836 64.1531 348.05 64.5227 348.181 64.9245C348.311 65.3263 348.355 65.751 348.31 66.171L344.89 105.171H349.64L354.18 53.741Z" fill="white"/>
<path d="M340 161.592L335.77 210.002C335.677 210.902 335.258 211.737 334.59 212.349C333.923 212.961 333.055 213.307 332.15 213.322H283.79L283.37 218.072H334.79C336.153 218.048 337.461 217.526 338.466 216.605C339.472 215.684 340.106 214.428 340.25 213.072L344.75 161.652L340 161.592Z" fill="#6584A6"/>
<path opacity="0.3" d="M340 161.592L335.77 210.002C335.677 210.902 335.258 211.737 334.59 212.349C333.923 212.961 333.055 213.307 332.15 213.322H283.79L283.37 218.072H334.79C336.153 218.048 337.461 217.526 338.466 216.605C339.472 215.684 340.106 214.428 340.25 213.072L344.75 161.652L340 161.592Z" fill="white"/>
<path d="M72.5202 105.16L63.3502 210C63.3051 210.42 63.3493 210.845 63.4797 211.247C63.6102 211.648 63.824 212.018 64.1072 212.332C64.3904 212.645 64.7366 212.895 65.1231 213.065C65.5096 213.236 65.9278 213.323 66.3502 213.32H114.71L114.29 218.07H62.9202C62.2786 218.082 61.6418 217.958 61.0519 217.705C60.462 217.452 59.9325 217.077 59.4986 216.604C59.0646 216.132 58.736 215.572 58.5346 214.963C58.3332 214.354 58.2635 213.708 58.3302 213.07L67.7502 105.22L72.5202 105.16Z" fill="#6584A6"/>
<path opacity="0.3" d="M72.5202 105.16L63.3502 210C63.3051 210.42 63.3493 210.845 63.4797 211.247C63.6102 211.648 63.824 212.018 64.1072 212.332C64.3904 212.645 64.7366 212.895 65.1231 213.065C65.5096 213.236 65.9278 213.323 66.3502 213.32H114.71L114.29 218.07H62.9202C62.2786 218.082 61.6418 217.958 61.0519 217.705C60.462 217.452 59.9325 217.077 59.4986 216.604C59.0646 216.132 58.736 215.572 58.5346 214.963C58.3332 214.354 58.2635 213.708 58.3302 213.07L67.7502 105.22L72.5202 105.16Z" fill="white"/>
<path d="M227.35 213.281H170.91L170.5 218.031H226.93L227.35 213.281Z" fill="#6584A6"/>
<path opacity="0.3" d="M227.35 213.281H170.91L170.5 218.031H226.93L227.35 213.281Z" fill="white"/>
<path d="M229.06 193.682H188.32C187.773 193.692 187.247 193.901 186.841 194.268C186.435 194.636 186.175 195.138 186.11 195.682L185.76 199.682C185.736 199.938 185.767 200.196 185.849 200.439C185.932 200.682 186.065 200.906 186.239 201.095C186.414 201.283 186.626 201.433 186.862 201.534C187.098 201.635 187.353 201.686 187.61 201.682H228.36L229.06 193.682Z" fill="#6584A6"/>
<path d="M289.24 193.68H285.5L284.79 201.78H288.53C289.078 201.77 289.603 201.561 290.009 201.194C290.415 200.826 290.675 200.324 290.74 199.78L291.09 195.78C291.129 195.516 291.111 195.247 291.035 194.992C290.96 194.736 290.829 194.5 290.653 194.3C290.477 194.1 290.259 193.941 290.015 193.834C289.771 193.727 289.507 193.674 289.24 193.68Z" fill="#6584A6"/>
<path d="M231.59 164.781H208.38C207.833 164.792 207.307 165 206.901 165.368C206.495 165.735 206.235 166.237 206.17 166.781L205.82 170.781C205.796 171.038 205.827 171.297 205.91 171.541C205.993 171.785 206.127 172.009 206.302 172.198C206.478 172.387 206.692 172.536 206.929 172.637C207.167 172.737 207.423 172.787 207.68 172.781H230.88L231.59 164.781Z" fill="#6584A6"/>
<path d="M358.7 70.8611C358.635 70.8561 358.571 70.838 358.513 70.808C358.455 70.7779 358.403 70.7365 358.361 70.6862C358.319 70.6358 358.288 70.5776 358.269 70.5149C358.25 70.4521 358.244 70.3862 358.25 70.3211L360.08 49.3211C360.16 48.6007 360.085 47.8717 359.861 47.1825C359.637 46.4934 359.268 45.8599 358.78 45.3243C358.292 44.7887 357.695 44.3634 357.03 44.0766C356.364 43.7898 355.645 43.6481 354.92 43.6611H337.92C337.788 43.6611 337.661 43.6084 337.567 43.5146C337.473 43.4208 337.42 43.2937 337.42 43.1611C337.423 43.0293 337.476 42.9036 337.57 42.8103C337.663 42.7171 337.789 42.6636 337.92 42.6611H354.92C355.784 42.6462 356.64 42.8151 357.434 43.1566C358.227 43.498 358.938 44.0042 359.521 44.6416C360.103 45.279 360.544 46.033 360.812 46.8536C361.081 47.6741 361.173 48.5425 361.08 49.401L359.24 70.4011C359.235 70.4668 359.217 70.5309 359.187 70.5896C359.158 70.6484 359.116 70.7006 359.066 70.7434C359.016 70.7861 358.958 70.8186 358.895 70.8387C358.832 70.8589 358.766 70.8665 358.7 70.8611Z" fill="#6584A6"/>
<path d="M334.09 43.6816H329.8C329.668 43.6816 329.541 43.629 329.447 43.5352C329.353 43.4414 329.3 43.3142 329.3 43.1816C329.303 43.0498 329.356 42.9242 329.45 42.8309C329.543 42.7377 329.668 42.6842 329.8 42.6816H334.09C334.223 42.6816 334.35 42.7343 334.444 42.8281C334.538 42.9219 334.59 43.049 334.59 43.1816C334.59 43.2473 334.577 43.3123 334.552 43.373C334.527 43.4336 334.49 43.4888 334.444 43.5352C334.397 43.5816 334.342 43.6185 334.282 43.6436C334.221 43.6687 334.156 43.6816 334.09 43.6816Z" fill="#6584A6"/>
<path d="M227.87 227.301H221.45C221.318 227.298 221.193 227.245 221.099 227.152C221.006 227.058 220.953 226.933 220.95 226.801C220.95 226.668 221.003 226.541 221.097 226.447C221.19 226.353 221.318 226.301 221.45 226.301H227.87C228.003 226.301 228.13 226.353 228.224 226.447C228.317 226.541 228.37 226.668 228.37 226.801C228.368 226.933 228.314 227.058 228.221 227.152C228.128 227.245 228.002 227.298 227.87 227.301Z" fill="#6584A6"/>
<path d="M216.15 227.301H170C169.868 227.298 169.742 227.245 169.649 227.152C169.556 227.058 169.503 226.933 169.5 226.801C169.5 226.668 169.553 226.541 169.646 226.447C169.74 226.353 169.867 226.301 170 226.301H216.13C216.263 226.301 216.39 226.353 216.484 226.447C216.577 226.541 216.63 226.668 216.63 226.801C216.63 226.93 216.58 227.054 216.491 227.147C216.401 227.241 216.279 227.296 216.15 227.301Z" fill="#6584A6"/>
<path d="M187.92 58.0623C187.531 57.8405 187.215 57.5105 187.01 57.1123C186.808 56.6893 186.725 56.219 186.77 55.7523C186.806 55.2643 186.972 54.7948 187.25 54.3923C187.522 53.9909 187.89 53.6643 188.32 53.4423C188.768 53.2117 189.266 53.0949 189.77 53.1023C190.249 53.0912 190.722 53.2086 191.14 53.4423C191.531 53.6612 191.848 53.992 192.05 54.3923C192.255 54.8144 192.335 55.2863 192.28 55.7523C192.244 56.2387 192.082 56.7074 191.81 57.1123C191.539 57.5136 191.171 57.8403 190.74 58.0623C190.295 58.2917 189.801 58.4084 189.3 58.4023C188.818 58.4132 188.342 58.2959 187.92 58.0623ZM190.41 57.4823C190.729 57.312 190.999 57.0643 191.197 56.7619C191.394 56.4596 191.512 56.1123 191.54 55.7523C191.58 55.4096 191.521 55.0626 191.37 54.7523C191.225 54.4559 190.995 54.2089 190.71 54.0423C190.409 53.8619 190.062 53.7717 189.71 53.7823C189.34 53.7768 188.975 53.8663 188.65 54.0423C188.334 54.2122 188.063 54.4557 187.86 54.7523C187.66 55.0504 187.54 55.3946 187.51 55.7523C187.479 56.0957 187.542 56.4412 187.69 56.7523C187.833 57.0508 188.063 57.2985 188.35 57.4623C188.653 57.6406 188.999 57.7307 189.35 57.7223C189.719 57.7367 190.084 57.6539 190.41 57.4823Z" fill="white"/>
<path d="M196.52 54.6313C196.799 54.7951 197.022 55.039 197.16 55.3313C197.302 55.6445 197.36 55.9889 197.33 56.3313C197.299 56.7043 197.179 57.0643 196.98 57.3813C196.788 57.6792 196.523 57.9235 196.21 58.0913C195.9 58.2499 195.558 58.3354 195.21 58.3413C194.947 58.3453 194.687 58.2871 194.45 58.1713C194.222 58.0724 194.027 57.9091 193.89 57.7013L193.71 59.7013H193L193.47 54.3413H194.15L194.1 54.9613C194.269 54.7467 194.489 54.5781 194.74 54.4713C194.997 54.3527 195.278 54.2946 195.56 54.3013C195.904 54.3237 196.235 54.4376 196.52 54.6313ZM195.85 57.6313C196.064 57.5172 196.244 57.3481 196.37 57.1413C196.503 56.9223 196.585 56.6763 196.61 56.4213C196.632 56.1759 196.595 55.9288 196.5 55.7013C196.408 55.4996 196.258 55.3293 196.07 55.2113C195.753 55.0465 195.386 55.0053 195.041 55.0959C194.695 55.1864 194.396 55.4022 194.2 55.7013C194.067 55.9203 193.985 56.1664 193.96 56.4213C193.933 56.6668 193.971 56.9151 194.07 57.1413C194.155 57.3481 194.306 57.5206 194.5 57.6313C194.698 57.7535 194.928 57.816 195.16 57.8113C195.406 57.8012 195.644 57.7252 195.85 57.5913V57.6313Z" fill="white"/>
<path d="M201.83 56.6224H198.64C198.64 56.7798 198.674 56.9355 198.74 57.0786C198.806 57.2218 198.901 57.3493 199.02 57.4524C199.283 57.6711 199.618 57.7851 199.96 57.7724C200.179 57.7774 200.397 57.7374 200.6 57.6549C200.803 57.5723 200.987 57.4489 201.14 57.2924L201.49 57.7524C201.294 57.9636 201.051 58.1247 200.78 58.2224C200.497 58.3362 200.195 58.394 199.89 58.3924C199.511 58.4003 199.135 58.3108 198.8 58.1324C198.507 57.9698 198.27 57.7223 198.12 57.4224C197.978 57.1092 197.92 56.7648 197.95 56.4224C197.984 56.0671 198.1 55.7247 198.29 55.4224C198.482 55.1214 198.747 54.8737 199.06 54.7024C199.368 54.5396 199.711 54.4538 200.06 54.4524C200.41 54.4398 200.757 54.5265 201.06 54.7024C201.337 54.8721 201.553 55.1237 201.68 55.4224C201.822 55.7531 201.877 56.1145 201.84 56.4724C201.85 56.4624 201.84 56.5324 201.83 56.6224ZM199.16 55.2924C198.909 55.5014 198.74 55.7914 198.68 56.1124H201.2C201.202 55.9607 201.174 55.8101 201.117 55.6694C201.06 55.5287 200.976 55.4005 200.87 55.2924C200.754 55.1854 200.616 55.1042 200.466 55.0542C200.316 55.0043 200.157 54.9866 200 55.0024C199.695 54.999 199.398 55.1015 199.16 55.2924Z" fill="white"/>
<path d="M206.27 54.8119C206.413 54.9876 206.516 55.1919 206.573 55.411C206.63 55.6301 206.639 55.8589 206.6 56.0819L206.4 58.3419H205.69L205.88 56.1619C205.909 56.0142 205.906 55.8619 205.872 55.7154C205.837 55.5688 205.772 55.4313 205.68 55.3119C205.584 55.2085 205.466 55.1286 205.334 55.0784C205.202 55.0281 205.061 55.0088 204.92 55.0219C204.576 55.008 204.24 55.1261 203.98 55.3519C203.719 55.6201 203.569 55.9774 203.56 56.3519L203.39 58.3519H202.68L203.02 54.4319H203.7V55.0219C203.866 54.8172 204.078 54.6559 204.32 54.5519C204.59 54.4415 204.879 54.3871 205.17 54.3919C205.372 54.3835 205.574 54.4164 205.763 54.4886C205.953 54.5609 206.125 54.6708 206.27 54.8119Z" fill="white"/>
<path d="M210.21 58.2213C209.908 58.1279 209.631 57.9672 209.4 57.7513L209.72 57.1713C209.928 57.3652 210.173 57.5148 210.44 57.6113C210.741 57.7202 211.06 57.7744 211.38 57.7713C211.728 57.7987 212.076 57.7221 212.38 57.5513C212.485 57.4925 212.573 57.4088 212.638 57.3076C212.702 57.2064 212.741 57.0909 212.75 56.9713C212.762 56.8945 212.756 56.8159 212.734 56.7415C212.711 56.6671 212.673 56.5987 212.62 56.5413C212.504 56.4264 212.364 56.3378 212.21 56.2813C212.04 56.2213 211.81 56.1613 211.5 56.0813C211.186 56.0139 210.878 55.9202 210.58 55.8013C210.355 55.7117 210.158 55.5632 210.01 55.3713C209.928 55.2586 209.869 55.1308 209.836 54.9952C209.804 54.8597 209.798 54.719 209.82 54.5813C209.84 54.3097 209.937 54.0495 210.1 53.8313C210.288 53.5973 210.532 53.4149 210.81 53.3013C211.169 53.1559 211.554 53.0878 211.94 53.1013C212.241 53.1012 212.54 53.1415 212.83 53.2213C213.094 53.284 213.342 53.3996 213.56 53.5613L213.27 54.1513C213.062 54.0148 212.837 53.9072 212.6 53.8313C212.366 53.7637 212.124 53.7301 211.88 53.7313C211.531 53.6976 211.18 53.7783 210.88 53.9613C210.776 54.023 210.688 54.1088 210.624 54.2114C210.559 54.314 210.52 54.4306 210.51 54.5513C210.498 54.6289 210.504 54.7083 210.529 54.783C210.553 54.8577 210.595 54.9257 210.65 54.9813C210.769 55.0984 210.912 55.1873 211.07 55.2413C211.297 55.3195 211.527 55.3863 211.76 55.4413C212.073 55.5119 212.381 55.6055 212.68 55.7213C212.905 55.8109 213.102 55.9594 213.25 56.1513C213.334 56.2611 213.394 56.3871 213.427 56.5214C213.46 56.6556 213.464 56.7952 213.44 56.9313C213.419 57.2013 213.318 57.459 213.15 57.6713C212.968 57.9181 212.718 58.1059 212.43 58.2113C212.073 58.3473 211.692 58.4119 211.31 58.4013C210.936 58.4011 210.565 58.3403 210.21 58.2213Z" fill="white"/>
<path d="M215 58.1317C214.712 57.9643 214.482 57.7132 214.34 57.4117C214.191 57.1008 214.133 56.7544 214.17 56.4117C214.2 56.0541 214.32 55.7099 214.52 55.4117C214.713 55.1045 214.986 54.8556 215.31 54.6917C215.644 54.5212 216.015 54.4354 216.39 54.4417C216.74 54.4363 217.084 54.5225 217.39 54.6917C217.683 54.856 217.917 55.1077 218.06 55.4117C218.202 55.7249 218.26 56.0693 218.23 56.4117C218.195 56.7699 218.072 57.1136 217.87 57.4117C217.677 57.7155 217.408 57.9636 217.09 58.1317C216.756 58.3042 216.386 58.3934 216.01 58.3917C215.656 58.3959 215.308 58.3062 215 58.1317ZM216.78 57.5917C216.992 57.475 217.171 57.3064 217.3 57.1017C217.434 56.8841 217.513 56.6369 217.53 56.3817C217.557 56.1362 217.519 55.888 217.42 55.6617C217.331 55.458 217.181 55.2869 216.99 55.1717C216.789 55.0574 216.561 54.9987 216.33 55.0017C216.09 55.0011 215.853 55.0595 215.64 55.1717C215.43 55.2914 215.252 55.4594 215.12 55.6617C214.987 55.8807 214.905 56.1268 214.88 56.3817C214.858 56.6271 214.896 56.8742 214.99 57.1017C215.084 57.3058 215.237 57.4767 215.43 57.5917C215.628 57.714 215.857 57.7765 216.09 57.7717C216.318 57.7668 216.542 57.705 216.74 57.5917H216.78Z" fill="white"/>
<path d="M223 54.4202L222.65 58.3401H222L222.05 57.7502C221.889 57.9544 221.679 58.1158 221.44 58.2202C221.196 58.3329 220.93 58.3909 220.66 58.3902C220.441 58.4038 220.221 58.3718 220.014 58.296C219.808 58.2203 219.619 58.1025 219.46 57.9501C219.314 57.7767 219.207 57.5728 219.148 57.3533C219.089 57.1337 219.08 56.9038 219.12 56.6801L219.32 54.4202H220L219.81 56.5901C219.785 56.7412 219.789 56.8958 219.823 57.0452C219.858 57.1945 219.921 57.3355 220.01 57.4602C220.11 57.5591 220.229 57.636 220.36 57.6859C220.491 57.7359 220.63 57.7578 220.77 57.7502C220.939 57.7567 221.106 57.7301 221.264 57.6718C221.422 57.6134 221.567 57.5245 221.69 57.4102C221.945 57.1383 222.091 56.7825 222.1 56.4102L222.27 54.4102L223 54.4202Z" fill="white"/>
<path d="M225.6 54.5616C225.883 54.4347 226.191 54.3732 226.5 54.3816L226.44 55.0716H226.27C226.1 55.0656 225.93 55.0934 225.77 55.1535C225.611 55.2136 225.464 55.3047 225.34 55.4216C225.077 55.6887 224.927 56.0467 224.92 56.4216L224.75 58.4216H224L224.34 54.5016H225.02L224.97 55.1616C225.109 54.898 225.33 54.6872 225.6 54.5616Z" fill="white"/>
<path d="M227.65 58.1305C227.354 57.9668 227.117 57.7152 226.97 57.4105C226.821 57.0995 226.762 56.7532 226.8 56.4105C226.826 56.0447 226.945 55.6917 227.146 55.3852C227.348 55.0788 227.625 54.8292 227.95 54.6605C228.291 54.4898 228.669 54.4041 229.05 54.4105C229.373 54.4045 229.692 54.4765 229.98 54.6205C230.241 54.7597 230.448 54.9812 230.57 55.2505L230 55.5905C229.897 55.4178 229.753 55.2734 229.58 55.1705C229.394 55.0764 229.188 55.0284 228.98 55.0305C228.736 55.0299 228.496 55.0882 228.28 55.2005C228.065 55.3172 227.883 55.4857 227.75 55.6905C227.617 55.9095 227.535 56.1556 227.51 56.4105C227.485 56.6601 227.527 56.9119 227.63 57.1405C227.717 57.3436 227.868 57.5123 228.06 57.6205C228.266 57.7418 228.501 57.8041 228.74 57.8005C228.958 57.7986 229.173 57.7461 229.367 57.6472C229.561 57.5483 229.73 57.4056 229.86 57.2305L230.37 57.5705C230.195 57.8374 229.954 58.0544 229.67 58.2005C229.358 58.3494 229.016 58.4246 228.67 58.4205C228.311 58.4127 227.96 58.3128 227.65 58.1305Z" fill="white"/>
<path d="M234.85 56.621H231.66C231.661 56.7785 231.695 56.9341 231.76 57.0773C231.826 57.2205 231.921 57.3479 232.04 57.451C232.304 57.6698 232.638 57.7837 232.98 57.771C233.199 57.7761 233.417 57.7361 233.62 57.6535C233.823 57.5709 234.007 57.4476 234.16 57.291L234.51 57.751C234.315 57.9622 234.071 58.1234 233.8 58.221C233.514 58.3357 233.208 58.3934 232.9 58.391C232.524 58.3977 232.152 58.3082 231.82 58.131C231.527 57.9684 231.29 57.7209 231.14 57.421C230.994 57.1093 230.935 56.7636 230.97 56.421C231.004 56.0657 231.121 55.7233 231.31 55.421C231.498 55.1125 231.762 54.858 232.078 54.6827C232.393 54.5073 232.749 54.4171 233.11 54.421C233.46 54.409 233.807 54.4956 234.11 54.671C234.384 54.8437 234.6 55.0944 234.73 55.391C234.872 55.7218 234.927 56.0831 234.89 56.441C234.87 56.461 234.86 56.531 234.85 56.621ZM232.18 55.291C231.93 55.5 231.76 55.7901 231.7 56.111H234.22C234.222 55.9593 234.194 55.8088 234.137 55.668C234.081 55.5273 233.997 55.3992 233.89 55.291C233.78 55.1856 233.65 55.1038 233.507 55.0505C233.365 54.9972 233.212 54.9735 233.06 54.981C232.739 54.9738 232.426 55.084 232.18 55.291Z" fill="white"/>
<path d="M130.23 43.4414H136.64C136.773 43.4414 136.9 43.3887 136.994 43.295C137.088 43.2012 137.14 43.074 137.14 42.9414C137.14 42.8088 137.088 42.6816 136.994 42.5878C136.9 42.4941 136.773 42.4414 136.64 42.4414H130.23C130.098 42.4414 129.97 42.4941 129.877 42.5878C129.783 42.6816 129.73 42.8088 129.73 42.9414C129.73 43.074 129.783 43.2012 129.877 43.295C129.97 43.3887 130.098 43.4414 130.23 43.4414Z" fill="#6584A6"/>
<path d="M141.94 43.4414H188.07C188.203 43.4414 188.33 43.3887 188.424 43.295C188.518 43.2012 188.57 43.074 188.57 42.9414C188.57 42.8088 188.518 42.6816 188.424 42.5878C188.33 42.4941 188.203 42.4414 188.07 42.4414H141.94C141.808 42.4414 141.68 42.4941 141.587 42.5878C141.493 42.6816 141.44 42.8088 141.44 42.9414C141.44 43.074 141.493 43.2012 141.587 43.295C141.68 43.3887 141.808 43.4414 141.94 43.4414Z" fill="#6584A6"/>
<path d="M353.61 96.6777L371.67 303.158H374.52L373.76 294.468H413.57L414.33 303.158H417.18L399.11 96.6777H396.26L397.02 105.358H357.22L356.46 96.6777H353.61ZM357.47 108.208H397.27L399.74 136.408H359.93L357.47 108.208ZM360.18 139.208H400L402.46 167.398H362.66L360.18 139.208ZM362.9 170.208H402.7L405.17 198.398H365.37L362.9 170.208ZM365.62 201.208H405.42L407.89 229.408H368.08L365.62 201.208ZM368.33 232.258H408.14L410.6 260.448H370.8L368.33 232.258ZM413.33 291.488H373.51L371.05 263.298H410.85L413.33 291.488Z" fill="#263238"/>
<path opacity="0.3" d="M353.61 96.6777L371.67 303.158H374.52L373.76 294.468H413.57L414.33 303.158H417.18L399.11 96.6777H396.26L397.02 105.358H357.22L356.46 96.6777H353.61ZM357.47 108.208H397.27L399.74 136.408H359.93L357.47 108.208ZM360.18 139.208H400L402.46 167.398H362.66L360.18 139.208ZM362.9 170.208H402.7L405.17 198.398H365.37L362.9 170.208ZM365.62 201.208H405.42L407.89 229.408H368.08L365.62 201.208ZM368.33 232.258H408.14L410.6 260.448H370.8L368.33 232.258ZM413.33 291.488H373.51L371.05 263.298H410.85L413.33 291.488Z" fill="white"/>
<path d="M378.51 108.219L373.44 112.999L363.71 110.749V108.829C363.709 108.693 363.674 108.56 363.609 108.441C363.543 108.323 363.449 108.222 363.334 108.15C363.22 108.077 363.089 108.034 362.954 108.025C362.818 108.016 362.683 108.042 362.56 108.099C362.56 108.099 362.09 108.429 361.91 108.399C361.1 108.289 359.42 106.279 359.42 106.279C359.307 106.186 359.172 106.124 359.029 106.1C358.885 106.075 358.737 106.089 358.6 106.139L357.91 106.409C357.728 106.476 357.577 106.608 357.485 106.779C357.393 106.95 357.366 107.149 357.41 107.339L358.51 112.209C358.545 112.364 358.626 112.507 358.741 112.617C358.857 112.727 359.003 112.801 359.16 112.829L362.23 113.369C362.23 113.369 371 118.769 374.18 118.029C377.36 117.289 382.1 112.839 382.1 112.839L378.51 108.219Z" fill="#7F3E3B"/>
<path d="M303.71 99.1484L301.5 100.488L298.02 155.738L352.43 157.448L354.41 156.258L359.86 99.6084L303.71 99.1484Z" fill="#6584A6"/>
<path d="M356.06 100.998L301.5 100.488L296.04 156.928L350.6 157.428L356.06 100.998Z" fill="#6584A6"/>
<path opacity="0.8" d="M356.06 100.998L301.5 100.488L296.04 156.928L350.6 157.428L356.06 100.998Z" fill="white"/>
<path d="M329 116.999L300 116.729L299.21 124.829L328.21 125.099C328.761 125.093 329.291 124.887 329.702 124.519C330.112 124.151 330.374 123.646 330.44 123.099L330.83 119.099C330.867 118.837 330.848 118.57 330.773 118.317C330.698 118.063 330.569 117.829 330.396 117.63C330.222 117.43 330.007 117.271 329.767 117.162C329.526 117.053 329.264 116.997 329 116.999Z" fill="#6584A6"/>
<path d="M299.7 131.219H298.53L297.75 139.319H298.91C299.462 139.315 299.993 139.11 300.404 138.741C300.815 138.373 301.077 137.867 301.14 137.319L301.53 133.319C301.569 133.057 301.551 132.79 301.477 132.535C301.402 132.281 301.274 132.046 301.1 131.846C300.926 131.647 300.71 131.487 300.469 131.379C300.227 131.271 299.965 131.216 299.7 131.219Z" fill="#6584A6"/>
<path opacity="0.5" d="M299.7 131.219H298.53L297.75 139.319H298.91C299.462 139.315 299.993 139.11 300.404 138.741C300.815 138.373 301.077 137.867 301.14 137.319L301.53 133.319C301.569 133.057 301.551 132.79 301.477 132.535C301.402 132.281 301.274 132.046 301.1 131.846C300.926 131.647 300.71 131.487 300.469 131.379C300.227 131.271 299.965 131.216 299.7 131.219Z" fill="white"/>
<path d="M347.69 157.399L352.43 157.449L357.89 101.009L353.15 100.969L347.69 157.399Z" fill="#6584A6"/>
<path opacity="0.3" d="M347.69 157.399L352.43 157.449L357.89 101.009L353.15 100.969L347.69 157.399Z" fill="white"/>
<path d="M370.52 86.7188C370.52 86.7188 366.85 87.0088 366.86 89.5488C366.86 91.1588 368.13 88.4987 369.93 87.6787C371.73 86.8587 370.52 86.7188 370.52 86.7188Z" fill="#263238"/>
<path d="M384.6 172.457C384.6 172.457 386.4 178.557 387.22 180.507C391.49 190.787 400.13 205.667 405.59 221.087L409.98 219.387C408.257 211.547 406.056 203.819 403.39 196.247C401.2 189.987 397.39 183.637 395.09 176.777C394.505 174.14 394.088 171.468 393.84 168.777L384.6 172.457Z" fill="#7F3E3B"/>
<path d="M388.37 133.699C388.37 133.699 393.21 138.559 394.06 144.799C394.91 151.039 393.06 161.509 395.96 172.799L384.75 175.869C384.75 175.869 375.67 144.149 374.82 136.479L388.37 133.699Z" fill="#263238"/>
<path opacity="0.4" d="M381.1 162.759L384 152.689L387.5 147.049C388.003 152.707 387.666 158.409 386.5 163.969C385.55 168.179 384.76 171.639 384.21 174.069C383.59 171.789 382.41 167.599 381.1 162.759Z" fill="black"/>
<path d="M374.32 225.568C373.802 225.609 373.286 225.459 372.87 225.148C372.818 225.073 372.791 224.984 372.791 224.893C372.791 224.802 372.818 224.713 372.87 224.638C372.913 224.572 372.969 224.515 373.034 224.47C373.099 224.425 373.173 224.394 373.25 224.378C374.08 224.168 375.79 225.198 375.86 225.248C375.883 225.257 375.902 225.274 375.913 225.296C375.924 225.318 375.927 225.344 375.92 225.368C375.914 225.391 375.902 225.412 375.884 225.428C375.866 225.444 375.844 225.455 375.82 225.458C375.324 225.538 374.822 225.575 374.32 225.568ZM373.56 224.568C373.484 224.557 373.406 224.557 373.33 224.568C373.282 224.572 373.236 224.588 373.196 224.614C373.156 224.64 373.123 224.676 373.1 224.718C373 224.868 373.03 224.938 373.1 224.978C373.32 225.308 374.57 225.348 375.49 225.258C374.896 224.911 374.241 224.68 373.56 224.578V224.568Z" fill="#6584A6"/>
<path d="M375.82 225.458C375.82 225.458 375.82 225.458 375.77 225.458C375.19 225.178 374.02 224.068 374.14 223.518C374.14 223.378 374.26 223.218 374.59 223.198C374.705 223.189 374.821 223.203 374.931 223.239C375.041 223.275 375.143 223.332 375.23 223.408C375.667 223.964 375.922 224.642 375.96 225.348C375.962 225.37 375.958 225.393 375.947 225.412C375.936 225.432 375.92 225.448 375.9 225.458C375.874 225.468 375.846 225.468 375.82 225.458ZM374.66 223.458H374.59C374.38 223.458 374.36 223.548 374.35 223.578C374.35 223.918 375.08 224.778 375.68 225.158C375.639 224.593 375.422 224.054 375.06 223.618C374.952 223.516 374.809 223.459 374.66 223.458Z" fill="#6584A6"/>
<path d="M376.36 224.778L381.78 224.918C381.878 224.921 381.972 224.957 382.047 225.021C382.121 225.084 382.172 225.172 382.19 225.268L383.06 229.688C383.081 229.781 383.082 229.878 383.065 229.972C383.048 230.066 383.012 230.155 382.96 230.235C382.908 230.315 382.841 230.384 382.762 230.438C382.683 230.491 382.594 230.529 382.5 230.548H382.35C380.35 230.468 378.66 230.318 376.23 230.268C373.37 230.198 374.08 230.558 370.71 230.518C368.71 230.518 368.37 228.178 369.23 228.088C373.18 227.688 373.62 226.508 375.18 225.088C375.522 224.842 375.942 224.732 376.36 224.778Z" fill="#263238"/>
<path d="M403.63 222.198C403.161 222.418 402.628 222.461 402.13 222.318C402.056 222.263 402.002 222.186 401.973 222.098C401.944 222.011 401.943 221.916 401.97 221.828C401.985 221.75 402.015 221.676 402.06 221.611C402.105 221.545 402.163 221.49 402.23 221.448C402.94 220.958 404.89 221.328 404.98 221.348C405.003 221.352 405.023 221.363 405.039 221.379C405.055 221.395 405.066 221.416 405.07 221.438C405.075 221.462 405.073 221.487 405.064 221.51C405.055 221.533 405.04 221.553 405.02 221.568C404.575 221.816 404.11 222.027 403.63 222.198ZM402.57 221.538L402.36 221.638C402.279 221.691 402.222 221.774 402.2 221.868C402.2 222.038 402.2 222.098 402.26 222.118C402.59 222.348 403.77 221.948 404.6 221.538C403.93 221.408 403.24 221.408 402.57 221.538Z" fill="#6584A6"/>
<path d="M405 221.57C405 221.57 405 221.57 404.95 221.57C404.3 221.52 402.83 220.89 402.74 220.33C402.74 220.2 402.74 220.01 403.05 219.88C403.157 219.833 403.273 219.809 403.39 219.809C403.507 219.809 403.623 219.833 403.73 219.88C404.5 220.16 405.06 221.39 405.09 221.44C405.1 221.458 405.105 221.479 405.105 221.5C405.105 221.52 405.1 221.541 405.09 221.56C405.077 221.569 405.062 221.575 405.046 221.577C405.031 221.578 405.015 221.576 405 221.57ZM403.19 220.07H403.13C402.94 220.15 402.95 220.24 402.95 220.27C403.03 220.6 404.05 221.14 404.75 221.27C404.51 220.758 404.119 220.332 403.63 220.05C403.488 219.995 403.332 219.995 403.19 220.05V220.07Z" fill="#6584A6"/>
<path d="M405.27 220.739L410.38 218.969C410.475 218.939 410.576 218.94 410.67 218.973C410.764 219.005 410.844 219.067 410.9 219.149L413.26 222.999C413.311 223.079 413.346 223.169 413.362 223.263C413.379 223.358 413.376 223.454 413.354 223.547C413.333 223.64 413.293 223.728 413.238 223.806C413.182 223.883 413.111 223.949 413.03 223.999L412.9 224.059C411.04 224.669 409.37 225.139 407.07 225.939C404.36 226.879 405.16 226.939 401.99 228.109C400.08 228.799 398.99 226.739 399.75 226.349C403.31 224.589 403.31 223.349 404.28 221.499C404.511 221.137 404.861 220.868 405.27 220.739Z" fill="#263238"/>
<path d="M371.6 172.368C371.6 172.368 371.43 178.718 371.6 180.828C372.49 191.928 376.11 208.739 376.54 225.099H381.19C382.08 216.031 382.344 206.913 381.98 197.809C381.75 192.079 380.23 186.039 380.2 179.979C380.454 177.288 380.878 174.616 381.47 171.979L371.6 172.368Z" fill="#7F3E3B"/>
<path d="M383.59 134.859C385.588 138.08 386.85 141.702 387.287 145.467C387.725 149.232 387.326 153.046 386.12 156.639C381.75 169.689 382.85 176.099 382.85 176.099H370.68C370.68 176.099 370.68 159.029 370.16 153.369C369.78 149.369 368.78 145.009 369.1 137.369L383.59 134.859Z" fill="#263238"/>
<path d="M382.98 173.668L383.35 176.568H370.19V173.668H382.98Z" fill="#263238"/>
<path opacity="0.4" d="M382.98 173.668L383.35 176.568H370.19V173.668H382.98Z" fill="white"/>
<path d="M395.96 170.178L383.72 173.818L384.6 176.568L396.78 173.028L395.96 170.178Z" fill="#263238"/>
<path opacity="0.4" d="M395.96 170.178L383.72 173.818L384.6 176.568L396.78 173.028L395.96 170.178Z" fill="white"/>
<path d="M379.4 104.998C379.4 104.998 376.66 104.708 376.71 99.6777C376.71 99.6777 374.18 98.5277 372.54 100.008C370.9 101.488 374.02 105.008 371.98 106.438C372 106.418 373.77 107.618 379.4 104.998Z" fill="#7F3E3B"/>
<path d="M367.42 92.5981C367.42 92.2581 367.19 91.9981 366.97 92.0081C366.75 92.0181 366.6 92.3181 366.62 92.6481C366.64 92.9781 366.84 93.2481 367.06 93.2381C367.28 93.2281 367.44 92.9281 367.42 92.5981Z" fill="#263238"/>
<path d="M367.19 93.209L365.41 95.559C365.691 95.7729 366.02 95.9164 366.368 95.9772C366.716 96.0381 367.073 96.0147 367.41 95.909L367.19 93.209Z" fill="#A02724"/>
<path d="M379.07 92.0694C378.86 96.3294 378.87 98.1394 376.75 100.359C373.49 102.629 368.35 102.509 367.28 98.2694C366.28 94.4494 366.81 88.1294 370.96 86.3594C371.874 85.969 372.872 85.8186 373.861 85.9226C374.849 86.0266 375.794 86.3815 376.607 86.9536C377.419 87.5257 378.072 88.296 378.503 89.1914C378.934 90.0867 379.13 91.0774 379.07 92.0694Z" fill="#7F3E3B"/>
<path d="M368.05 91.5982C368.022 91.6103 367.991 91.6165 367.96 91.6165C367.929 91.6165 367.899 91.6103 367.87 91.5982C367.687 91.4296 367.466 91.3065 367.227 91.2387C366.987 91.171 366.735 91.1605 366.49 91.2082C366.441 91.2209 366.389 91.2146 366.345 91.1905C366.3 91.1663 366.266 91.1262 366.25 91.0782C366.235 91.0278 366.239 90.9732 366.264 90.9264C366.288 90.8796 366.33 90.8442 366.38 90.8282C366.688 90.7632 367.007 90.7719 367.312 90.8536C367.616 90.9353 367.896 91.0876 368.13 91.2982C368.148 91.3158 368.162 91.3369 368.172 91.36C368.182 91.3832 368.187 91.4081 368.187 91.4332C368.187 91.4583 368.182 91.4831 368.172 91.5063C368.162 91.5295 368.148 91.5505 368.13 91.5682C368.107 91.5863 368.079 91.5967 368.05 91.5982Z" fill="#263238"/>
<path d="M367.06 91.9991L366.13 91.8691C366.13 91.8691 366.68 92.5291 367.06 91.9991Z" fill="#263238"/>
<path opacity="0.2" d="M374.75 101.369C374.199 102.264 373.409 102.988 372.47 103.459C372.318 102.919 372.194 102.372 372.1 101.819C373.003 101.826 373.9 101.674 374.75 101.369Z" fill="black"/>
<path d="M381.47 105.668C381.47 105.668 381.47 102.288 377.47 102.918C373.47 103.548 370.56 105.458 370.47 107.428L381.47 105.668Z" fill="#6584A6"/>
<path opacity="0.1" d="M381.47 105.668C381.47 105.668 381.47 102.288 377.47 102.918C373.47 103.548 370.56 105.458 370.47 107.428L381.47 105.668Z" fill="black"/>
<path d="M383.87 105.299C383.87 105.299 389.16 105.459 389.16 109.689C389.202 110.86 388.95 112.023 388.426 113.072C387.901 114.12 387.123 115.02 386.16 115.689L383.87 105.299Z" fill="#6584A6"/>
<path opacity="0.1" d="M383.87 105.299C383.87 105.299 389.16 105.459 389.16 109.689C389.202 110.86 388.95 112.023 388.426 113.072C387.901 114.12 387.123 115.02 386.16 115.689L383.87 105.299Z" fill="black"/>
<path d="M389.93 134.22C388.224 130.624 387.152 126.76 386.76 122.8C386.23 116.56 390.04 105.46 383.27 105.25C376.5 105.04 372.8 105.99 368.78 107.57C364.76 109.15 365.61 120.05 366.24 124.18C366.87 128.31 368.78 138.77 368.78 138.77C368.78 138.77 380.31 140.25 389.93 134.22Z" fill="#6584A6"/>
<path opacity="0.1" d="M365.92 121.48C365.68 119.05 365.647 116.605 365.82 114.17L370.41 113.6C369.359 116.456 367.842 119.119 365.92 121.48Z" fill="black"/>
<path d="M362.12 112.859L357 117.669L347.27 115.429V113.359C347.27 113.24 347.241 113.123 347.185 113.019C347.128 112.915 347.047 112.826 346.947 112.762C346.848 112.697 346.734 112.658 346.615 112.649C346.497 112.64 346.378 112.66 346.27 112.709C345.986 112.787 345.694 112.834 345.4 112.849C344.57 112.739 342.96 110.919 342.96 110.919C342.863 110.835 342.744 110.779 342.617 110.758C342.49 110.736 342.36 110.751 342.24 110.799L340.18 112.719C340.03 112.805 339.911 112.937 339.839 113.095C339.767 113.252 339.747 113.429 339.78 113.599L341.99 116.779C342.068 116.944 342.18 117.091 342.32 117.208C342.46 117.325 342.624 117.411 342.8 117.459L345.8 118.039C345.8 118.039 354.58 123.439 357.75 122.699C360.92 121.959 365.68 117.519 365.68 117.519L362.12 112.859Z" fill="#7F3E3B"/>
<path d="M368.78 107.568C368.78 107.568 365.61 108.488 361.03 112.508C361.03 112.508 361.2 115.678 365.23 119.168C365.23 119.168 369.56 116.458 370.9 112.438C372.24 108.418 368.78 107.568 368.78 107.568Z" fill="#6584A6"/>
<path d="M370.41 85.8887C370.41 85.8887 367.41 87.2687 368.2 89.4287C368.99 91.5887 369.45 93.4287 368.86 94.1387C368.27 94.8487 370.29 95.0187 370.19 92.6287C370.19 92.6287 370.45 95.6287 371.98 95.9987C373.51 96.3687 374.56 100.839 373.28 102.999C372 105.159 371.7 110.099 372.97 111.209C374.24 112.319 376.66 113.419 376.37 115.379C376.08 117.339 379.28 116.019 378.65 113.639C378.65 113.639 380.39 116.329 382.51 113.899C384.63 111.469 381.24 109.249 381.24 109.249C381.24 109.249 383.81 110.039 383.87 111.419C383.93 112.799 384.78 113.479 385.78 111.949C386.187 111.262 386.346 110.457 386.232 109.667C386.117 108.878 385.735 108.151 385.15 107.609C385.15 107.609 386.85 107.329 387.06 108.519C387.27 109.709 389.22 107.719 387.53 106.159C385.84 104.599 382.88 103.799 382.93 97.7787C382.98 91.7587 381.82 86.6187 377.22 85.5587C372.62 84.4987 370.41 85.8887 370.41 85.8887Z" fill="#263238"/>
<path d="M371.49 93.5186C371.168 93.8063 370.907 94.1552 370.722 94.545C370.536 94.9347 370.43 95.3575 370.41 95.7886C370.41 96.9486 371.47 97.2686 372.41 96.7286C373.35 96.1886 374.33 95.0686 373.92 94.0086C373.831 93.7781 373.685 93.5738 373.497 93.4146C373.308 93.2553 373.082 93.1462 372.84 93.0974C372.597 93.0485 372.347 93.0615 372.111 93.1351C371.875 93.2088 371.662 93.3407 371.49 93.5186Z" fill="#7F3E3B"/>
<path d="M299.11 166.42L242.32 166.18L240.65 167.5L240.25 199.56L239.5 207.66L238.43 219.16L238.22 221.44L237.99 223.91L291.84 224.2L294.31 221.7L299.11 166.42Z" fill="#6584A6"/>
<path d="M235.66 221.42L292.07 221.72L297.08 167.76L240.65 167.5L235.66 221.42Z" fill="#6584A6"/>
<path opacity="0.8" d="M235.66 221.42L292.07 221.72L297.08 167.76L240.65 167.5L235.66 221.42Z" fill="white"/>
<path d="M267.21 170.792L240.37 170.652L239.62 178.752L266.46 178.892C267.01 178.884 267.537 178.677 267.946 178.309C268.354 177.941 268.615 177.438 268.68 176.892L269.05 172.892C269.088 172.63 269.068 172.362 268.992 172.108C268.917 171.854 268.787 171.619 268.613 171.42C268.438 171.22 268.222 171.061 267.98 170.953C267.738 170.844 267.475 170.79 267.21 170.792Z" fill="#6584A6"/>
<path d="M236.94 207.651L293.35 207.951L294.1 199.851L237.69 199.551L236.94 207.651Z" fill="#6584A6"/>
<path d="M235.87 219.152L235.43 223.902L291.84 224.202L292.28 219.452L235.87 219.152Z" fill="#6584A6"/>
<path opacity="0.3" d="M235.87 219.152L235.43 223.902L291.84 224.202L292.28 219.452L235.87 219.152Z" fill="white"/>
<path d="M275.76 232.061C275.76 232.061 276.4 245.231 276.69 249.611C277.5 261.561 280.61 297.361 280.61 297.361H285.93C285.93 297.361 287.93 280.921 287.38 266.801C287.14 260.971 285.38 255.801 284.99 251.801C284.6 247.801 286.86 241.451 285.3 235.661C283.82 230.201 275.76 232.061 275.76 232.061Z" fill="#FFC3BD"/>
<path d="M288.41 232.381C288.41 232.381 289.54 246.211 290.19 250.781C291.87 262.491 299.05 297.251 299.05 297.251L304.37 297.011C304.37 297.011 304.25 279.011 301.84 264.801C301.03 260.051 299.74 255.951 299.23 252.571C298.59 248.361 299.94 241.251 298.11 235.571C296.39 230.161 288.41 232.381 288.41 232.381Z" fill="#FFC3BD"/>
<path d="M293.89 205.092C293.89 205.092 303.28 213.822 302.95 242.312C293.828 245.82 283.826 246.338 274.39 243.792C274.39 243.792 271.86 222.882 274.39 207.482L293.89 205.092Z" fill="#263238"/>
<path d="M274.69 164.752C274.69 164.422 274.47 164.172 274.25 164.182C274.03 164.192 273.88 164.482 273.91 164.812C273.94 165.142 274.13 165.392 274.34 165.382C274.55 165.372 274.71 165.082 274.69 164.752Z" fill="#263238"/>
<path d="M274.33 164.201L273.42 164.061C273.42 164.061 274 164.691 274.33 164.201Z" fill="#263238"/>
<path d="M286.48 176.111C286.48 176.111 283.8 175.842 283.85 170.912C283.85 170.912 281.37 169.782 279.77 171.232C278.17 172.682 281.22 176.091 279.23 177.521C279.23 177.521 281 178.701 286.48 176.111Z" fill="#FFC3BD"/>
<path d="M274.66 165.221L272.92 167.521C273.191 167.724 273.506 167.861 273.84 167.92C274.173 167.979 274.516 167.959 274.84 167.861L274.66 165.221Z" fill="#ED893E"/>
<path d="M286.16 163.482C285.96 167.652 285.97 169.432 283.89 171.592C280.7 173.822 275.67 173.702 274.62 169.592C273.68 165.852 274.16 159.672 278.23 157.932C279.124 157.553 280.101 157.408 281.066 157.511C282.032 157.614 282.956 157.962 283.75 158.522C284.544 159.081 285.182 159.834 285.603 160.709C286.025 161.584 286.217 162.552 286.16 163.522V163.482Z" fill="#FFC3BD"/>
<path d="M275.44 163.771C275.413 163.787 275.382 163.796 275.35 163.796C275.318 163.796 275.287 163.787 275.26 163.771C275.08 163.607 274.864 163.488 274.63 163.423C274.395 163.359 274.148 163.351 273.91 163.401C273.862 163.413 273.812 163.406 273.769 163.382C273.726 163.358 273.694 163.318 273.68 163.271C273.667 163.22 273.673 163.167 273.697 163.121C273.721 163.074 273.761 163.039 273.81 163.021C274.111 162.961 274.422 162.971 274.719 163.051C275.015 163.131 275.29 163.278 275.52 163.481C275.553 163.516 275.572 163.562 275.572 163.611C275.572 163.659 275.553 163.705 275.52 163.741C275.498 163.759 275.469 163.77 275.44 163.771Z" fill="#263238"/>
<path opacity="0.2" d="M281.93 172.592C281.387 173.453 280.615 174.146 279.7 174.592C279.57 174.052 279.41 173.502 279.34 172.992C280.22 173.005 281.095 172.87 281.93 172.592Z" fill="black"/>
<path d="M288.56 176.832C288.56 176.832 287.01 173.102 282.22 174.642C277.43 176.182 276.37 178.862 276.37 178.862L288.56 176.832Z" fill="#6584A6"/>
<path opacity="0.2" d="M288.56 176.832C288.56 176.832 287.01 173.102 282.22 174.642C277.43 176.182 276.37 178.862 276.37 178.862L288.56 176.832Z" fill="black"/>
<path d="M292.21 177.631C292.21 177.631 298.4 183.351 295.73 188.951C293.06 194.551 288.56 186.651 288.56 186.651L292.21 177.631Z" fill="#6584A6"/>
<path opacity="0.2" d="M292.21 177.631C292.21 177.631 298.4 183.351 295.73 188.951C293.06 194.551 288.56 186.651 288.56 186.651L292.21 177.631Z" fill="black"/>
<path d="M280.5 296.791L286.5 296.941C286.609 296.939 286.716 296.976 286.8 297.046C286.884 297.116 286.941 297.213 286.96 297.321L287.96 302.201C288.001 302.407 287.959 302.622 287.843 302.798C287.727 302.974 287.546 303.097 287.34 303.141H287.17C285.02 303.051 283.11 302.881 280.43 302.821C277.28 302.741 278.07 303.141 274.35 303.101C272.12 303.101 271.77 300.521 272.72 300.421C277.08 299.981 277.56 298.681 279.27 297.171C279.624 296.907 280.059 296.773 280.5 296.791Z" fill="#263238"/>
<path d="M299.06 296.732H305.06C305.169 296.733 305.274 296.771 305.358 296.84C305.442 296.909 305.499 297.006 305.52 297.112L306.52 301.972C306.548 302.078 306.555 302.189 306.539 302.297C306.523 302.405 306.486 302.509 306.429 302.603C306.372 302.696 306.297 302.777 306.207 302.841C306.118 302.904 306.017 302.949 305.91 302.972H305.74C303.59 302.912 301.68 302.782 299.01 302.762C295.85 302.762 296.65 303.122 292.93 303.142C290.69 303.142 290.3 300.602 291.25 300.492C295.6 299.982 296.06 298.672 297.75 297.132C298.12 296.838 298.589 296.695 299.06 296.732Z" fill="#263238"/>
<path d="M295.73 205.301C295.73 205.301 287.14 211.611 273.73 208.301C273.73 208.301 269.51 188.391 272.34 182.391C274.86 177.031 279.9 176.321 283.91 176.061C287.92 175.801 294.2 175.291 293.99 183.351C293.78 191.411 293.72 196.101 295.73 205.301Z" fill="#6584A6"/>
<path opacity="0.2" d="M271.9 196.851C271.573 194.196 271.396 191.525 271.37 188.851L276.37 187.051L271.9 196.851Z" fill="black"/>
<path d="M262.68 192.882L251.2 190.882L250.71 189.882C250.527 189.527 250.232 189.242 249.87 189.072C249.509 188.902 249.101 188.856 248.71 188.942L248.19 189.052L246.85 188.052C246.527 187.819 246.136 187.699 245.738 187.712C245.34 187.725 244.958 187.869 244.65 188.122C244.443 188.29 244.277 188.502 244.162 188.742C244.048 188.983 243.989 189.246 243.99 189.512V190.682C243.998 191.041 244.113 191.389 244.32 191.682L245.23 192.982C245.383 193.203 245.584 193.387 245.818 193.521C246.052 193.654 246.312 193.733 246.58 193.752L250.48 194.002L262.64 197.092L262.68 192.882Z" fill="#FFC3BD"/>
<path d="M278.54 179.432C278.54 179.432 275.2 177.222 271.75 180.552C268.3 183.882 262.44 191.872 262.44 191.872L260.36 191.632L260.09 197.562C262.058 198.232 264.21 198.111 266.09 197.222C269.09 195.712 278.75 184.372 278.75 184.372C278.75 184.372 280 181.002 278.54 179.432Z" fill="#6584A6"/>
<path d="M261.94 190.721V194.001L261.02 194.431L261.94 195.051V198.631L259.1 198.001V190.721H261.94Z" fill="#6584A6"/>
<path opacity="0.5" d="M261.94 190.721V194.001L261.02 194.431L261.94 195.051V198.631L259.1 198.001V190.721H261.94Z" fill="white"/>
<path opacity="0.3" d="M289.89 245.242C289.11 245.302 288.3 245.342 287.46 245.362C286.96 231.562 290.96 226.492 290.96 226.492C289.676 232.655 289.316 238.974 289.89 245.242Z" fill="black"/>
<path d="M280.64 156.341C280.64 156.341 287.35 154.011 288.56 160.831C289.77 167.651 295.85 169.391 292.48 173.941C289.11 178.491 279.4 175.081 279.23 171.251C279.06 167.421 279.11 161.011 277.69 160.171C277.69 160.171 278.54 162.811 277.69 162.811C276.84 162.811 276.26 161.811 276.37 160.471C276.37 160.471 276.37 162.151 274.37 161.551C272.37 160.951 275.52 158.741 275.52 158.741C274.794 159.028 274.119 159.43 273.52 159.931C272.97 160.531 272.82 159.631 273.52 158.501C274 157.611 276.42 155.561 280.64 156.341Z" fill="#263238"/>
<path d="M278.74 164.89C278.11 165.466 277.733 166.268 277.69 167.12C277.64 168.25 278.69 168.57 279.69 168.04C280.69 167.51 281.56 166.41 281.16 165.37C281.074 165.139 280.929 164.933 280.741 164.773C280.553 164.613 280.327 164.504 280.084 164.455C279.842 164.407 279.591 164.422 279.356 164.498C279.12 164.574 278.909 164.709 278.74 164.89Z" fill="#FFC3BD"/>
<path d="M117.65 190.821L123.16 190.061L123.58 188.711C123.665 188.447 123.849 188.226 124.093 188.094C124.337 187.962 124.622 187.929 124.89 188.001L125.52 188.171L127.9 186.921C128.079 186.831 128.28 186.792 128.48 186.811C128.756 186.832 129.013 186.957 129.199 187.162C129.385 187.367 129.486 187.635 129.48 187.911L129.42 190.081C129.425 190.128 129.425 190.175 129.42 190.221L129.17 191.861C129.133 192.087 129.026 192.295 128.865 192.456C128.703 192.618 128.495 192.725 128.27 192.761L124.82 193.301L118.49 194.651L117.65 190.821Z" fill="#FFB573"/>
<path d="M121.51 189.292C118.664 189.501 115.806 189.501 112.96 189.292C111.45 189.172 110.13 188.062 108.96 186.512L104.19 193.512C105.26 194.688 106.579 195.61 108.05 196.212C114.05 198.112 122.48 194.672 122.48 194.672C122.814 193.77 122.9 192.796 122.729 191.849C122.559 190.903 122.138 190.02 121.51 189.292Z" fill="#263238"/>
<path opacity="0.3" d="M121.51 189.292C118.664 189.501 115.806 189.501 112.96 189.292C111.45 189.172 110.13 188.062 108.96 186.512L104.19 193.512C105.26 194.688 106.579 195.61 108.05 196.212C114.05 198.112 122.48 194.672 122.48 194.672C122.814 193.77 122.9 192.796 122.729 191.849C122.559 190.903 122.138 190.02 121.51 189.292Z" fill="black"/>
<path d="M111.71 166L106.4 223.75L161.14 223.97L162.84 222.58L168.19 166.26L111.71 166Z" fill="#6584A6"/>
<path d="M104.95 221.271L161.37 221.481L166.29 167.521L109.87 167.311L104.95 221.271Z" fill="#6584A6"/>
<path opacity="0.8" d="M104.95 221.271L161.37 221.481L166.29 167.521L109.87 167.311L104.95 221.271Z" fill="white"/>
<path d="M106.21 207.502L162.62 207.712L163.36 199.612L106.94 199.402L106.21 207.502Z" fill="#6584A6"/>
<path opacity="0.5" d="M106.21 207.502L162.62 207.712L163.36 199.612L106.94 199.402L106.21 207.502Z" fill="white"/>
<path d="M149.84 185.1L108.26 185L107.52 193.1L149.1 193.25C149.65 193.244 150.179 193.037 150.587 192.669C150.996 192.301 151.256 191.796 151.32 191.25L151.69 187.25C151.733 186.983 151.718 186.71 151.645 186.45C151.572 186.189 151.443 185.948 151.266 185.743C151.09 185.538 150.871 185.374 150.624 185.263C150.378 185.152 150.11 185.096 149.84 185.1Z" fill="#6584A6"/>
<path opacity="0.5" d="M149.84 185.1L108.26 185L107.52 193.1L149.1 193.25C149.65 193.244 150.179 193.037 150.587 192.669C150.996 192.301 151.256 191.796 151.32 191.25L151.69 187.25C151.733 186.983 151.718 186.71 151.645 186.45C151.572 186.189 151.443 185.948 151.266 185.743C151.09 185.538 150.871 185.374 150.624 185.263C150.378 185.152 150.11 185.096 149.84 185.1Z" fill="white"/>
<path d="M108.84 178.6L165.26 178.81L166 170.71L109.58 170.5L108.84 178.6Z" fill="#6584A6"/>
<path opacity="0.5" d="M108.84 178.6L165.26 178.81L166 170.71L109.58 170.5L108.84 178.6Z" fill="white"/>
<path d="M105.16 219L104.72 223.75L161.14 223.96L161.57 219.21L105.16 219Z" fill="#6584A6"/>
<path opacity="0.3" d="M105.16 219L104.72 223.75L161.14 223.96L161.57 219.21L105.16 219Z" fill="white"/>
<path d="M101.39 173.001C101.39 173.001 104.39 172.691 104.39 167.131C104.39 167.131 107.18 165.861 108.98 167.501C110.78 169.141 107.36 172.981 109.6 174.591C109.57 174.541 107.6 175.861 101.39 173.001Z" fill="#FFB573"/>
<path d="M114.61 159.291C114.61 158.921 114.85 158.631 115.1 158.651C115.35 158.671 115.51 158.981 115.49 159.361C115.47 159.741 115.24 160.011 115 160.001C114.76 159.991 114.58 159.661 114.61 159.291Z" fill="#263238"/>
<path d="M114.86 160L116.86 162.6C116.555 162.828 116.201 162.983 115.826 163.05C115.451 163.118 115.065 163.097 114.7 162.99L114.86 160Z" fill="#ED893E"/>
<path d="M101.75 158.712C101.98 163.412 101.97 165.412 104.31 167.862C107.91 170.362 113.57 170.232 114.76 165.552C115.82 161.342 115.28 154.372 110.7 152.412C109.691 151.983 108.59 151.819 107.5 151.934C106.41 152.05 105.368 152.441 104.472 153.072C103.576 153.703 102.855 154.552 102.379 155.539C101.903 156.526 101.686 157.618 101.75 158.712Z" fill="#FFB573"/>
<path d="M113.91 158.191C113.941 158.206 113.975 158.214 114.01 158.214C114.044 158.214 114.078 158.206 114.11 158.191C114.311 158.005 114.554 157.869 114.818 157.794C115.082 157.719 115.36 157.708 115.63 157.761C115.685 157.777 115.745 157.77 115.795 157.742C115.846 157.714 115.883 157.667 115.9 157.611C115.913 157.556 115.904 157.497 115.877 157.447C115.849 157.398 115.804 157.36 115.75 157.341C115.412 157.267 115.062 157.275 114.728 157.364C114.394 157.452 114.086 157.62 113.83 157.851C113.81 157.871 113.794 157.894 113.783 157.92C113.772 157.946 113.767 157.973 113.767 158.001C113.767 158.029 113.772 158.057 113.783 158.083C113.794 158.108 113.81 158.132 113.83 158.151C113.853 158.171 113.88 158.185 113.91 158.191Z" fill="#263238"/>
<path opacity="0.2" d="M106.52 169C107.129 169.98 107.997 170.773 109.03 171.29C109.18 170.68 109.36 170.06 109.45 169.49C108.452 169.494 107.461 169.328 106.52 169Z" fill="black"/>
<path d="M99.3098 173.81C99.3098 173.81 99.8698 170.27 104.16 170.25C110.22 170.25 112 173.09 112 173.09L99.3098 173.81Z" fill="#263238"/>
<path opacity="0.3" d="M99.3098 173.81C99.3098 173.81 99.8698 170.27 104.16 170.25C110.22 170.25 112 173.09 112 173.09L99.3098 173.81Z" fill="black"/>
<path d="M97.9697 292.031L98.5097 300.991L103.53 300.811L103.82 292.211L97.9697 292.031Z" fill="#FFB573"/>
<path d="M104.37 300.241C104.345 300.236 104.323 300.223 104.305 300.206C104.287 300.188 104.275 300.165 104.27 300.141C104.267 300.116 104.271 300.09 104.282 300.068C104.292 300.045 104.309 300.025 104.33 300.011C104.41 299.961 106.24 298.911 107.11 299.151C107.19 299.169 107.266 299.204 107.333 299.252C107.4 299.3 107.457 299.361 107.5 299.431C107.555 299.51 107.585 299.604 107.585 299.701C107.585 299.797 107.555 299.892 107.5 299.971C107.054 300.292 106.506 300.438 105.96 300.381C105.427 300.378 104.895 300.331 104.37 300.241ZM104.77 300.071C105.77 300.191 107.07 300.171 107.31 299.831C107.31 299.831 107.38 299.711 107.31 299.561C107.285 299.514 107.25 299.474 107.206 299.444C107.163 299.415 107.112 299.396 107.06 299.391C106.983 299.38 106.906 299.38 106.83 299.391C106.107 299.488 105.409 299.719 104.77 300.071Z" fill="#6584A6"/>
<path d="M104.31 300.23C104.29 300.22 104.273 300.204 104.262 300.185C104.252 300.165 104.247 300.143 104.25 300.12C104.307 299.386 104.59 298.688 105.06 298.12C105.254 297.963 105.5 297.885 105.75 297.9C106.09 297.9 106.2 298.11 106.21 298.25C106.32 298.84 105.07 299.98 104.44 300.25H104.39C104.376 300.255 104.361 300.255 104.347 300.251C104.333 300.248 104.32 300.241 104.31 300.23ZM105.66 298.11C105.505 298.112 105.356 298.169 105.24 298.27C104.849 298.723 104.608 299.285 104.55 299.88C105.2 299.49 106.02 298.6 105.98 298.24C105.98 298.24 105.98 298.12 105.73 298.1L105.66 298.11Z" fill="#6584A6"/>
<path d="M103.84 299.511H98.1199C98.0146 299.509 97.9119 299.544 97.8297 299.609C97.7475 299.675 97.6909 299.768 97.6699 299.871L96.6699 304.531C96.6464 304.629 96.6428 304.73 96.6595 304.83C96.6761 304.929 96.7126 305.024 96.7667 305.109C96.8208 305.194 96.8915 305.267 96.9745 305.324C97.0575 305.381 97.1512 305.421 97.2499 305.441H97.4099C99.4699 305.391 101.3 305.271 103.87 305.261C106.87 305.261 106.13 305.621 109.69 305.651C111.84 305.651 112.22 303.231 111.31 303.111C107.14 302.611 106.7 301.351 105.09 299.871C104.732 299.6 104.287 299.472 103.84 299.511Z" fill="#263238"/>
<path opacity="0.2" d="M98.2497 296.661H103.67L103.82 292.211L97.9697 292.031L98.2497 296.661Z" fill="black"/>
<path d="M94.2697 213.871C94.2697 213.871 93.1997 221.391 95.8497 233.981C96.9697 239.301 98.7497 250.081 98.6997 255.511C98.6997 259.111 97.9097 260.741 96.6397 269.761C95.3697 278.781 97.2697 295.101 97.2697 295.101L104.55 295.181C104.55 295.181 109.09 265.031 109.94 254.561C110.37 249.241 110.57 233.191 110.57 233.191L108 213.871H94.2697Z" fill="#6584A6"/>
<path opacity="0.1" d="M103.23 226.631C103.23 226.631 104.86 238.121 110.23 247.531C110.44 241.001 110.53 233.191 110.53 233.191L110.47 232.691L106.75 227.511L103.23 226.631Z" fill="black"/>
<path d="M119.55 292.22L120.46 301.16L125.47 300.77L125.4 292.16L119.55 292.22Z" fill="#FFB573"/>
<path d="M126.29 300.162C126.266 300.158 126.244 300.148 126.226 300.132C126.208 300.116 126.196 300.095 126.19 300.072C126.181 300.046 126.182 300.018 126.191 299.993C126.2 299.968 126.217 299.946 126.24 299.932C126.32 299.882 128.09 298.762 128.98 298.932C129.144 298.971 129.287 299.071 129.38 299.212C129.435 299.291 129.465 299.385 129.465 299.482C129.465 299.578 129.435 299.673 129.38 299.752C128.948 300.09 128.407 300.257 127.86 300.222C127.336 300.245 126.811 300.224 126.29 300.162ZM126.68 299.982C127.68 300.052 128.98 299.982 129.21 299.632C129.21 299.632 129.27 299.512 129.21 299.362C129.185 299.316 129.149 299.278 129.105 299.25C129.062 299.222 129.012 299.205 128.96 299.202C128.881 299.187 128.799 299.187 128.72 299.202C127.995 299.336 127.303 299.608 126.68 300.002V299.982Z" fill="#6584A6"/>
<path d="M126.22 300.16C126.202 300.147 126.188 300.13 126.178 300.111C126.167 300.092 126.161 300.071 126.16 300.05C126.179 299.305 126.431 298.585 126.88 297.99C126.97 297.904 127.077 297.838 127.194 297.795C127.311 297.752 127.435 297.733 127.56 297.74C127.91 297.74 128.02 297.93 128.04 298.07C128.18 298.65 126.97 299.85 126.36 300.15H126.22V300.16ZM127.49 297.98C127.332 297.986 127.183 298.05 127.07 298.16C126.7 298.626 126.483 299.195 126.45 299.79C127.08 299.38 127.86 298.45 127.81 298.1C127.81 298.1 127.81 297.98 127.56 297.97L127.49 297.98Z" fill="#6584A6"/>
<path d="M125.72 299.45L120.01 299.72C119.905 299.723 119.805 299.763 119.726 299.833C119.648 299.902 119.596 299.997 119.58 300.1L118.76 304.8C118.725 305 118.77 305.206 118.886 305.373C119.003 305.539 119.18 305.653 119.38 305.69H119.54C121.6 305.56 123.42 305.36 125.99 305.24C128.99 305.1 128.26 305.5 131.82 305.39C133.97 305.31 134.24 302.86 133.33 302.78C129.15 302.45 128.66 301.22 126.98 299.78C126.612 299.524 126.166 299.407 125.72 299.45Z" fill="#263238"/>
<path opacity="0.2" d="M125.4 292.16L119.55 292.22L120 296.63L125.44 296.31L125.4 292.16Z" fill="black"/>
<path d="M102 213.871C101.574 221.501 103.222 229.103 106.77 235.871C112.61 246.481 113.19 249.601 113.61 254.551C114.01 259.291 114.04 260.891 114.67 270.701C115.3 280.511 118.87 295.171 118.87 295.171L126.39 294.691C126.39 294.691 126.39 263.641 125.12 252.691C124 242.871 118 213.871 118 213.871H102Z" fill="#6584A6"/>
<path d="M99.3098 172.58C99.3098 172.58 89.7898 173.81 88.6098 179.28C87.4298 184.75 90.1598 195.19 93.9598 196.5C97.7598 197.81 99.3098 172.58 99.3098 172.58Z" fill="#263238"/>
<path opacity="0.4" d="M95.49 177.691L93.82 176.691C93.82 176.691 91.47 179.691 90 191.181C91 193.851 92.39 195.971 94 196.511C95.61 197.051 96.69 193.231 97.54 188.511L95.49 177.691Z" fill="black"/>
<path d="M93.2399 215.261C93.2399 215.261 103.09 217.991 119.6 215.261C118.978 206.038 119.175 196.778 120.19 187.591C121.97 173.931 118.65 172.981 109.39 172.511C100.13 172.041 93.5399 171.511 93.2399 179.991C92.5199 199.581 93.2399 215.261 93.2399 215.261Z" fill="#263238"/>
<path opacity="0.4" d="M115.9 180.38C115.9 180.38 116.61 188.1 119.63 193.15C119.77 191.3 119.95 189.43 120.19 187.59C120.591 185.021 120.722 182.417 120.58 179.82L117.34 175L115.9 180.38Z" fill="black"/>
<path d="M139.49 191.722L145 191.002L145.43 189.652C145.513 189.386 145.696 189.163 145.94 189.029C146.184 188.894 146.471 188.86 146.74 188.932L147.36 189.102L149.74 187.862C149.92 187.773 150.119 187.731 150.32 187.742C150.596 187.762 150.853 187.888 151.039 188.092C151.225 188.297 151.326 188.565 151.32 188.842V191.022C151.32 191.022 151.32 191.112 151.32 191.162L151.06 192.802C151.024 193.028 150.918 193.237 150.756 193.398C150.595 193.56 150.386 193.666 150.16 193.702L146.72 194.242L140.39 195.582L139.49 191.722Z" fill="#FFB573"/>
<path d="M115 173.092C115 173.092 121.89 173.092 125.09 177.732C127.77 181.612 130.55 189.852 134.83 190.202C137.676 190.411 140.534 190.411 143.38 190.202C144.01 190.923 144.435 191.799 144.611 192.74C144.787 193.681 144.707 194.652 144.38 195.552C144.38 195.552 135.95 198.992 129.95 197.092C123.95 195.192 114.34 177.502 114.34 177.502L115 173.092Z" fill="#263238"/>
<path d="M109.82 161.251C110.492 159.594 110.776 157.805 110.65 156.021C110.65 156.021 115.08 157.681 115.74 155.611C115.834 155.343 115.871 155.059 115.847 154.776C115.823 154.494 115.739 154.219 115.601 153.972C115.463 153.724 115.274 153.508 115.046 153.339C114.818 153.17 114.557 153.051 114.28 152.991C114.28 152.991 116.47 152.701 115.22 151.211C113.97 149.721 111.72 150.261 111.72 150.261C111.72 150.261 113.97 148.841 112.25 148.011C110.53 147.181 107.98 149.731 107.98 149.731C107.98 149.731 109.45 147.351 107.74 146.941C106.03 146.531 103.94 150.941 103.94 150.941C103.94 150.941 99.4198 151.391 99.3098 152.991C99.2852 153.197 99.3054 153.406 99.3692 153.604C99.4331 153.802 99.5389 153.983 99.6795 154.136C99.8201 154.289 99.9921 154.41 100.184 154.49C100.375 154.57 100.582 154.608 100.79 154.601C100.79 154.601 97.7898 155.071 98.2998 156.601C98.3333 156.79 98.416 156.967 98.5397 157.114C98.6634 157.26 98.8237 157.372 99.0043 157.437C99.185 157.502 99.3796 157.518 99.5684 157.483C99.7573 157.449 99.9337 157.365 100.08 157.241C100.08 157.241 98.1898 158.891 98.8398 160.401C99.3098 161.491 100.14 160.941 100.14 160.941C100.14 160.941 99.6098 163.091 100.5 164.121C101.39 165.151 101.74 163.311 101.74 163.311C101.751 163.939 101.896 164.557 102.165 165.124C102.434 165.691 102.821 166.195 103.3 166.601C103.3 166.601 104.72 165.211 107.57 166.161L109.82 161.251Z" fill="#263238"/>
<path d="M110.12 160.302C110.472 160.622 110.758 161.008 110.96 161.439C111.163 161.87 111.278 162.336 111.3 162.812C111.3 164.092 110.14 164.442 109.09 163.812C108.04 163.182 106.97 161.982 107.42 160.812C107.524 160.56 107.689 160.337 107.901 160.165C108.112 159.993 108.364 159.876 108.632 159.825C108.9 159.775 109.176 159.792 109.436 159.875C109.696 159.958 109.931 160.105 110.12 160.302Z" fill="#FFB573"/>
<path d="M61.17 94.4922L60.41 103.182H20.61L21.37 94.4922H18.52L0.459961 301.002H3.30996L4.06996 292.322H43.87L43.11 301.002H46L64 94.4922H61.17ZM57.7 134.222H17.9L20.36 106.002H60.17L57.7 134.222ZM54.98 165.222H15.18L17.65 137.032H57.45L54.98 165.222ZM52.27 196.272H12.46L14.93 168.072H54.73L52.27 196.272ZM49.55 227.272H9.74996L12.21 199.082H52L49.55 227.272ZM46.83 258.272H6.99996L9.49996 230.202H49.3L46.83 258.272ZM6.82996 261.122H46.59L44.12 289.322H4.31996L6.82996 261.122Z" fill="#263238"/>
<path opacity="0.3" d="M61.17 94.4922L60.41 103.182H20.61L21.37 94.4922H18.52L0.459961 301.002H3.30996L4.06996 292.322H43.87L43.11 301.002H46L64 94.4922H61.17ZM57.7 134.222H17.9L20.36 106.002H60.17L57.7 134.222ZM54.98 165.222H15.18L17.65 137.032H57.45L54.98 165.222ZM52.27 196.272H12.46L14.93 168.072H54.73L52.27 196.272ZM49.55 227.272H9.74996L12.21 199.082H52L49.55 227.272ZM46.83 258.272H6.99996L9.49996 230.202H49.3L46.83 258.272ZM6.82996 261.122H46.59L44.12 289.322H4.31996L6.82996 261.122Z" fill="white"/>
<path d="M32.8 93.2508L39.25 97.0008L50.44 92.0608L50.57 89.3208C50.5854 88.9891 50.7281 88.6762 50.9684 88.4471C51.2086 88.218 51.528 88.0904 51.86 88.0908H53L54.12 87.0008C54.2595 86.8674 54.427 86.7668 54.6102 86.7063C54.7934 86.6457 54.9879 86.6267 55.1794 86.6507C55.3709 86.6746 55.5546 86.7409 55.7173 86.8447C55.88 86.9485 56.0176 87.0872 56.12 87.2508L56.78 88.2508C56.947 88.4972 57.0214 88.7947 56.99 89.0908L56.64 92.4108C56.616 92.6528 56.5245 92.8833 56.376 93.076C56.2275 93.2687 56.0279 93.4159 55.8 93.5008L52.8 94.6008C52.8 94.6008 43.51 101.221 40.11 101.971C36.71 102.721 29.97 99.1708 29.97 99.1708L32.8 93.2508Z" fill="#FF8B7B"/>
<path d="M117.21 38.7109L65.7 39.0009C62.93 39.0009 60.03 40.8709 59.78 43.6409L56.22 95.1509L110.22 97.0609L112.05 95.6909L117.21 38.7109Z" fill="#6584A6"/>
<path d="M110.19 96.9924L114.52 48.2323L61.0597 48.1523L56.7197 96.9124L110.19 96.9924Z" fill="#6584A6"/>
<path opacity="0.8" d="M110.19 96.9924L114.52 48.2323L61.0597 48.1523L56.7197 96.9124L110.19 96.9924Z" fill="white"/>
<path d="M111.31 84.351L75.0001 84.291C74.4524 84.3016 73.927 84.5099 73.5208 84.8775C73.1147 85.2451 72.8551 85.7471 72.7901 86.291L72.4301 90.291C72.4078 90.5466 72.4391 90.804 72.5222 91.0468C72.6052 91.2895 72.7381 91.5122 72.9123 91.7005C73.0866 91.8889 73.2982 92.0387 73.5338 92.1404C73.7693 92.2421 74.0235 92.2934 74.2801 92.291H110.63L111.31 84.351Z" fill="#6584A6"/>
<path d="M112.6 69.8809H76.2499C75.7011 69.8912 75.1744 70.0991 74.7666 70.4665C74.3588 70.8339 74.0972 71.3361 74.0299 71.8809L73.6799 75.8809C73.6543 76.1371 73.6835 76.3958 73.7654 76.64C73.8472 76.8841 73.98 77.1081 74.1548 77.2971C74.3297 77.4862 74.5427 77.6359 74.7797 77.7366C75.0167 77.8372 75.2724 77.8864 75.5299 77.8809L111.88 77.9409L112.6 69.8809Z" fill="#6584A6"/>
<path opacity="0.5" d="M112.6 69.8809H76.2499C75.7011 69.8912 75.1744 70.0991 74.7666 70.4665C74.3588 70.8339 74.0972 71.3361 74.0299 71.8809L73.6799 75.8809C73.6543 76.1371 73.6835 76.3958 73.7654 76.64C73.8472 76.8841 73.98 77.1081 74.1548 77.2971C74.3297 77.4862 74.5427 77.6359 74.7797 77.7366C75.0167 77.8372 75.2724 77.8864 75.5299 77.8809L111.88 77.9409L112.6 69.8809Z" fill="white"/>
<path d="M62 57.8719C62.0908 56.9706 62.5098 56.1343 63.1774 55.522C63.8449 54.9098 64.7144 54.5645 65.62 54.5519L113.93 54.6219L115.19 40.5019L63.82 40.4219C62.4574 40.4481 61.1511 40.9704 60.1459 41.8909C59.1408 42.8113 58.5058 44.0668 58.36 45.4219L53.8 96.9019H58.55L62 57.8719Z" fill="#6584A6"/>
<path opacity="0.3" d="M62 57.8719C62.0908 56.9706 62.5098 56.1343 63.1774 55.522C63.8449 54.9098 64.7144 54.5645 65.62 54.5519L113.93 54.6219L115.19 40.5019L63.82 40.4219C62.4574 40.4481 61.1511 40.9704 60.1459 41.8909C59.1408 42.8113 58.5058 44.0668 58.36 45.4219L53.8 96.9019H58.55L62 57.8719Z" fill="white"/>
<path d="M94.8602 47.2515C94.7677 48.1343 94.3558 48.9529 93.702 49.5533C93.0483 50.1536 92.1977 50.4944 91.3102 50.5115C90.8897 50.5228 90.4717 50.4437 90.0844 50.2795C89.6971 50.1154 89.3495 49.8701 89.0651 49.5601C88.7807 49.2501 88.5662 48.8828 88.4359 48.4828C88.3057 48.0828 88.2628 47.6595 88.3102 47.2415C88.3985 46.3571 88.8091 45.536 89.4638 44.9348C90.1185 44.3336 90.9715 43.9943 91.8602 43.9815C92.2807 43.9703 92.6987 44.0494 93.0861 44.2135C93.4734 44.3776 93.8209 44.623 94.1053 44.9329C94.3897 45.2429 94.6042 45.6103 94.7345 46.0103C94.8647 46.4103 94.9076 46.8335 94.8602 47.2515Z" fill="#6584A6"/>
<path opacity="0.5" d="M94.8602 47.2515C94.7677 48.1343 94.3558 48.9529 93.702 49.5533C93.0483 50.1536 92.1977 50.4944 91.3102 50.5115C90.8897 50.5228 90.4717 50.4437 90.0844 50.2795C89.6971 50.1154 89.3495 49.8701 89.0651 49.5601C88.7807 49.2501 88.5662 48.8828 88.4359 48.4828C88.3057 48.0828 88.2628 47.6595 88.3102 47.2415C88.3985 46.3571 88.8091 45.536 89.4638 44.9348C90.1185 44.3336 90.9715 43.9943 91.8602 43.9815C92.2807 43.9703 92.6987 44.0494 93.0861 44.2135C93.4734 44.3776 93.8209 44.623 94.1053 44.9329C94.3897 45.2429 94.6042 45.6103 94.7345 46.0103C94.8647 46.4103 94.9076 46.8335 94.8602 47.2515Z" fill="white"/>
<path d="M82.7499 47.23C82.6574 48.1128 82.2455 48.9314 81.5917 49.5318C80.9379 50.1321 80.0873 50.4729 79.1998 50.49C78.7793 50.5013 78.3613 50.4222 77.974 50.2581C77.5867 50.0939 77.2391 49.8486 76.9547 49.5386C76.6704 49.2287 76.4558 48.8613 76.3256 48.4613C76.1954 48.0613 76.1525 47.638 76.1998 47.22C76.2923 46.3372 76.7042 45.5187 77.358 44.9183C78.0118 44.3179 78.8624 43.9772 79.7499 43.96C80.1704 43.9488 80.5884 44.0279 80.9757 44.192C81.363 44.3561 81.7106 44.6015 81.995 44.9115C82.2793 45.2214 82.4939 45.5888 82.6241 45.9888C82.7543 46.3888 82.7972 46.812 82.7499 47.23Z" fill="#6584A6"/>
<path d="M70.6297 47.2105C70.5414 48.095 70.1308 48.916 69.4761 49.5172C68.8215 50.1184 67.9685 50.4577 67.0797 50.4705C66.6592 50.4818 66.2412 50.4027 65.8539 50.2385C65.4666 50.0744 65.119 49.8291 64.8346 49.5191C64.5502 49.2091 64.3357 48.8417 64.2055 48.4417C64.0752 48.0418 64.0324 47.6185 64.0797 47.2005C64.1722 46.3177 64.5841 45.4992 65.2379 44.8988C65.8917 44.2984 66.7423 43.9576 67.6297 43.9405C68.0502 43.9292 68.4683 44.0084 68.8556 44.1725C69.2429 44.3366 69.5905 44.582 69.8748 44.8919C70.1592 45.2019 70.3738 45.5693 70.504 45.9693C70.6342 46.3692 70.6771 46.7925 70.6297 47.2105Z" fill="#6584A6"/>
<path opacity="0.2" d="M70.6297 47.2105C70.5414 48.095 70.1308 48.916 69.4761 49.5172C68.8215 50.1184 67.9685 50.4577 67.0797 50.4705C66.6592 50.4818 66.2412 50.4027 65.8539 50.2385C65.4666 50.0744 65.119 49.8291 64.8346 49.5191C64.5502 49.2091 64.3357 48.8417 64.2055 48.4417C64.0752 48.0418 64.0324 47.6185 64.0797 47.2005C64.1722 46.3177 64.5841 45.4992 65.2379 44.8988C65.8917 44.2984 66.7423 43.9576 67.6297 43.9405C68.0502 43.9292 68.4683 44.0084 68.8556 44.1725C69.2429 44.3366 69.5905 44.582 69.8748 44.8919C70.1592 45.2019 70.3738 45.5693 70.504 45.9693C70.6342 46.3692 70.6771 46.7925 70.6297 47.2105Z" fill="black"/>
<path d="M69.05 48.2411L68.05 47.2411L69.05 46.2411C69.1211 46.1507 69.1566 46.0374 69.1498 45.9226C69.1429 45.8078 69.0943 45.6995 69.0129 45.6181C68.9316 45.5368 68.8233 45.4881 68.7085 45.4813C68.5937 45.4745 68.4804 45.51 68.39 45.5811L67.39 46.5811L66.39 45.5811C66.2996 45.51 66.1863 45.4745 66.0714 45.4813C65.9566 45.4881 65.8483 45.5368 65.767 45.6181C65.6857 45.6995 65.637 45.8078 65.6302 45.9226C65.6233 46.0374 65.6589 46.1507 65.73 46.2411L66.73 47.2411C66.38 47.5811 66.03 47.9211 65.73 48.2411C65.6866 48.2838 65.6521 48.3346 65.6284 48.3906C65.6047 48.4466 65.5923 48.5067 65.5918 48.5676C65.5913 48.6284 65.6029 48.6887 65.6257 48.7451C65.6486 48.8014 65.6823 48.8528 65.725 48.8961C65.7676 48.9394 65.8184 48.9739 65.8745 48.9977C65.9305 49.0214 65.9906 49.0338 66.0514 49.0343C66.1123 49.0347 66.1726 49.0232 66.2289 49.0004C66.2853 48.9775 66.3366 48.9438 66.38 48.9011L67.38 47.9011L68.38 48.9011C68.4675 48.9899 68.5867 49.0404 68.7114 49.0413C68.7732 49.0418 68.8344 49.0301 68.8916 49.0069C68.9489 48.9837 69.001 48.9494 69.045 48.9061C69.089 48.8628 69.124 48.8112 69.148 48.7543C69.1721 48.6974 69.1847 48.6364 69.1852 48.5746C69.1857 48.5129 69.174 48.4517 69.1508 48.3944C69.1276 48.3372 69.0933 48.2851 69.05 48.2411Z" fill="white"/>
<path d="M81.4198 46.7695H77.5598C77.4482 46.7859 77.3462 46.8419 77.2725 46.9273C77.1988 47.0127 77.1582 47.1217 77.1582 47.2345C77.1582 47.3473 77.1988 47.4564 77.2725 47.5417C77.3462 47.6271 77.4482 47.6831 77.5598 47.6995H81.4198C81.5314 47.6831 81.6334 47.6271 81.7072 47.5417C81.7809 47.4564 81.8215 47.3473 81.8215 47.2345C81.8215 47.1217 81.7809 47.0127 81.7072 46.9273C81.6334 46.8419 81.5314 46.7859 81.4198 46.7695Z" fill="white"/>
<path d="M89.96 48.8806H91.94L89.97 46.8906L89.96 48.8806Z" fill="white"/>
<path d="M91.28 45.5918L93.26 47.5818L93.27 45.5918H91.28Z" fill="white"/>
<path d="M13.8401 212.301L13.0801 221.251L18.0801 221.791L19.6001 213.321L13.8401 212.301Z" fill="#FF8B7B"/>
<path d="M18.9999 221.791C18.977 221.783 18.9571 221.768 18.9428 221.749C18.9285 221.729 18.9205 221.705 18.9199 221.681C18.9184 221.655 18.9254 221.629 18.9398 221.608C18.9543 221.586 18.9753 221.57 18.9999 221.561C19.0799 221.561 20.9999 220.741 21.8699 221.101C22.0246 221.167 22.1493 221.288 22.2199 221.441C22.2629 221.528 22.2792 221.626 22.2668 221.722C22.2543 221.818 22.2136 221.908 22.1499 221.981C21.6638 222.235 21.1006 222.299 20.5699 222.161C20.0369 222.083 19.5117 221.959 18.9999 221.791ZM19.4199 221.681C20.3699 221.941 21.6799 222.111 21.9699 221.811C21.9699 221.811 22.0499 221.701 21.9699 221.541C21.9544 221.492 21.9273 221.447 21.8907 221.41C21.8541 221.374 21.8092 221.347 21.7599 221.331C21.6859 221.302 21.6087 221.282 21.5299 221.271C20.7901 221.267 20.0565 221.406 19.3699 221.681H19.4199Z" fill="#6584A6"/>
<path d="M18.8897 221.772C18.8801 221.756 18.875 221.737 18.875 221.717C18.875 221.698 18.8801 221.679 18.8897 221.662C19.0444 220.93 19.4257 220.265 19.9797 219.762C20.0849 219.698 20.2018 219.655 20.3237 219.636C20.4456 219.617 20.57 219.623 20.6897 219.652C21.0297 219.732 21.1097 219.912 21.0997 220.062C21.0997 220.662 19.7197 221.612 19.0997 221.792H18.9997C18.9824 221.804 18.9612 221.808 18.9407 221.805C18.9201 221.801 18.9018 221.789 18.8897 221.772ZM20.5397 219.872C20.3839 219.85 20.2251 219.882 20.0897 219.962C19.6403 220.358 19.3227 220.881 19.1797 221.462C19.8697 221.172 20.8197 220.402 20.8297 220.052C20.8297 220.052 20.8297 219.922 20.6097 219.872H20.5397Z" fill="#6584A6"/>
<path d="M18.5299 221L12.8599 220.21C12.7573 220.195 12.6525 220.215 12.5632 220.268C12.4739 220.321 12.4056 220.403 12.3699 220.5L10.6999 225C10.6614 225.095 10.6422 225.196 10.6436 225.298C10.645 225.4 10.6669 225.5 10.7079 225.593C10.749 225.687 10.8084 225.771 10.8826 225.841C10.9568 225.911 11.0443 225.965 11.1399 226C11.1895 226.009 11.2403 226.009 11.2899 226C13.3399 226.25 15.1699 226.4 17.7099 226.76C20.7099 227.18 19.8999 227.43 23.4199 227.98C25.5399 228.3 26.2699 225.98 25.4199 225.7C21.4199 224.6 21.1099 223.29 19.7299 221.59C19.4175 221.251 18.9895 221.04 18.5299 221Z" fill="#263238"/>
<path opacity="0.2" d="M19.5999 213.321L13.8399 212.301L13.4399 216.971L18.7999 217.761L19.5999 213.321Z" fill="#263238"/>
<path d="M42.24 70.771C42.24 70.771 46.29 68.871 45.9 70.471C45.51 72.071 42.55 72.791 41.71 72.201C40.87 71.611 42.24 70.771 42.24 70.771Z" fill="#263238"/>
<path d="M31.7998 89.6514C31.7998 89.6514 34.7998 89.3414 34.7998 83.7814C34.7998 83.7814 37.5898 82.5114 39.3998 84.1514C41.2098 85.7914 37.7698 89.6315 40.0098 91.2415C39.9998 91.2415 37.9998 92.5614 31.7998 89.6514Z" fill="#FF8B7B"/>
<path d="M45 76.0003C45 75.6303 45.24 75.3404 45.49 75.3604C45.74 75.3804 45.9 75.6904 45.88 76.0704C45.86 76.4504 45.63 76.7204 45.39 76.7104C45.15 76.7004 45 76.3604 45 76.0003Z" fill="#263238"/>
<path d="M45.2699 76.6602L47.2699 79.2601C46.9649 79.4886 46.6109 79.6429 46.236 79.7106C45.861 79.7783 45.4754 79.7576 45.1099 79.6501L45.2699 76.6602Z" fill="#FF5652"/>
<path d="M32.1598 75.4102C32.3898 80.1102 32.3798 82.1102 34.7298 84.5602C38.3198 87.0602 43.9798 86.9302 45.1698 82.2502C46.2298 78.0402 45.6898 71.0702 41.1098 69.1102C40.0991 68.6699 38.9922 68.4964 37.8952 68.6063C36.7982 68.7163 35.7478 69.1061 34.8446 69.7384C33.9413 70.3706 33.2156 71.2242 32.7367 72.2173C32.2579 73.2104 32.0421 74.3098 32.1098 75.4102H32.1598Z" fill="#FF8B7B"/>
<path d="M44.3198 74.8906C44.351 74.9056 44.3852 74.9134 44.4198 74.9134C44.4544 74.9134 44.4886 74.9056 44.5198 74.8906C44.7213 74.7041 44.964 74.5679 45.2282 74.4931C45.4924 74.4184 45.7705 74.4073 46.0398 74.4606C46.0955 74.4761 46.155 74.469 46.2055 74.4409C46.2561 74.4129 46.2935 74.366 46.3098 74.3106C46.3227 74.255 46.3146 74.1966 46.2868 74.1466C46.2591 74.0967 46.2138 74.0589 46.1598 74.0406C45.8223 73.9666 45.472 73.9743 45.138 74.063C44.804 74.1517 44.4961 74.3188 44.2398 74.5506C44.2198 74.5701 44.204 74.5935 44.1932 74.6192C44.1823 74.645 44.1768 74.6726 44.1768 74.7006C44.1768 74.7285 44.1823 74.7562 44.1932 74.7819C44.204 74.8077 44.2198 74.831 44.2398 74.8506C44.2629 74.8701 44.2903 74.8838 44.3198 74.8906Z" fill="#263238"/>
<path opacity="0.2" d="M36.9302 85.6797C37.535 86.6712 38.4042 87.4746 39.4402 87.9997C39.6002 87.3897 39.7702 86.7697 39.8602 86.1997C38.8611 86.1941 37.8702 86.0183 36.9302 85.6797Z" fill="black"/>
<path d="M34.7 85.271C34.7 85.271 35.03 84.871 36.35 85.451C36.35 85.451 39.43 81.991 39.98 79.501C40.4877 79.1762 40.9099 78.7342 41.211 78.2121C41.5121 77.69 41.6832 77.1031 41.71 76.501C41.83 74.431 41.89 73.071 42.71 72.591C43.53 72.111 45.81 70.041 44.14 67.901C42.47 65.761 42.59 68.261 42.59 68.261C42.59 68.261 37.68 62.621 38.38 66.361C38.38 66.361 32.81 65.081 35.64 68.141C35.64 68.141 29.35 69.741 31.43 75.681C30.838 77.4161 30.8378 79.2985 31.4294 81.0337C32.0211 82.769 33.1713 84.2591 34.7 85.271Z" fill="#263238"/>
<path d="M40.5299 77.001C40.8824 77.3209 41.1681 77.7074 41.3706 78.1382C41.5731 78.569 41.6884 79.0355 41.7099 79.511C41.7599 80.791 40.5499 81.141 39.4999 80.511C38.4499 79.881 37.3799 78.681 37.8299 77.511C37.9359 77.2606 38.1021 77.0402 38.3138 76.8695C38.5255 76.6988 38.7761 76.583 39.0433 76.5326C39.3105 76.4821 39.586 76.4985 39.8454 76.5802C40.1048 76.6619 40.3399 76.8065 40.5299 77.001Z" fill="#FF8B7B"/>
<path d="M36.8398 88.2015C38.1986 88.3197 39.5401 88.588 40.8398 89.0015C40.404 88.2632 39.8038 87.6355 39.0857 87.1672C38.3676 86.6988 37.5511 86.4026 36.6998 86.3015C35.8457 86.1046 34.9505 86.1936 34.152 86.5549C33.3534 86.9163 32.6956 87.5299 32.2798 88.3015C33.7913 88.0977 35.3208 88.0641 36.8398 88.2015Z" fill="#6584A6"/>
<path opacity="0.5" d="M36.8398 88.2015C38.1986 88.3197 39.5401 88.588 40.8398 89.0015C40.404 88.2632 39.8038 87.6355 39.0857 87.1672C38.3676 86.6988 37.5511 86.4026 36.6998 86.3015C35.8457 86.1046 34.9505 86.1936 34.152 86.5549C33.3534 86.9163 32.6956 87.5299 32.2798 88.3015C33.7913 88.0977 35.3208 88.0641 36.8398 88.2015Z" fill="white"/>
<path d="M21.0499 123.711C21.0499 123.711 18.4799 129.611 19.5799 145.601C19.5799 145.601 21.6599 164.491 20.3799 170.601C18.0699 181.601 14.1999 183.601 12.8599 215.011L19.7399 216.011C19.7399 216.011 28.8299 184.231 30.9099 173.501C32.1899 166.841 33.9099 146.661 33.9099 146.661L34.5499 125.281L21.0499 123.711Z" fill="#263238"/>
<path d="M31.1499 213.971L31.1599 222.951L36.1899 223.061L36.9699 214.491L31.1499 213.971Z" fill="#FF8B7B"/>
<path d="M37.06 222.541C37.036 222.536 37.0142 222.524 36.9979 222.506C36.9816 222.488 36.9718 222.465 36.97 222.441C36.9662 222.416 36.9698 222.39 36.9805 222.367C36.9911 222.344 37.0083 222.324 37.03 222.311C37.12 222.311 39.03 221.311 39.86 221.611C39.939 221.636 40.0124 221.676 40.0758 221.729C40.1393 221.782 40.1917 221.847 40.23 221.921C40.2855 222 40.3153 222.094 40.3153 222.191C40.3153 222.287 40.2855 222.382 40.23 222.461C39.7664 222.754 39.2116 222.868 38.67 222.781C38.1269 222.752 37.5879 222.672 37.06 222.541ZM37.47 222.401C38.47 222.571 39.76 222.631 40.02 222.311C40.02 222.311 40.09 222.191 40.02 222.031C39.9969 221.986 39.9644 221.947 39.9247 221.916C39.885 221.885 39.839 221.863 39.79 221.851C39.7123 221.824 39.6317 221.808 39.55 221.801C38.8251 221.869 38.1195 222.072 37.47 222.401Z" fill="#6584A6"/>
<path d="M36.9999 222.531C36.9891 222.515 36.9834 222.496 36.9834 222.476C36.9834 222.457 36.9891 222.437 36.9999 222.421C37.0834 221.673 37.4061 220.971 37.9199 220.421C38.0184 220.345 38.1312 220.29 38.2515 220.259C38.3718 220.229 38.4971 220.222 38.6199 220.241C38.9599 220.291 39.0599 220.471 39.0599 220.621C39.1399 221.211 37.8199 222.281 37.1799 222.521C37.1812 222.545 37.173 222.568 37.1571 222.586C37.1411 222.604 37.1188 222.615 37.0949 222.616C37.071 222.617 37.0476 222.609 37.0298 222.593C37.012 222.577 37.0012 222.555 36.9999 222.531ZM38.4699 220.531C38.314 220.522 38.1605 220.572 38.0399 220.671C37.6221 221.096 37.3492 221.642 37.2599 222.231C37.9299 221.881 38.7999 221.041 38.7799 220.681C38.7799 220.681 38.7799 220.561 38.5399 220.531H38.4699Z" fill="#6584A6"/>
<path d="M36.5701 221.781L30.8601 221.481C30.7563 221.476 30.6539 221.506 30.5688 221.566C30.4838 221.626 30.4209 221.712 30.3901 221.811L29.1101 226.411C29.0545 226.605 29.078 226.812 29.1755 226.989C29.273 227.165 29.4365 227.295 29.6301 227.351C29.683 227.36 29.7372 227.36 29.7901 227.351C31.8501 227.421 33.6901 227.411 36.2501 227.551C39.2501 227.711 38.4901 228.031 42.0401 228.271C44.1801 228.421 44.7101 226.001 43.8001 225.831C39.6701 225.091 39.3101 223.831 37.8001 222.231C37.4559 221.941 37.0203 221.781 36.5701 221.781Z" fill="#263238"/>
<path opacity="0.2" d="M31.1599 219.131L36.5399 219.221L36.9699 214.491L31.1499 213.971L31.1599 219.131Z" fill="#263238"/>
<path opacity="0.4" d="M33.6501 149.64L32.2501 147L28.5301 143.52C28.5301 143.52 27.3501 158.6 31.3701 170.58C32.2501 164.57 33.2001 154.6 33.6501 149.64Z" fill="black"/>
<path d="M29.48 125.25C29.48 125.25 28.29 130.95 28.48 143.54C28.67 156.13 33.29 165.71 33.23 173.23C33.12 184.18 28.45 190.09 30.38 216.93H37.74C37.74 216.93 43.57 183.68 44.39 172.52C45.24 160.97 44.33 126.2 44.33 126.2L29.48 125.25Z" fill="#263238"/>
<path d="M30.0001 88.791C30.0001 88.791 24.6601 89.211 23.4701 92.891C23.1184 93.9381 23.013 95.0522 23.1622 96.1466C23.3114 97.241 23.711 98.2863 24.3301 99.201L27.2101 100.021L30.0001 88.791Z" fill="#6584A6"/>
<path opacity="0.1" d="M30.0001 88.791C30.0001 88.791 24.6601 89.211 23.4701 92.891C23.1184 93.9381 23.013 95.0522 23.1622 96.1466C23.3114 97.241 23.711 98.2863 24.3301 99.201L27.2101 100.021L30.0001 88.791Z" fill="black"/>
<path d="M36.84 88.2007C40.27 88.5107 47.29 90.1007 48.01 97.2007C48.73 104.301 45.39 129.501 45.39 129.501C45.39 129.501 32.09 129.971 19.74 126.411C22.4327 116.564 24.0258 106.449 24.49 96.2507C24.71 90.8207 28.77 87.4807 36.84 88.2007Z" fill="#6584A6"/>
<path opacity="0.1" d="M41.4399 96C41.4399 96 43.8199 103.07 47.7299 107.58C47.9999 104.03 48.1599 100.78 48.0899 98.53L41.4399 96Z" fill="black"/>
<path d="M51.9999 97.1606L57.6999 101.981L69.5799 99.0506L70.1799 96.3706C70.2499 96.0452 70.443 95.7594 70.7188 95.5731C70.9947 95.3867 71.3318 95.3142 71.6599 95.3706L72.7499 95.5606L74.0699 94.7106C74.2285 94.6099 74.407 94.5446 74.5933 94.5195C74.7795 94.4944 74.9689 94.5099 75.1486 94.565C75.3282 94.6201 75.4938 94.7136 75.6338 94.8388C75.7739 94.9641 75.8851 95.1182 75.9599 95.2906L76.4399 96.4006C76.5595 96.6751 76.5807 96.9824 76.4999 97.2706L75.5799 100.481C75.5133 100.711 75.3848 100.918 75.2085 101.08C75.0322 101.243 74.8148 101.353 74.5799 101.401L71.4199 101.971C71.4199 101.971 61.1299 106.881 57.6399 107.031C54.1499 107.181 48.1499 102.521 48.1499 102.521L51.9999 97.1606Z" fill="#FF8B7B"/>
<path d="M42.2801 89.5605C42.2801 89.5605 48.0001 91.0005 54.6001 97.2905C54.0152 98.9255 53.111 100.428 51.9402 101.71C50.7694 102.993 49.3553 104.03 47.7801 104.761C47.7801 104.761 36.1301 92.7605 42.2801 89.5605Z" fill="#6584A6"/>
<path d="M12.5799 213.092L12.3799 215.622L19.8599 216.692L20.5799 214.442L12.5799 213.092Z" fill="#263238"/>
<path opacity="0.3" d="M12.5799 213.092L12.3799 215.622L19.8599 216.692L20.5799 214.442L12.5799 213.092Z" fill="white"/>
<path d="M30.0601 215.23L30.3001 217.76L37.9101 217.75L38.3501 215.28L30.0601 215.23Z" fill="#263238"/>
<path opacity="0.3" d="M30.0601 215.23L30.3001 217.76L37.9101 217.75L38.3501 215.28L30.0601 215.23Z" fill="white"/>
</g>
<defs>
<clipPath id="clip0_5672_8153">
<rect width="417" height="313" fill="white"/>
</clipPath>
</defs>
</svg>
