<svg width="100" height="100" viewBox="0 0 100 100" fill="none" xmlns="http://www.w3.org/2000/svg">
<rect width="100" height="100" rx="5" fill="#F1F2F3"/>
<path d="M27.4341 58V43.72H29.2341V56.4H35.4741V58H27.4341ZM47.0024 52.62C47.0024 54.3933 46.5491 55.7667 45.6424 56.74C44.7491 57.7133 43.5358 58.2 42.0024 58.2C41.0558 58.2 40.2091 57.9867 39.4624 57.56C38.7291 57.12 38.1491 56.4867 37.7224 55.66C37.2958 54.82 37.0824 53.8067 37.0824 52.62C37.0824 50.8467 37.5291 49.48 38.4224 48.52C39.3158 47.56 40.5291 47.08 42.0624 47.08C43.0358 47.08 43.8891 47.3 44.6224 47.74C45.3691 48.1667 45.9491 48.7933 46.3624 49.62C46.7891 50.4333 47.0024 51.4333 47.0024 52.62ZM38.9024 52.62C38.9024 53.8867 39.1491 54.8933 39.6424 55.64C40.1491 56.3733 40.9491 56.74 42.0424 56.74C43.1224 56.74 43.9158 56.3733 44.4224 55.64C44.9291 54.8933 45.1824 53.8867 45.1824 52.62C45.1824 51.3533 44.9291 50.36 44.4224 49.64C43.9158 48.92 43.1158 48.56 42.0224 48.56C40.9291 48.56 40.1358 48.92 39.6424 49.64C39.1491 50.36 38.9024 51.3533 38.9024 52.62ZM53.5918 47.08C54.2985 47.08 54.9318 47.2133 55.4918 47.48C56.0651 47.7467 56.5518 48.1533 56.9518 48.7H57.0518L57.2918 47.28H58.6918V58.18C58.6918 59.7133 58.2985 60.8667 57.5118 61.64C56.7385 62.4133 55.5318 62.8 53.8918 62.8C52.3185 62.8 51.0318 62.5733 50.0318 62.12V60.5C51.0851 61.06 52.4051 61.34 53.9918 61.34C54.9118 61.34 55.6318 61.0667 56.1518 60.52C56.6851 59.9867 56.9518 59.2533 56.9518 58.32V57.9C56.9518 57.74 56.9585 57.5133 56.9718 57.22C56.9851 56.9133 56.9985 56.7 57.0118 56.58H56.9318C56.2118 57.66 55.1051 58.2 53.6118 58.2C52.2251 58.2 51.1385 57.7133 50.3518 56.74C49.5785 55.7667 49.1918 54.4067 49.1918 52.66C49.1918 50.9533 49.5785 49.6 50.3518 48.6C51.1385 47.5867 52.2185 47.08 53.5918 47.08ZM53.8318 48.56C52.9385 48.56 52.2451 48.92 51.7518 49.64C51.2585 50.3467 51.0118 51.36 51.0118 52.68C51.0118 54 51.2518 55.0133 51.7318 55.72C52.2251 56.4133 52.9385 56.76 53.8718 56.76C54.9518 56.76 55.7385 56.4733 56.2318 55.9C56.7251 55.3133 56.9718 54.3733 56.9718 53.08V52.66C56.9718 51.1933 56.7185 50.1467 56.2118 49.52C55.7051 48.88 54.9118 48.56 53.8318 48.56ZM71.4165 52.62C71.4165 54.3933 70.9632 55.7667 70.0565 56.74C69.1632 57.7133 67.9498 58.2 66.4165 58.2C65.4698 58.2 64.6232 57.9867 63.8765 57.56C63.1432 57.12 62.5632 56.4867 62.1365 55.66C61.7098 54.82 61.4965 53.8067 61.4965 52.62C61.4965 50.8467 61.9432 49.48 62.8365 48.52C63.7298 47.56 64.9432 47.08 66.4765 47.08C67.4498 47.08 68.3032 47.3 69.0365 47.74C69.7832 48.1667 70.3632 48.7933 70.7765 49.62C71.2032 50.4333 71.4165 51.4333 71.4165 52.62ZM63.3165 52.62C63.3165 53.8867 63.5632 54.8933 64.0565 55.64C64.5632 56.3733 65.3632 56.74 66.4565 56.74C67.5365 56.74 68.3298 56.3733 68.8365 55.64C69.3432 54.8933 69.5965 53.8867 69.5965 52.62C69.5965 51.3533 69.3432 50.36 68.8365 49.64C68.3298 48.92 67.5298 48.56 66.4365 48.56C65.3432 48.56 64.5498 48.92 64.0565 49.64C63.5632 50.36 63.3165 51.3533 63.3165 52.62Z" fill="#7D828B"/>
</svg>
